<?xml version="1.0" encoding="UTF-8"?>
<svg id="Capa_2" xmlns="http://www.w3.org/2000/svg" viewBox="0 0 516.41 459.49">
  <defs>
    <style>
      .cls-1 {
        fill: #fff;
      }
    </style>
  </defs>
  <g id="Capa_1-2" data-name="Capa_1">
    <g>
      <path class="cls-1" d="M48.46,127.2c1-1.63,2-3.26,3.01-4.88.36-.59.72-1.17,1.5-1.55-2.06,5.46-4.12,10.92-6.18,16.39.23.12.46.25.69.37.5-.79,1.12-1.52,1.49-2.37,2.25-5.04,4.44-10.11,6.67-15.16.25-.58.68-1.08,1.4-1.44-2.16,5.31-4.32,10.62-6.59,16.22,1.82-.94,2.72-2.06,3.27-3.75,1.65-5.05,3-10.27,6.46-14.53.33-.41.68-.8,1.05-1.18.07-.08.23-.07.47-.14-2.17,5.14-4.3,10.22-6.44,15.3.24.14.47.29.71.43,1.38-2.06,2.87-4.04,4.1-6.19,1.4-2.45,2.54-5.04,3.84-7.55.27-.52.78-.92,1.18-1.38.19.08.37.17.56.25-.38,1.59-.77,3.18-1.19,4.92-1.97-.05-1.39,2.25-2.8,3.34,1.98.26,2.55-.88,3.27-1.87,1.28-1.77,2.62-3.49,3.94-5.23.3.18.6.37.89.55-1.16,1.99-2.33,3.99-3.56,6.11.7.49,1.33.93,2.36,1.66,1.98-3.18,3.91-6.26,5.83-9.35.14.07.28.14.42.2-.55,1.57-1.08,3.16-1.66,4.72-.46,1.23-.85,2.52-1.51,3.64-1.11,1.88-1.05,3.42.97,4.78,1.81-4.54,3.64-9.1,5.46-13.66.15.06.31.12.46.18-1.25,3.35-2.51,6.7-3.76,10.05-.25.68-.54,1.34-.79,2.02-1.01,2.79-.97,3.04.98,5.95,1.43-5.07,2.81-9.97,4.19-14.88.19.05.38.1.57.15-.78,2.93-1.56,5.85-2.37,8.9,1.41-.25,1.41.39,1.04,1.36-.78,2.03-1.57,4.05-2.25,6.12-.28.86-.26,1.82-.13,2.8,2-3.69,3.11-7.82,5.91-10.97.19.09.38.19.57.28-.82,2.26-1.65,4.52-2.47,6.79.15.06.3.12.45.18.72-1.3,1.44-2.59,2.16-3.89.05.03.11.05.16.08-1,3.03-2,6.06-2.99,9.1l.59.21c1.15-2.82,2.14-5.73,3.52-8.43.97-1.89,2.44-3.54,3.78-5.22.24-.3.92-.26,1.39-.38-.03.53.11,1.13-.1,1.57-4.97,10.48-9.04,21.19-8.86,33.04,0,.07-.03.14,0,.2.91,2.44,1.82,4.89,3.07,7.29-.78-8.38-1.52-16.69,2.34-24.55.12-.25.46-.39,1.05-.49-1.39,4.96-2.54,9.92-2.22,15.07.32,5.08.66,10.16.99,15.23-.2.05-.4.11-.6.16l-1.04-2.2c-.16,0-.33.02-.49.03,0,1.58-.34,3.26.1,4.71.4,1.29,1.66,2.31,2.99,3.41v-12.76c.25-.01.5-.03.75-.04.07.64.15,1.27.21,1.91.42,4.71.62,9.46,1.32,14.13.38,2.56,1.53,5.02,2.48,7.47.38.97,1.16,1.79,1.76,2.67.28-.1.55-.2.83-.3-.47-2.41-1.07-4.8-1.36-7.23-.31-2.61-.45-5.25-.46-7.88,0-2.57.16-5.14.4-7.69.24-2.51.69-5.01,1.05-7.51.24.01.48.02.71.04,0,.68.07,1.37-.01,2.04-.96,7.54-1.35,15.1-.36,22.66.25,1.88,1.03,3.71,1.14,5.59.1,1.69-.14,3.39,1.15,4.72.51.52,1.23.83,1.85,1.24.25.17.53.3.75.51.13.12.18.35.23.54,1.89,6.07,5,6.39,10.94,4.26q-.48,1.79-5.4,3.62c.91.77,1.74,1.48,2.84,2.42-4.18-.37-11.55-9.5-13.66-16.36-.87-.35-1.68-.69-3.04-1.24,2.37,4.33,4.45,8.32,6.73,12.21,1.29,2.21,2.92,4.21,4.35,6.34.81,1.2,1.6,1.48,3.1.93,2.08-.76,3.63-2.04,5.01-3.64,4.14-4.83,8.83-9.04,14.07-12.64.22-.15.45-.27,1-.6-3.6.07-8.08,2.22-8.09,3.31-1.33-.07-2.66-.13-4.43-.22,2.32-.9,3.66-2.16,1.82-4.53-.64.34-1.36.73-2.43,1.3.96-1.33,2.03-2.25,2.34-3.38.32-1.2-.08-2.6-.19-4.33-1.04.51-1.92.93-3.44,1.67.57-.78.85-1.23,1.2-1.62.4-.43.86-.81,1.3-1.21-.1-.15-.2-.3-.3-.45-.96.1-1.92.2-2.89.31q2.96-1.52,2.16-5.12h-1.43c1.63-3.08,1.65-4.97.58-5.92.32-1.81.58-3.3.86-4.86-.87-.36-1.56-.64-2.24-.92l.05-.24h2.26c-.47-1.83,1.95-3.98-1.01-5.49.53.03,1.06.07,1.64.1.31-1.24.59-2.38.9-3.63-.95-.15-1.83-.28-2.71-.41-.1-.17-.19-.33-.29-.5.65-.4,1.33-1.16,1.96-1.13,1.91.1,2.11-1.07,2.31-2.54-.74-.26-1.44-.51-2.42-.86,1.25-.3,2.43-.27,3.05-.84.34-.31-.27-1.64-.45-2.53.23.06.76.19,1.31.33,4.25-8.7,7.82-17.78,16.05-23.55.15.11.3.21.46.32-1.23,1.46-2.46,2.91-3.68,4.35,1.17,1.41,2.23,2.69,3.29,3.98-.13.12-.26.23-.39.35-.98-1.24-1.95-2.48-3.26-4.13-1.95,3.11-3.47,5.52-4.8,7.64,1.42,1.5,2.63,2.77,3.84,4.04-.15.19-.31.38-.46.57-.69-.47-1.38-.95-2.07-1.42-2.03-1.38-2.22-1.33-3.29.88-.17.35-.31.71-.54,1.23,2.55.44,4.98.81,7.39,1.31.51.11.93.66,1.39,1.01-.52.11-1.05.35-1.55.3-1.9-.18-3.82-.34-5.68-.73-1.81-.38-2.91.1-3.39,1.92-.18.68-.45,1.34-.74,2.16h8.09c-1.17,1.16-3.45.33-3.02,2.66,1.26.23,2.56.47,3.87.71-.01.23-.02.46-.03.69-.77,0-1.56.1-2.32-.02-2.04-.31-2.99.47-2.73,2.91h5.8c0,.24.01.49.02.73-1.11.11-2.21.29-3.32.32-3.45.11-3.45.09-3.54,3.69h5.95c.02.16.04.32.06.48-2.08.23-4.15.45-6.37.7-.1,1.04-.2,1.98-.31,3.09,2.28-.14,4.35-.26,6.43-.38.01.19.02.39.04.58-1.57.19-3.14.46-4.72.54-1.76.09-2.32.87-1.83,2.59h3.67c.12-.6.24-1.2.37-1.8l.57-.08c.18,1.16.34,2.33.56,3.49.23,1.23.6,2.43.75,3.67.16,1.29.06,2.61.2,3.91.17,1.5.13,3.23,2.42,3.54-.47.26-.95.52-1.58.87.13.74.27,1.56.44,2.5h2.13c.06.15.12.3.18.45-.61.32-1.22.64-2.05,1.07.1.55.22,1.21.31,1.74,3.3.25,5.45-1.44,7.67-3.78-.8-.36-1.43-.65-1.76-.8-.64-1.92-1.1-3.68-1.79-5.35-4.98-11.89-4.12-23.92-.99-36.18-.37.39-.68.72-.99,1.04-.17-.1-.33-.2-.5-.31,1.54-2.58,2.79-5.42,4.7-7.69,2.43-2.89,4.99-6.15,8.23-7.79,6.28-3.18,12.67-6.59,20.19-6.76v3.7c-3.43.93-6.77,1.83-10.1,2.74,0,.24.01.47.02.71,1.09.21,2.18.42,3.26.64,1.61.34,3.2.85,4.83.99,1.92.18,2.51,1.04,1.95,3.11-1.98-.46-4.01-.85-5.99-1.41-2.09-.59-4.12-1.37-6.2-2-.44-.13-1.05-.18-1.42.03-4.77,2.68-8.77,6.22-11.99,10.85.73.37,1.33.67,1.95.99-.87.38-1.65.71-2.44,1.05.07.17.13.34.2.5,1.33.13,2.66.26,4.44.43-.59-.65-.87-.97-1.3-1.45,5.32-1.96,9.09,1.41,13.15,3.6-.81-.26-1.68-.41-2.4-.81-1.64-.92-2.83-.59-3.94,1.58,1.16.11,2.13.23,3.1.28,1.04.05,2.08.01,3.12.01l.12.6c-.75.41-1.49.82-2.23,1.23,1.67,2.46,3.52,4.3,6.76,1.42,0,.26,0,.51,0,.77-1.01.61-2.03,1.23-3.22,1.95.71,2.44,2.83.93,4.38,1.65-.13-1.04-.23-1.84-.32-2.63,2.62,3.58,4.23,7.48,4.25,11.93.02,5.78-2.31,10.85-4.74,15.9-2.57,5.34-5.9,10.12-10.31,14.11-.33.3-.73.68-.8,1.08-.51,2.8-.94,5.61-1.4,8.37,2.93-.86,6.14-1.75,9.3-2.76,2.53-.8,4.11-2.76,5.5-4.89.72-1.09,1.45-2.18,2.22-3.33.65,2.46-1.16,5.81-5.67,10.64,1.67-.08,3.36-.17,5.06-.23.25,0,.5.08.85.14v10.83c-.46-.69-.74-1.14-1.04-1.57-1.43-2.03-3.28-3.04-5.82-3.56-5.09-1.03-8.61,1.9-12.56,4.02-6.87,3.68-10.4,10.24-14.39,16.41-.25.39.04,1.47.44,1.91,3.23,3.51,6.82,6.56,11.08,8.81,2.27,1.2,4.4,2.65,6.64,3.9.95.53,2.17,1.63,3.02,0,.75-1.45-.59-2.11-1.58-2.42-4.37-1.37-6.26-5.22-8.73-8.49-.1-.13-.07-.36-.2-1.22,1.56.83,2.94,1.26,3.91,2.15,2.46,2.26,4.77,2.88,7.46.36.89-.83,2.11-1.34,3.24-1.87,3.5-1.64,5.98-4,6.23-8.13.03-.54.4-1.07.6-1.6.16.04.31.08.47.12v5.24c.49-.17.78-.27,1.53-.53-.32,1.02-.4,1.92-.84,2.59-1.84,2.86-4.43,4.79-7.58,6.07-1.19.48-2.23,1.33-3.49,2.1,1.36,1.25,2.33,2.11,3.26,3.01.28.27.63.64.64.97.14,4.11,3.59,4.61,6.35,5.78,1.25.53,1.85,1.14,1.14,3.03-2.98-1.43-5.92-2.84-8.81-4.22.91-2.49.55-3.37-1.66-4.92,0,.46.03.89,0,1.32-.21,2.51-2.28,3.88-4.48,2.64-5.39-3.03-10.71-6.18-15.95-9.46-1.45-.91-2.51-2.46-3.76-3.7-.24-.24-.52-.44-.69-.58,1.39,3.5,2.8,7.02,4.24,10.62.14-.92.29-1.86.46-2.93,4.69,2.62,9.23,4.99,13.57,7.68,1.36.84,2.24,2.48,3.26,3.82.5.66.82,1.48,1.59,2.04-.33-.66-.69-1.32-1-1.99-.85-1.87.17-3.37,2.21-3.18.71.06,1.41.32,2.08.58,2.7,1.03,5.37,2.15,8.1,3.11,1.16.4,1.44.98.92,2.3-3.86-1.42-7.71-2.83-11.56-4.25,3.39,4.94,4.99,10.94,10.35,15.03-.98,0-1.32.04-1.66-.01-.31-.05-.6-.18-1.27-.4.57.77.92,1.24,1.26,1.71-.09.11-.19.21-.28.32-1.58-1.32-3.44-2.41-4.67-3.99-2.65-3.41-5.11-6.99-7.38-10.66-1.09-1.77-2.25-3.07-4.17-3.95-3.36-1.55-6.59-3.37-9.96-5.12.31,3.86-1.72,7.36-3.26,11.03-1.3,3.1-.33,6.12.89,8.97.38.89,1.58,1.51,2.52,2.06,4.89,2.89,7.93,7.19,9.7,12.49.03.1-.07.24-.18.62-3.49-4.29-6.2-9.17-11.62-12.13,0,1.78.04,3.13-.03,4.48-.02.38-.36.74-.55,1.12-.32-.27-.86-.5-.92-.82-.32-1.66-.53-3.34-.74-5.02-.09-.7.18-1.6-.16-2.09-2.05-2.96-2.98-6.24-2.91-9.92-3.38.06-5.58,3.4-9.58,2.59,3.06-1.93,5.44-3.91,8.71-4.22.47-.04,1.16-.13,1.33-.43,2.08-3.7,4.15-7.43,1.96-11.84-1-2.03-1.76-4.24-3.12-6-.66-.85-2.46-1.23-3.7-1.16-6.17.34-13.98-4.22-16.2-10.02-.89-2.34-1.08-4.95-1.6-7.53-.38.18-1.11.53-1.71.81.42.69.77,1.27,1.13,1.84-.65.3-1.28.81-1.96.88-4.84.49-9.75.54-14.51,1.46-3.25.63-6.28,2.42-9.88,3.88.85.7,1.13.92,1.78,1.46h-2.3c-.13-.11-.26-.23-.39-.34-2.44,3.48-4.91,6.95-7.28,10.48-.27.41-.04,1.15-.04,2.32-1.84,2.98-1.61,4.09,1.7,6.64.77.6,1.51,1.29,2.1,2.06,1.13,1.46,1.98,3.03.4,4.89,4.12,2.97,8.13,5.91,9.95,10.8.24.64.38,1.31.67,2.3-.69-.23-1.05-.24-1.23-.43-4.08-4.17-8.15-8.37-12.12-12.46-3.71,1.25-4.23,1.84-3.43,5.18.8,3.35.77,6.66.28,9.99-.38,2.52.2,4.71,1.14,7.05,2.22,5.54,3.64,11.31,3.15,17.38-.04.45-.13.9-.23,1.35-.02.09-.19.14-.76.53-.15-2.44-.28-4.63-.44-7.23-1.66,3.02-3.14,5.72-4.62,8.41-.22-.07-.43-.14-.65-.21.27-.99.47-2,.82-2.97,1.02-2.85,2.19-5.65,3.09-8.53.29-.95.05-2.13-.18-3.15-.19-.88-.57-1.8-1.1-2.52-3.05-4.1-2.84-8.66-2.27-13.4.29-2.41-.12-4.91-.23-7.73-2.82,2.06-5.23,3.75-7.57,5.55-3.38,2.6-5.03,6.08-5.39,10.34-.54,6.48-1.02,12.93-3.26,19.2-1.08,3.03-.57,6.64-.77,9.98-.05.74-.08,1.47-.12,2.21-.28.02-.56.04-.83.06-.34-2.98-.69-5.96-1.03-8.94-.14-.03-.28-.05-.42-.08-.58,4.57-1.16,9.13-1.73,13.7-.17.01-.35.03-.52.04-.13-.63-.3-1.26-.38-1.89-.76-5.96.68-11.62,2.21-17.31.81-3.01.89-6.21,1.35-9.32.59-3.96,1.21-7.92,1.89-11.86.11-.66.6-1.26,1.13-2.32-.63,7.48-1.22,14.47-1.81,21.45.16.03.32.06.48.09.37-1.64.88-3.26,1.07-4.92.45-3.86.82-7.73,1.07-11.61.27-4.25,2.23-7.54,5.47-10.09,2.01-1.58,4.19-2.96,6.34-4.36,1.31-.85,2.38-1.74,3.29-3.16.8-1.23,2.79-1.72,4.29-2.45.49-.24,1.11-.22,1.67-.32l.4-.57c-1.45-1.57-2.9-3.13-4.67-5.05-2.3,5.71-7.25,8.21-11.41,11.58-2.13,1.73-3.73,4.12-5.73,6.4,0-.52-.14-1.15.02-1.7.93-3.16,2.98-5.53,5.5-7.53,1.76-1.39,3.61-2.66,5.29-4.13,1.74-1.53,1.65-5.59-.07-7.12-.22-.19-.68-.11-.86-.13.14-2.35.28-4.59.42-6.88q-3.08,1.15-2.63,2.36c-.67.54-1.42.9-1.8,1.49-4.2,6.52-9.93,11.37-16.57,15.23-.27.16-.56.3-1.01.26,6.35-4.85,12.47-9.9,16.31-17.07-2.48-.33-2.83-.03-4.47,1.6-2.38,2.34-4.65,5.06-7.52,6.56-6.29,3.3-10.26,8.42-12.9,14.67-2.38,5.62-4.19,11.48-6.43,17.16-.94,2.37-2.29,4.58-3.6,6.78-.4.67-1.27,1.07-2.17,1.8,4.14-10.16,7.97-19.89,12.08-29.5,2.22-5.18,5.74-9.33,10.73-12.29,3.14-1.87,5.88-4.42,8.76-6.63-.48-.62-.86-1.13-1.25-1.63.65-.12,1.31-.37,1.95-.33,4.09.28,7.71-.78,10.61-3.77,1.32-1.36,1.87-2.93,1.16-4.88-.42-1.16-.62-2.42-.72-3.66-.19-2.36,1.34-3.67,3.45-2.71,2.93,1.33,4.71.17,6.92-1.74,2.36-2.05,2.67-4.04,1.89-6.77-.7-2.46-.07-3.38,2.58-4.47-.25-.35-.45-.92-.69-.94-2.61-.21-4.94,2.28-4.65,4.93.06.59.23,1.16.31,1.75.33,2.58-.74,3.93-3.7,4.47.23-.36.32-.68.52-.8,1.74-1.02,1.88-2.37,1.28-4.22-1.24-3.84-.18-5.77,3.61-7.18.62-.23,1.21-.53,1.84-.72,2.22-.65,2.93-2.17,2.76-4.37-.1-1.35.07-2.72.46-4.05-.16,3.26,3.31,7.06-1.23,9.55.28,1.55,1.15,1.86,2.09.98,1.71-1.59,3.48-3.21,4.74-5.13.57-.86.35-2.69-.18-3.73-.87-1.7-2.27-3.14-3.5-4.65-.2-.24-.67-.39-1-.37-2.95.17-5.97.14-8.37,2.33-.06.06-.23,0-.69-.49,1.27-.85,2.44-1.93,3.83-2.49,1.5-.6,3.18-.81,4.81-1.02,3.1-.41,4.02-2.81,4.51-5.24.48-2.35-.57-4.41-2.65-5.75-1.79-1.15-3.25-3.17-5.97-2.08-.02-.2-.05-.4-.07-.6.41-.3.79-.63,1.22-.88,4.89-2.83,5.61-5.99,3.65-11.22-1.27-3.4-3.52-5.57-6.15-7.68-3.11-2.49-3.64-4.07-1.69-7.49,4.76-8.36,2-15.69-2.7-22.85-.4-.61-.99-1.1-1.61-1.77-1.62.46-3.71.63-5.3,1.62-1.76,1.08-3.06,2.91-4.51,4.37,0-.05-.04-.36-.07-.68.25.26.51.51.76.77-2.63,2.16-5.2,4.4-7.92,6.45-6.61,4.99-13.16,10.08-19.98,14.76-9.4,6.45-15.59,14.81-17.96,26.13-1.64,7.78-4.02,15.41-6.11,23.1-3.52,13-4.07,26.11-1.53,39.34.22,1.15.63,2.3,1.17,3.34,2.29,4.39,3.16,9.06,2.79,13.96-.44,5.76.77,11.15,3.58,16.16.85,1.53,2.09,2.84,3.42,4.62,2-4.38,4.39-7.89,3.3-12.32-4.54-.47-6.8-3.53-6.01-8.11.07-.39.43-.72.66-1.08.37.29.89.51,1.08.89.4.82.59,1.74.92,2.6.59,1.58,1.4,2.76,3.45,2.55.81-.08,1.69.48,2.54.74.84-2.63,0-4.95-2.26-6.13-1.57-.83-1.6-1.92-.08-2.9,1.1-.71,2.3-1.32,3.26-2.18,1.1-.99,1.36-2.1.04-3.35-1.68-1.59-1.75-3.2-.45-5.19.47.84.85,1.65,1.35,2.38.91,1.33,2.2,1.89,3.77,1.48,1.59-.41,2.34-1.5,2.45-3.17.16-2.3.45-4.58.73-6.87.06-.45.34-.87.51-1.31.2,0,.4,0,.6.01.32,1.84.65,3.68,1.03,5.83.56-.52.88-.74,1.09-1.03,1.57-2.23,3.72-3.64,6.24-4.64,1.39-.55,2.8-1.26,3.92-2.23,2.06-1.79,1.59-3.51-.98-4.29-.88-.27-1.83-.35-2.67-.7-.92-.38-1.75-.96-3.01-1.67.86-.35,1.23-.65,1.54-.6,2.21.34,4.44.6,6.58,1.18,2.12.58,2.96,2.23,2.7,4.43-.32,2.81-2.08,4.55-4.46,5.61-3.18,1.43-6.15,2.93-8.75,5.48-1.55,1.52-3.14,2.8-4.4,4.69-.87,1.32-2.94,1.84-4.73,2.86-.97,1.37-2.23,3.14-3.57,5.03,1.73,1.66,3.08,4.11,1.89,6.52-1.37,2.76-1.2,5.73-2.15,8.42-1.02,2.91-2.85,5.57-4.57,8.18-.77,1.17-2.43,1.15-3.38.23-1.71-1.66-3.5-3.42-4.61-5.49-2.52-4.71-3.77-9.8-3.39-15.23.27-3.89.36-7.85-1.21-11.5C-.36,238.75-.39,227.59.37,216.38c.49-7.3,1.78-14.49,3.96-21.52,1.91-6.16,3.66-12.38,5.29-18.62,2.63-10.09,8.46-17.87,16.85-23.84,3-2.14,6.12-4.11,9.15-6.22.54-.38,1.13-.98,1.28-1.58,1.19-4.77,2.04-9.64,3.43-14.35,4.92-16.68,13.35-31.29,25.95-43.42,4.89-4.71,10.31-8.58,17.09-11.52-1.7-2.76-2.95-5.64-4.94-7.87-6.79-7.57-14.18-14.48-23.11-19.58-5.85-3.34-12.15-3.43-18.5-2.57-1.92.26-3.74,1.55-5.49,2.56-1.39.8-2.67.97-3.76-.2-1.51-1.62-3.23-3.21-4.15-5.16-1.3-2.77-2.13-5.81-2.82-8.81-.79-3.42,2.36-7.43,6.15-8.21.5-.1,1.01-.17,1.6-.27-.28-1.4-.58-2.66-.77-3.95-.27-1.87.34-3.24,2.33-3.73.89-.22,1.76-.6,2.66-.71,2.79-.34,4.38.85,4.94,3.6.21,1.03.3,2.09.53,3.11.34,1.52.75,1.83,2.48,2.03.19-1.08.31-2.19.6-3.25.58-2.18,1.9-3.1,4.22-3.09,2.34.01,3.8.89,4,3.22.21,2.47,1.54,2.99,3.57,3.39,7.76,1.54,15.06,4.25,21.87,9.2-.15-.82-.16-1.23-.29-1.59-2.3-6.38-4.61-12.75-6.91-19.13-.27-.74-.5-1.5-.69-2.27-1.02-4.21-.15-5.81,3.85-7.59,1.55-.69,3.05-1.57,4.43-2.56,1.78-1.29,3.59-2.02,5.85-1.9,2.88.16,3.81.72,4.97,3.32,7.37,16.53,14.91,32.99,22.12,49.59,4.61,10.62,8.81,21.42,13.08,32.18.78,1.97,1.05,4.16,1.55,6.24.22.04.44.09.67.13.36-1.15.95-2.29,1.04-3.46.59-7.29.88-14.61,1.63-21.88,1.49-14.4,2.29-28.92,6.34-42.94,1.45-5,2.76-10.29,6.56-13.98,3.57-3.47,11.07-5.95,15.79-1.08.47.48.85,1.37.78,2.01-.91,7.91-2.14,15.78-2.83,23.7-1.06,12.21-1.94,24.43-4.63,36.43-.36,1.58-.35,3.24-.22,4.98,4.16-10.53,7.94-21.22,15.66-30.24.18,2.56.3,4.65-1.28,6.71-5.1,6.67-8.02,14.48-11.17,22.16-.7,1.7-1.47,3.37-2.25,5.16,2.59.47,3.16-1.73,3.97-3.07,2.93-4.83,5.61-9.81,8.39-14.73.35-.61.72-1.22,1.47-1.66-.99,2.4-1.97,4.79-3,7.29,1.43.45,2.72.85,4.01,1.25-.07.22-.14.43-.21.65-1.33-.37-2.65-.73-4.14-1.14-.61,1.27-1.2,2.48-1.93,3.99,2.16.19,4.04.35,6.38.55-.32,4.24-.64,8.46-.96,12.69-.17,0-.35.01-.52.02-1.05-2.22-.5-4.59-.31-6.84h-8.3c0,.18-.02.35-.02.53,1.72.2,3.44.39,5.15.59,0,.21.02.41.03.62-.43.13-.85.34-1.28.36-.99.05-1.98.08-2.96-.01-1.73-.15-2.9.47-3.54,2.12-.17.44-.59.78-1.21,1.02.21-.74.42-1.48.68-2.44-1.03,0-2.05-.3-2.76.05-2.35,1.16-2.81-.57-2.88-2-.14-2.88-.3-5.86.28-8.65,2.79-13.46,3.34-27.18,4.99-40.78.71-5.81,1.64-11.6,2.53-17.39.15-.95.63-1.84.99-2.82-4.13-1.49-8.22-1.61-12.24.32-.44.21-.75.84-.97,1.35-6.1,13.96-8.27,28.78-9.69,43.78-.95,10.09-2.03,20.18-3.19,30.25-.22,1.92-.96,3.84-1.77,5.62-.49,1.09-1.57,1.91-2.34,2.8-.48,1.33-.99,2.73-1.45,4.03.74-.05,1.81-.36,2.77-.15,2.11.46,3.18-.49,3.87-2.42h-4.2q-.43-1.96,6.1-2.97c-1.04-.12-2.07-.23-3.12-.35.72-2.03,4.06-2.77,8.49-1.9-.01,2.52-2.83,1.25-3.75,2.77.59.29,1.11.53,1.46.71-1.35,1.07-3.21,1.86-3.87,3.23-1.09,2.26-2.79,2.03-4.61,2.14-.78.05-1.54.33-2.32.39-.69.05-1.4-.06-2.14-.55-7.87,4.96-15.74,9.93-23.74,14.97-.56-1.03.52-1.67,1.1-2.52,3.76-5.52,9.48-8.36,15.21-11.21,1.64-.82,3.17-1.85,4.95-2.9-4.62-15.36-9.45-30.52-16.67-44.87-5.76-11.46-10.86-23.26-16.24-34.91-1.04-2.26-2-4.56-2.99-6.85-.24-.56-.43-1.15-.65-1.73.19-.1.38-.2.58-.3.58.88,1.28,1.71,1.71,2.66,3.11,6.83,6.07,13.73,9.26,20.52,4.31,9.17,8.79,18.27,13.19,27.4,3.64,7.54,6.71,15.3,8.96,23.38.78,2.78,1.92,5.46,2.78,8.22.56,1.79.91,3.63,1.69,5.64.16-.73.56-1.51.43-2.18-1.34-7.37-4.09-14.29-7.09-21.11-7.88-17.96-15.86-35.89-23.76-53.84-2.07-4.7-3.96-9.48-5.95-14.21-.89-2.12-2.37-2.65-4.39-1.53-.85.48-1.56,1.22-2.39,1.74-1.54.98-3.06,2.04-4.71,2.81-2.69,1.25-2.92,1.36-2.06,4.31,1.44,4.93,2.99,9.82,4.57,14.71,1.19,3.67,2.55,7.29,3.7,10.98.12.38-.7,1.49-1.07,1.48-.86-.01-1.85-.32-2.56-.82-7.58-5.43-16.05-8.71-25.13-10.51-1.54-.3-2.59-.85-2.34-2.68.07-.51.03-1.11-.2-1.55-.26-.51-.81-1.26-1.19-1.24-.57.03-1.28.54-1.61,1.05-.33.5-.28,1.26-.4,1.91-.29,1.56-.76,3.05-2.61,3.29-1.89.25-3.63-.25-4.6-2-.55-1-.85-2.21-1-3.36-.52-3.91-1.37-4.38-5.13-2.55.3,1.16.66,2.35.92,3.56.55,2.57-.39,3.8-2.91,4.36-1.3.29-2.62.85-3.74,1.58-1.36.89-1.85,2.3-1.56,3.98.8,4.75,2.13,9.24,5.99,12.68,1.14-.7,2.26-1.34,3.33-2.07,2.8-1.92,5.9-2.47,9.22-2.22,1.63.12,3.27.29,4.9.29,6.31,0,11.66,2.66,16.55,6.22,6.72,4.89,13.12,10.21,18,17.04,1.47,2.05,2.35,4.54,3.48,6.83.2.41.17,1.04.48,1.27,2.06,1.58.44,2.54-.56,3.57-.45.46-1,.88-1.58,1.17-11.04,5.43-18.96,14.27-26.05,23.97-5.79,7.93-9.92,16.74-13.06,26.03-1.61,4.78-3.27,9.55-5.01,14.64,2.26-.75,2.27-.94,2.62-2.55,2.14-9.76,5.69-18.89,12.15-26.68.31-.37.59-.77.89-1.15l.53.18c-.28.84-.46,1.71-.84,2.5-1.84,3.85-3.74,7.68-5.61,11.52-2.36,3.94-3.76,8.24-4.62,12.78.72-.62,1.24-1.36,1.5-2.19.92-2.85,1.77-5.73,2.62-8.61.2-.66.3-1.35.45-2.03ZM123.77,229.62c7.22-5.52,9.05-13.72,11.22-21.74.21-.01.41-.03.62-.04.29,1.56.58,3.12.96,5.19,1.49-1.77,3.46-3.13,3.97-4.91.89-3.04.86-6.35,1.24-9.54.14-1.17.35-2.33.52-3.49.15.02.3.04.45.06l1.27,7.56c.92-1.7,1.76-3.45,1.97-5.28.23-1.94,1.13-3.27,2.44-4.53,5.49-5.26,9.23-11.61,11.74-18.74.23-.65.42-1.31.71-2.19-2.32.12-4.34.23-6.33.34-.28,1.31-.5,2.39-.75,3.58.89,0,1.67-.04,2.44.01.71.04,1.42.18,2.12.28-1.25.68-2.47.92-3.69,1.08-1.33.17-2.35.59-2.36,2.15,1.55.2,3.01.39,4.47.58l.02.7c-3.53-.42-6.83-.37-8.21,3.79h4.92c-2.54,1.28-6.16-.49-7.98,3.27.99-.1,1.75-.2,2.51-.24.76-.04,1.53,0,2.29,0-3.82,1.16-8.16.92-10.64,4.89,2.52-.16,5-.32,7.48-.48l.09.78c-3.8.72-7.6,1.44-11.87,2.24.37-.84.46-1.43.8-1.73,1.2-1.05,2.56-1.93,3.73-3.02.88-.82,1.62-1.81,2.28-2.82.37-.57.45-1.33.74-2.3,2.7-.84,1.74-4.27,3.33-6.26-.7,0-1.47.05-1.65.41-1.67,3.29-3.74,6.23-6.55,8.67-1.68,1.45-3.08,3.24-4.81,4.62-2.63,2.09-5.45,3.92-8.16,5.91-6.09,4.46-11.49,9.63-16.25,15.49-2.49,3.06-1.79,6.02-.13,8.92,1.7,2.97,4.54,4.72,7.64,5.99,3.45,1.41,6.95,2.71,10.34,4.02.69-2.04,1.37-4.07,2.16-6.41-1.54,1.65-2.61,3.45-5.09,3.18ZM99.14,210.91c-3.28-6.26-6.23-11.89-9.2-17.52-.17-.32-.57-.83-.71-.78-1.4.45-1.28-.69-1.55-1.41-.25-.64-.48-1.29-.72-1.94-.2.02-.39.04-.59.06-.04.78-.29,1.62-.09,2.33.5,1.76.95,3.62,1.88,5.16,2.14,3.53,4.55,6.9,6.86,10.33.7,1.04,1.35,2.12,2.17,3.04.35.39,1.1.43,1.95.73ZM146.26,170.38c.05.52.12,1.13.14,1.35,4.29-.18,8.34-.4,12.4-.49,2.64-.06,2.69-.03,2.65-3.15-5.08.38-10.27-.21-15.19,2.29ZM161.28,161.65c-.76-5.23-1.1-5.55-4.59-4.38.23.91.46,1.83.8,3.2q-2.4-3.54-4.96-1.97c.34,1.42.68,2.86,1.02,4.32,2.66-.4,5.12-.78,7.72-1.17ZM145.52,177.27c.21.08.34.18.45.16,1.23-.22,2.45-.47,3.67-.7,2.82-.54,3.41-1.21,3.76-4.48-2.06.24-4.08.43-6.07.74-.41.06-.95.51-1.07.89-.34,1.1-.5,2.26-.73,3.39ZM146.18,168.93c2.32-.72,4.49-1.39,6.73-2.08,0-.3.08-.65-.02-.94-.17-.49-.46-.94-.69-1.41-.23.46-.48.9-.67,1.37-.13.31-.18.66-.39,1.45-.53-1.06-.85-1.71-1.26-2.54-1.01.49-1.94.94-2.81,1.36-1.35-2.41-2.72-4.86-4.08-7.3-1,2.7-1,2.71.45,2.73.94,2.51,1.84,4.92,2.75,7.36ZM161.67,162.43c-2.85.64-5.38,1.21-7.98,1.79.14,1,.25,1.76.38,2.61,2.65-.17,5.18-.34,7.89-.52-.09-1.26-.18-2.41-.28-3.88ZM115.65,196.25c2.52-1.21,4.66-2.05,6.56-3.26.52-.33.35-1.77.56-3.14-1.06.42-1.51.6-1.96.78-.18.26-.37.52-.55.78.53-.02,1.06-.03,1.59-.05l-.29.59c-2.25-1.95-3.96-.19-5.56.8-.54.33-.23,2.04-.33,3.49ZM120.78,159.92c-4.97-.73-5.62-.29-5.64,3.69h4.93c.24-1.26.46-2.41.71-3.69ZM114.09,168.81c.98-.12,1.93-.23,2.88-.36,2.91-.4,2.97-.49,2.67-3.65-5.82,0-5.26-.91-5.55,4.01ZM133.74,155.23c1.36.76,2.38,1.27,3.33,1.87.94.59,1.78,1.39,2.77,1.88.41.2,1.17-.06,1.63-.34.17-.1.12-1.05-.13-1.29-2.02-1.91-4.37-3.25-7.25-4.08-.18,1.02-.31,1.76-.35,1.96ZM154.85,76.04c.05.2.09.4.14.61h7.34c.33-1.14.66-2.25,1.03-3.53-1.4,0-2.58.08-3.74-.02-2.6-.22-2.6-.26-3.09.61,1.88.18,3.71.36,5.54.54-.03.2-.05.4-.08.6-2.23,1.02-5.08-.66-7.13,1.19ZM119.27,186.25c-4.13.25-4.34.19-3.59,5.04,4.13-1.4,4.24-1.54,3.59-5.04ZM124.73,172.51c-4.18-.12-4.87.53-4.01,3.64,1.46-.09,2.93-.18,4.5-.27-.18-1.22-.33-2.24-.5-3.37ZM125.29,176.87c-5.61,0-5.45.56-4.62,4.08.77-.61,1.42-1.13,1.91-1.52,1.06-.12,2.02-.23,3.11-.35-.17-.96-.29-1.59-.4-2.2ZM121.72,155.86c-4.5-.79-4.85-.64-5.07,2.12q4.56.81,5.07-2.12ZM115.95,182.73c3.41-.88,3.79-1.5,3-4.72-2.75.22-2.91.47-3,4.72ZM90.13,207.37c.36.61.69,1.16,1.32,2.21-1.32-.72-2.08-1.14-2.85-1.56l-.38.47c.65.88,1.3,1.76,2.03,2.74,1.08-.82,2.13-1.37,2.75-2.22.3-.42-.14-1.44-.39-2.14-.04-.1-.92.09-1.41.18-.35.07-.7.19-1.09.31ZM152.66,153.58c-2.05-3.31-3.69-3.67-6.26-1.07,2.22.3,3.84,2.47,6.26,1.07ZM83.24,211.7c-1.64,1.12-3.05,2.19-2.09,4.64,1.29-.72,2.54-1.42,3.84-2.14-.66-.94-1.18-1.68-1.75-2.49ZM145.95,161.49c.49,1.1.9,2.02,1.35,3.03.92-.26,1.65-.46,2.59-.72-.52-1.36-.96-2.53-1.47-3.84-.93.57-1.58.98-2.47,1.53ZM63.74,243.1q2.41-1.58,1.33-5.08-2.67,2.31-1.33,5.08ZM91.11,211.74c1.79,1.99,2.17,2.05,4.22.56-.44-.9-.9-1.82-1.44-2.9-1.01.84-1.89,1.59-2.78,2.34ZM126.65,184.49c-1.09.23-2.01.43-2.83.61v2.91c.69-.11,1.21-.16,1.72-.27.55-.12,1.09-.3,1.7-.48-.2-.92-.36-1.68-.6-2.76ZM127.93,190.91c-.22-.87-.38-1.53-.54-2.18q-3.97.84-3.15,3.48c1.16-.41,2.31-.82,3.69-1.3ZM135.99,152.37c1.55.75,2.89,1.39,4.34,2.08.66-.57,1.33-1.14,2-1.72l-.26-.61c-.97.31-1.93.61-3.08.98.12-.84.21-1.43.39-2.72-1.4.82-2.34,1.37-3.39,1.99ZM113.53,173.11c2.68-.58,2.9-.89,2.52-3.53-2.61.02-2.66.08-2.52,3.53ZM140.27,146.38c-2.81-1.4-3.71-.97-4.05,1.82,2.04.91,3.06-.37,4.05-1.82ZM143.65,157.81c.62.96,1.08,1.65,1.6,2.46.86-.63,1.62-1.18,2.46-1.78-.53-.79-.92-1.36-1.38-2.05-.9.46-1.69.87-2.68,1.38ZM65.18,247.49c2.17-2.28,2.17-2.34.53-4.74-2.66,1.31-.62,3.04-.53,4.74ZM82.34,218.9c1.45-1.07,2.69-1.97,4.23-3.11-2.48-1.21-3.46,1.05-5.25,1.19.37.69.6,1.12,1.02,1.91ZM97.26,215.62c-.09-.36-.17-.73-.26-1.09-1.89.45-3.78.91-5.67,1.36.08.34.17.68.25,1.02,1.89-.43,3.79-.86,5.68-1.29ZM116,174.69c-2.97.17-3.33.87-2.22,4.04.82-1.5,1.41-2.57,2.22-4.04ZM116.86,176.67c2.56-.1,2.72-.34,2.13-3.02-2.18-.12-2.05,1.44-2.13,3.02ZM125.88,180.75c-2.12-.08-2.59.9-2.05,2.79.8-.11,1.58-.22,2.49-.35-.17-.96-.31-1.69-.44-2.44ZM85,183.57c.19-.09.38-.17.57-.26-1.03-2.11-2.06-4.23-3.25-6.65-1.16,3.51,2.59,4.37,2.68,6.91ZM88.32,200.75c-.7,1.94.42,4.92,2.26,5.79-.8-2.05-1.45-3.72-2.26-5.79ZM141.66,155.53c1.52,2.27,2.49-.02,4.29-.15-.84-.86-1.31-1.33-1.85-1.88-.99.82-1.68,1.39-2.44,2.03ZM117.85,153.23c.04.23.09.47.13.7,3.76.72,4.46.55,4.57-1.17-1.58.16-3.14.31-4.7.47ZM145.89,238.52c1.45.83,2.88,1.63,4.44,2.52v-2.52h-4.44ZM147.76,145.14c-1.81-.22-3.21-.38-4.84-.58,1.06,2.27,2.28,2.41,4.84.58ZM122.18,185.57c-2.17.35-2.33.82-1.39,3.4,2.31-.34,1.06-2.05,1.39-3.4ZM97.23,212.85c.04.19.09.37.13.56,1.17-.21,2.35-.43,3.87-.71-.75-.88-1.19-1.4-1.63-1.93-.87.76-1.62,1.42-2.37,2.07ZM151.2,158.81c-.43,1.54-.14,3.02.69,4.43.98-1.57.14-3-.69-4.43ZM119.3,182.84c-1.53.92-3.33.68-3.52,2.65,1.22-.59,3.39.27,3.52-2.65ZM105.92,213.79c-2.18.94-4.64,1.99-6.82,2.92,1.96.7,6.28-1.2,6.82-2.92ZM147.8,178.36v2.4c1.29-.9,2.25-1.57,3.21-2.24l-.31-.61c-.88.14-1.77.28-2.9.46ZM151.04,155.15c1.07,2.47,2.31.66,3.53.57-1.02-2.13-2.23-.64-3.53-.57ZM143.61,150.11c1.75,1.46,2.62-.16,3.92-.62-1.68-1.63-2.57-.07-3.92.62ZM119.31,169.03c-2.26.02-1.43,1.63-1.76,2.75,2.23-.03,1.83-1.39,1.76-2.75ZM148.96,181.27c-2.76.01-2.5,1.91-3.11,3.13.14.11.27.22.41.33.8-1.02,1.59-2.04,2.7-3.46ZM119.78,184.17c2.68.16,2.41-.98,1.72-2.41-.48.67-.96,1.35-1.72,2.41ZM86.21,184.66c-.15.02-.3.04-.45.06v3.23h1.53c-.39-1.17-.73-2.23-1.08-3.29ZM86.4,203.28c-.25.11-.5.22-.75.33l1.89,3.79c.21-.1.42-.21.63-.31-.59-1.27-1.18-2.54-1.77-3.81ZM114.55,179.67c-1.87,1.1-.97,2.52-.97,3.83.16.02.33.04.49.06.16-1.3.32-2.59.48-3.89Z"/>
      <path class="cls-1" d="M33.63,286.76c1.51-2.34,3.03-4.55,3.3-7.59.33-3.72,1.35-7.37,2.11-11.05.11-.51.39-.99.6-1.48.27.06.55.12.82.17-.67,4.3-1.35,8.6-2.03,12.96h1.02c-.84,1.74-1.67,3.46-2.55,5.27-.3-.23-.58-.44-1.35-1.03-.92,3.03-1.77,5.84-2.61,8.65.13.08.27.15.4.23,1.53-1.5,3.07-2.99,4.6-4.49.14.13.28.26.42.39-1.27,1.62-2.43,3.33-3.83,4.82-1.85,1.97-2.05,4.09-1.02,6.76,1.35-1.46,2.61-2.83,3.87-4.19.13.1.25.2.38.3-.77.95-1.43,2.04-2.34,2.83-1.79,1.56-2.14,3.31-1.27,5.46.38.96.58,1.99.98,3.42.93-1.35,1.62-2.37,2.32-3.39l.35.19c-.39.77-.61,1.72-1.19,2.28-1.41,1.35-1.21,2.76-.57,4.32.34.83.61,1.7.92,2.58,2.81-2.1,3.07-2.75,2.3-5.7-.82-3.13-.61-5.65.75-7.59-1.32,6.63,1.99,12.18,4.12,18.57,2.09-2.97,3.95-5.63,5.84-8.33-.29,1.5-.94,3.07-.78,4.56.17,1.57,1.1,3.05,1.75,4.7,3.24-3.43,6.34-6.71,9.43-9.98.16.15.33.3.49.45-.26.32-.49.65-.77.94-2.21,2.34-4.44,4.68-6.65,7.02-1.22,1.29-2.51,2.57-1.51,4.68-.4-.36-.8-.72-1.33-1.19-2.14,3.05-4.28,6.05-6.34,9.1-.25.37-.25,1.17-.01,1.54.98,1.47,2.1,2.84,3.16,4.25.22-.01.45-.02.67-.03.04-.95.17-1.91.09-2.85-.16-1.86-.57-3.72-.59-5.58,0-.67.85-1.34,1.56-1.93-1.89,2.71-1.19,5.32.03,8.11,2.06-2.49,5.08-4.56,1.17-8.25.29,0,.58,0,.87,0,.33.47.67.94.98,1.42.32.5.61,1.01.87,1.44,5.17-5.35,10.34-10.7,15.51-16.06.21.2.42.4.62.61-1.19,1.13-2.32,2.33-3.58,3.37-1.25,1.04-1.66,2.02-.6,3.47.56.77.85,1.75,1.33,2.8,2.75-2.34,4.55-5.4,7.5-7.16.18.19.36.38.54.57-1.85,1.74-3.75,3.43-5.55,5.22-2.43,2.43-2.4,2.52-.22,5.58,3.12-2.79,5.77-6.29,10.08-7.25-2.39,1.82-4.9,3.51-7.15,5.5-2.8,2.48-2.71,2.59-1.2,6.02.28.64.6,1.27.9,1.91,3.38-2.91,6.65-5.73,10.12-8.72-2.6-7.27-5.04-14.84-13.19-18.6.77.25,1.58.43,2.31.78,5.02,2.39,8,6.71,9.92,11.6,2.56,6.54,4.55,13.31,6.78,19.98.24.73.45,1.48.71,2.35.55-.34.97-.6,1.39-.86-1.82,2.14-.2,3.89.52,5.94,1.14-.85,2.14-1.65,3.19-2.37.99-.67,2.04-1.25,3.06-1.86.09.14.18.28.27.42-4.13,3.93-8.25,7.85-12.51,11.9,1.21,1.67,2.29,3.18,3.5,4.87,2.89-3.21,5.68-6.24,9.57-7.86.15.15.31.31.46.46-.8.69-1.63,1.35-2.39,2.07-1.91,1.81-3.79,3.65-5.69,5.48-.84.81-.92,1.61-.19,2.59,1.01,1.36,1.91,2.82,3.04,4.51,2.23-2.87,4.32-5.55,6.38-8.19.88,1.98,1.86,4.17,2.92,6.53,1.31-1.18,2.33-2.11,3.36-3.04.21.17.43.33.64.5-.85,1.31-1.71,2.62-2.67,4.09.79,1,1.62,2.06,2.47,3.15.82-.49,1.46-.88,2.11-1.26.09.09.17.19.26.28-.53.59-1.06,1.17-1.71,1.89,1.65,1.26,2.13,4,5.29,3.26-.37.65-.6,1.05-.9,1.58,1.64,1.48,3.28,2.97,5.06,4.57.49-.78.85-1.36,1.21-1.93.14.05.27.11.41.16-.24.67-.48,1.33-.67,1.85.4.71.75,1.33,1.1,1.94-.65.05-1.31.09-2.26.16-1.26,1.93-2.69,4.12-4.23,6.48,1.71,1.38,3.36,2.7,5,4.02-.12.15-.23.29-.35.44-1.58-1.19-3.17-2.37-4.88-3.66-.55.75-1.09,1.47-1.63,2.2-.22-.03-.44-.05-.66-.08,2.72-2.33.16-4.3.21-6.54.52.94,1.05,1.87,1.74,3.11,1.56-2.37,2.91-4.43,4.27-6.49-2.16-1.62-4.15-3.11-6.43-4.83-2.29,3.8-4.54,7.54-6.79,11.28-.3-.17-.59-.35-.89-.52,1.99-4.02,3.91-8.08,6.78-11.76-1.01-1.13-1.95-2.2-3.28-3.7-4.24,7.11-8.34,13.97-12.5,20.93-1.13-.51-.76-1.7-.34-2.66.63-1.44,1.45-2.8,2.29-4.13,3.19-5.06,6.42-10.09,9.73-15.29-.43-.66-1.08-1.64-2.03-3.08-1.44,2.26-2.68,4.35-4.07,6.33-1.01,1.44-2.32,2.67-3.34,4.11-2.03,2.85-1.98,2.88-1.21,5.91-.38-.66-.75-1.32-1.32-2.31-1.79,2.63-3.22,4.73-4.76,6.99,1.36,1.13,2.65,2.2,3.94,3.26-.08.13-.16.27-.24.4-1.34-.71-2.68-1.42-4.45-2.36-.11.38-.27.96-.44,1.53-.22-.09-.43-.19-.65-.28.54-3.17-2.4-3.64-3.69-5.56-.96,1.22-1.1,2.16-.14,3.17,4.11,4.36,8.2,8.75,12.3,13.11.21.23.51.37.9.65.81-2.69,1.57-5.23,2.34-7.78.17.05.34.09.51.14-.48,1.61-.72,3.34-1.49,4.81-1.56,2.99-.4,4.91,2.19,6.55.96-1.91,1.94-3.88,2.92-5.84.16.08.32.16.48.24-.71,1.51-1.41,3.03-2.15,4.52-.65,1.32-.39,2.25.8,3.22,1.68,1.37,3.18,2.96,4.71,4.5.41.41.66.98.99,1.47-.16.14-.33.27-.49.41-5.33-4.94-10.8-9.75-15.96-14.87-5.15-5.11-9.99-10.53-15-15.85-.36.14-.9.36-1.44.57-.07-.6-.16-1.2-.22-1.8-.04-.44.13-1.02-.09-1.31-2.65-3.58-5.36-7.12-8.06-10.66-1.7,1.24-2.08,2.3-.78,4.22,4.96,7.38,10.86,13.91,17.29,19.97,11,10.39,20.96,21.66,29.76,33.97,5.71,7.99,13.54,13.14,22.78,16.26,3.37,1.14,6.98,1.89,9.99,3.66,4.85,2.86,10.26,3.95,15.38,5.93,1.59.62,3.27,1,5.06,1.54v2.62c-.72-.16-1.42-.23-2.06-.46-11.59-4.11-23.2-8.19-34.76-12.38-8.71-3.16-15.3-9.2-20.26-16.71-9.48-14.34-21.14-26.7-33.23-38.78-4.34-4.34-7.76-9.61-11.58-14.47-.53-.67-.91-1.48-1.51-2.07-4-3.89-6.52-8.68-8.74-13.73-3.87-8.81-9.7-16.42-15.25-24.18-4.36-6.11-9.07-11.98-13.21-18.23-5.47-8.25-7.94-17.73-10.08-27.27-.66-2.93,1.07-5.34,2.07-7.88.11-.29.79-.58,1.1-.49.31.09.53.63.72,1,.07.14-.01.39-.08.58-2.36,6.76.75,12.84,2.62,18.97,2.88,9.45,9.2,16.9,14.98,24.68,5.69,7.66,11.12,15.52,16.28,23.54,2.55,3.96,4.25,8.46,6.34,12.71.28.57.56,1.13.89,1.79,1.22-2.09.84-3.72-.19-5.65-1.95-3.65-3.29-7.62-5.22-11.28-2.82-5.33-5.96-10.5-9.09-15.98-.84.88-1.34,1.41-1.84,1.94l-.25-.16c.18-.38.28-.81.55-1.12.74-.86.59-1.6-.02-2.47-1.37-1.94-2.66-3.92-3.97-5.9-.23-.35-.4-.73-.3-1.29,1.89,2.39,3.78,4.79,5.78,7.33,2.34-3.25,4.57-6.33,6.74-9.45.24-.34.27-1.03.11-1.43-.68-1.63-1.48-3.2-2.42-5.18-1.27,2.79-5.25,4.25-2.56,8.25-2.92-3.26-3.26-7.38-4.59-11.1-2.96,1.67-3.41,3.06-1.83,5.92.06-1.04.12-1.97.18-2.9.13,0,.25,0,.38,0l.97,7.16-.31.18c-1.08-2.03-2.15-4.07-3.33-6.29-.79.92-1.61,1.85-2.42,2.79-.11-.08-.23-.16-.34-.25.83-1.35,2.2-2.65,2.35-4.07.15-1.49-.88-3.1-1.44-4.83-.5.36-.91.66-1.54,1.12,1.6-3.14.63-5.62-.91-8.07-.18-.28.05-.83.12-1.25.32-1.97-.41-3.83-1.63-4.38.71-2.37,1.41-4.71,2.23-7.47-.6.54-.88.79-.86.78.2-3.29.22-6.82.67-10.29.64-4.95,1.57-9.86,2.43-14.77.13-.73.51-1.42,1.08-2.03-.79,3.71-1.77,7.39-2.3,11.14-.54,3.81-.64,7.69-.93,11.54.2.04.41.08.61.12ZM74.91,341.59c2.75-2.88,5.31-5.56,7.86-8.23l.44.43c-2.28,2.43-4.57,4.85-6.81,7.31-.4.44-.97,1.28-.8,1.6,1.27,2.46,2.7,4.84,3.83,6.8,1.99-1.75,3.7-3.41,5.58-4.85,1.82-1.39,2.16-2.87,1.03-4.85-.48-.84-.65-1.86-.95-2.8-1.12-3.47-2.23-6.94-3.54-11.01-3.29,3.11-6.25,5.88-9.15,8.71-.27.26-.34,1.01-.18,1.39.79,1.78,1.69,3.51,2.69,5.52ZM63.25,319.55c-3.11,3.55-6.19,7.02-9.2,10.54-.23.27-.15,1.01.03,1.41.51,1.11,1.16,2.17,1.83,3.4.67-.74,1.18-1.43,1.81-1.98,2.14-1.84,3.65-3.76,1.41-6.54-.07-.09.06-.33.19-.92.74,1.34,1.32,2.39,1.9,3.44,4.94-3.91,5.22-5.07,2.02-9.36ZM74.71,342.87c-1.23,1.41-2.42,2.7-3.52,4.07-.21.27-.25.91-.08,1.21,1.32,2.32,2.71,4.59,4.22,7.12,1.48-1.73,2.74-3.21,3.97-4.66-1.55-2.61-3.01-5.08-4.59-7.75ZM90.12,380.27c1.66-2.31,3.22-4.47,4.74-6.66.18-.25.24-.79.09-1.03-.87-1.42-1.82-2.79-2.87-4.36-1.07,1.37-1.94,2.5-2.8,3.6.66.79,1.26,1.5,1.85,2.2-.14.14-.29.29-.43.43-.72-.47-1.43-.95-2.28-1.5-.81,1.13-1.56,2.18-2.26,3.16,1.32,1.39,2.56,2.69,3.95,4.15ZM79.75,371.83c-1.21,1.92-2.32,3.61-3.33,5.36-.2.35-.18,1.08.05,1.38,1.22,1.57,2.54,3.07,3.93,4.72,1.51-2.46,2.83-4.62,4.24-6.91-1.57-1.46-3.1-2.88-4.9-4.55ZM74.69,356.04c-1.53-2.58-3.01-5.06-4.63-7.79-1.15,1.45-2.22,2.75-3.22,4.11-.18.25-.22.81-.06,1.06,1.46,2.22,2.99,4.4,4.62,6.77,1.25-1.58,2.26-2.86,3.28-4.15ZM85.44,376.98c-1.31,2.3-2.48,4.26-3.54,6.28-.21.41-.23,1.22.03,1.52,1,1.17,2.16,2.2,3.41,3.44,1.51-2.58,2.84-4.88,4.26-7.3-1.34-1.26-2.61-2.47-4.16-3.94ZM97.94,360.34c-1.79,2.43-3.43,4.62-5.01,6.85-.16.22-.05.77.12,1.05.82,1.33,1.7,2.62,2.66,4.09,1.5-1.84,2.9-3.47,4.19-5.18.24-.31.2-.97.06-1.39-.57-1.67-1.22-3.3-2.02-5.41ZM83.25,355.41c-1.55,1.83-2.93,3.46-4.34,5.12,1.34,1.71,2.54,3.24,3.85,4.92,1.4-1.77,2.68-3.41,4.01-5.1-.43-.66-.79-1.27-1.21-1.85-.68-.95-1.4-1.88-2.32-3.09ZM71.31,335.82c-1.34,1.65-2.51,3.05-3.61,4.5-.22.3-.34.91-.18,1.21.8,1.62,1.71,3.18,2.59,4.79,4.42-3.34,4.49-3.61,2.29-8.24-.31-.65-.61-1.29-1.08-2.27ZM87.83,361.6c-1.46,1.84-2.71,3.41-3.89,4.91,1.55,1.66,2.99,3.21,4.52,4.84,1.14-1.44,2.11-2.66,3.15-3.96-1.23-1.88-2.42-3.72-3.77-5.8ZM83.13,353.76c1.89-1.97,3.78-3.92,5.63-5.91.2-.22.25-.76.13-1.06-.46-1.11-1.01-2.17-1.5-3.2-1.62,1.55-3.1,2.85-4.45,4.27-2.61,2.73-2.59,2.75.2,5.9ZM67.65,365.48c.9-1.55,2.38-3.01,2.08-3.8-.98-2.62-2.6-5-4.04-7.59-3.43,4.38-2.97,3.53-.78,7.16.77,1.28,1.62,2.51,2.74,4.24ZM66.56,339.73c4.58-4.39,4.77-5.67,1.56-10.03-1.22,1.5-2.46,2.94-3.58,4.46-.24.32-.27,1-.1,1.38.61,1.38,1.35,2.7,2.12,4.19ZM74.65,376.79c1.56-2.39,2.77-4.24,4.02-6.15-1.28-1.46-2.52-2.87-4.01-4.58-1.23,2.96,1.78,4.44,1.52,6.84-.85-1.46-1.71-2.92-2.57-4.41-3.87,3.44.47,5.27,1.05,8.29ZM64.95,344.45c-2.52,2.85-2.77,2.38.83,7.1,1.09-1.24,2.2-2.45,3.22-3.71.22-.28.33-.88.19-1.19-.76-1.58-1.63-3.11-2.46-4.66-.18,0-.36,0-.55,0-.16.73-.57,1.52-.41,2.17.18.71.89,1.29,1.37,1.93-.12.1-.25.19-.37.29-.61-.64-1.21-1.28-1.82-1.93ZM61.05,330.65c-5.1,4.59-5.16,4.84-2.42,9.05.06.09.22.11.31.15,2.23-1.34.36-2.51-.01-3.89.59.52,1.17,1.05,1.75,1.57,2.9-3.52,2.8-2.04.37-6.88ZM58.67,342.27c-3.41,4.06-3.33,5.73.28,8.89,2.98-3.71,2.96-4.66-.28-8.89ZM78.3,361.38c-.88,1.17-1.71,2.17-2.4,3.26-.2.31-.13,1.03.11,1.33,1,1.27,2.11,2.46,3.34,3.85.98-1.27,1.83-2.39,2.73-3.55-1.27-1.64-2.46-3.18-3.78-4.89ZM80.42,371.07c1.63,1.55,3.16,3.01,4.82,4.6.91-1.24,1.68-2.29,2.47-3.36-1.6-1.55-3.14-3.03-4.75-4.59-.79,1.04-1.61,2.12-2.54,3.35ZM59.56,360.3c.24,0,.48,0,.72,0,.27-1.17,1.05-2.54.69-3.46-.51-1.3-.71-3.49-3.13-2.98.93-2.98-1.63-4.33-2.65-6.45-.41.54-.85,1.2-.68,1.6,1.62,3.79,3.35,7.53,5.04,11.29ZM55.15,345.16c3.42-3.74,3.48-4.7.62-8.48-3.6,3.41-3.67,4.28-.62,8.48ZM66.26,325.37c-1.37,1.3-2.69,2.48-3.91,3.75-.29.3-.52.98-.38,1.34.43,1.1,1.05,2.13,1.71,3.39.89-1.1,1.53-1.92,2.21-2.72q2.29-2.73.38-5.76ZM53.13,331.46c-4.04,4.71-4.25,4.02-1.15,8.29q3.82-3.8,1.15-8.29ZM79.84,351.3c-1.39,1.65-2.68,3.17-4,4.73.81,1.16,1.53,2.19,2.33,3.33.81-.97,1.44-1.71,2.06-2.46q2.23-2.7-.39-5.6ZM62.19,348.43q-3.34,4.3.18,7.59c2.9-3.35,2.89-3.79-.18-7.59ZM62.4,359.51c-.2-.03-.39-.05-.59-.08-.29,1.01-1.1,2.26-.77,2.97,1.01,2.17,2.47,4.14,3.87,6.37.61-.81,1.04-1.37,1.47-1.94-1.35-2.49-2.67-4.91-3.98-7.32ZM75.25,357.03c-4.04,4.36-3.91,3.32-.62,6.96,3.48-4.59,3.44-3,.62-6.96ZM59.76,364.6c-1.67,3.37-1.36,4.53,2.1,8.27.51-1.07,2.33-1.53,1.22-3.22-1.07-1.64-2.15-3.26-3.33-5.05ZM70.81,370.2c2.39-3.28,2.34-3.9-.53-7.26-.79.98-1.55,1.94-2.35,2.94.97,1.46,1.88,2.82,2.88,4.32ZM64.64,342.62c2.77-2.96-.63-4.61-.97-7.02-3.05,3.3-2.89,2.36.97,7.02ZM62.23,345.83c2.36-2.34,2-3.88-1.51-6.48-1.6,1.99-1.49,2.49,1.51,6.48ZM78.58,386.8c.2-.05.4-.09.6-.14,0-.74.3-1.7-.05-2.17-1.18-1.59-2.58-3-3.9-4.48-.19.13-.38.25-.57.38-.28,3.05,2.79,4.17,3.92,6.41ZM68.76,374.2c1.13-1.91.19-4.34-2.62-6.78-.14,1.08-.57,2.04-.27,2.62.74,1.42,1.81,2.66,2.89,4.17ZM70.67,373.56c-1.22,1.95-.47,3.63,2.7,6.32,1.01-3.06-1.89-4.14-2.7-6.32ZM49.17,336.94c-1.89,2.36.99,3.2,1.49,4.84,1.4-2.18-1.02-3.19-1.49-4.84ZM51.97,341.96c-.91,2.3,1.28,3.4,1.99,5.07.83-2.27-1.02-3.5-1.99-5.07ZM73.12,366.06c.2-.1.39-.2.59-.31.11-1.8-1.58-2.52-2.7-3.6.7,1.3,1.41,2.61,2.11,3.91Z"/>
      <path class="cls-1" d="M357.62,412.85c1.49-.88,2.73-1.75,4.09-2.38,2.89-1.33,4.81-.7,6.51,1.98.74,1.15,1.45,2.32,2.39,3.84,1.06-1.18,1.87-2.22,2.82-3.1,3.23-3,7.01-4.25,11.27-2.75,4,1.41,5.42,4.96,5.78,8.72.27,2.74-.06,5.64-.7,8.34-.8,3.37-1.14,6.51,1.23,9.34.63.76,1.55,1.27,2.31,1.92.45.38,1.24.84,1.21,1.22-.04.56-.57,1.42-1.06,1.56-1.49.45-3.08.87-4.61.83-2.82-.07-5.64-.42-8.45-.79-.55-.07-1.44-.79-1.43-1.18.02-.59.6-1.54,1.12-1.67,1.4-.36,1.68-1.17,1.74-2.44.1-1.9.27-3.81.6-5.69.86-4.9-.39-9.55-1.6-14.2-.12-.47-.69-1.05-1.16-1.17-3.19-.83-6.21,2.24-5.94,5.47.21,2.58,0,5.27-.48,7.82-.58,3.02-.83,5.88,1,8.54.45.65,1.12,1.15,1.66,1.75.36.4.94.85.94,1.28,0,.46-.48,1.23-.88,1.33-1.49.37-3.04.73-4.57.72-2.42-.02-4.85-.26-7.25-.58-.75-.1-1.42-.79-2.12-1.21.48-.59.94-1.2,1.46-1.76.41-.45,1.05-.75,1.32-1.27,3.44-6.55,3.21-13.01-.56-19.35-.65-1.09-1.03-2.57-2.74-2.45-1.88.13-3.41.86-4.29,2.66-2.2,4.51-2.74,9.17-1.3,14.01.45,1.51.8,3.07,1.43,4.51.35.8,1.21,1.37,1.8,2.07.39.46,1,.98.99,1.46-.01.49-.59,1.27-1.05,1.38-1.51.37-3.08.7-4.62.66-2.69-.07-5.38-.34-8.05-.69-.69-.09-1.66-.64-1.86-1.21-.39-1.09.49-1.68,1.53-1.79,1.52-.16,1.99-1.02,2.27-2.46.67-3.48,1.53-6.94,2.42-10.37.93-3.61.5-6.81-2.56-9.27-.57-.46-1.38-.61-2-1.03-.59-.4-1.53-1-1.48-1.42.07-.64.76-1.54,1.37-1.72,2.96-.87,5.98-1.54,8.99-2.27,2.23-.54,2.26,1.13,2.51,2.8Z"/>
      <path class="cls-1" d="M194.08,442.07c-4.67,0-9.34.02-14-.02-1.04,0-2.14-.11-3.11-.46-.59-.21-1.24-.94-1.36-1.53-.07-.36.83-1.3,1.29-1.3,2.93.01,3.51-2.1,4.08-4.25,1.41-5.21.7-10.45.26-15.7-.46-5.44-.8-10.89-1.01-16.34-.06-1.59-.57-2.31-2.09-2.44-.46-.04-1-.03-1.34-.28-.51-.37-1.21-.95-1.22-1.44,0-.46.73-1.21,1.26-1.34,1.2-.3,2.48-.4,3.72-.39,5.92.07,11.84.27,17.77.29,3.02,0,6.05-.23,9.07-.43,1.47-.1,2.22.49,2.41,1.93.39,3.13.82,6.26,1.23,9.4.13,1.02.21,2.23-1.09,2.3-.64.04-1.74-.78-1.93-1.42-2.04-7.05-13.52-9.84-19.12-7.99-2.02.66-2.94,2.22-3.15,4.15-.48,4.42,1.12,8.27,3.63,11.79.33.46,1.08.78,1.68.86,2.87.4,7.19-1.86,8.55-4.45.55-1.04.79-2.28,1.46-3.21.42-.58,1.39-.76,2.11-1.12.32.67,1.02,1.41.91,1.99-1.01,5.18-.94,10.34.05,15.51.21,1.08.23,2.03-1.06,2.34-1.24.3-1.79-.49-2.1-1.55-.11-.38-.29-.73-.46-1.09-2.23-4.89-4.18-6.06-9.58-5.72-3.1.19-4.54,1.96-3.91,5.02.36,1.73,1.01,3.41,1.44,5.13.45,1.78.92,3.58,1.16,5.39.2,1.49.87,2.08,2.31,2.04,2.57-.06,5.14.04,7.7-.11,4.49-.27,6.86-3.47,9.05-6.84.54-.83.85-1.84,1.52-2.52.45-.46,1.47-.81,1.99-.6.49.2.99,1.26.89,1.84-.61,3.7-1.36,7.37-2.13,11.04-.34,1.6-1.7,1.37-2.87,1.37-4.67,0-9.35,0-14.02,0v.15Z"/>
      <path class="cls-1" d="M321.68,183.48c-4.73,0-9.47.03-14.2-.02-1.11-.01-2.26-.14-3.31-.48-.55-.17-1.25-.9-1.26-1.4-.01-.48.77-1.39,1.21-1.39,2.99-.01,3.61-2.13,4.2-4.37,1.33-5.02.7-10.06.3-15.12-.45-5.7-.8-11.41-1.09-17.13-.06-1.2-.4-1.87-1.59-2.05-.52-.08-1.13-.05-1.53-.32-.61-.41-1.07-1.05-1.59-1.59.54-.44,1.07-1.25,1.63-1.28,3.87-.19,7.75-.24,11.63-.28,6.05-.07,12.1-.06,18.15-.16,2.3-.04,2.66.18,2.94,2.38.37,2.94.87,5.86,1.12,8.81.07.79-.6,1.63-.93,2.45-.71-.52-1.86-.9-2.06-1.57-2.11-7.01-13.64-9.78-19.18-7.86-1.93.67-2.83,2.18-3.04,4.02-.52,4.49,1.1,8.41,3.68,11.96.33.45,1.11.73,1.71.79,3.16.34,7.18-1.88,8.61-4.71.5-.99.72-2.16,1.34-3.05.39-.55,1.39-1.07,1.96-.94.48.11,1.15,1.26,1.04,1.81-1.04,5.25-.9,10.46-.02,15.71.11.67-.59,1.48-.92,2.22-.7-.42-1.45-.78-2.07-1.3-.31-.26-.36-.83-.55-1.25-2.2-4.89-4.17-6.09-9.53-5.82-3.19.16-4.67,2-3.99,5.12.39,1.8,1.03,3.54,1.5,5.32.39,1.46.77,2.93,1.03,4.42.47,2.7.44,2.71,3.25,2.75,1.32.02,2.64-.09,3.95.02,5.7.5,9.29-2.5,11.96-7.08.43-.74.7-1.63,1.29-2.2.53-.51,1.51-1.03,2.08-.86.49.15,1.05,1.33.95,1.96-.59,3.63-1.35,7.24-2.07,10.85-.32,1.62-1.62,1.46-2.8,1.47-4.61,0-9.22,0-13.82,0,0,.05,0,.1,0,.15Z"/>
      <path class="cls-1" d="M188.34,137.82c4.98.31,10.02.23,14.92,1.03,6.74,1.09,10.79,6.64,10.55,13.45-.29,8.23-4.95,13-13.32,13.74-2.61.23-5.06.04-7.5-1.08-2.51-1.15-3.58-.65-5.04,1.74-3.08,5.05-.37,11.66,5.42,13.38.61.18,1.27.91,1.46,1.52.09.31-.79,1.3-1.29,1.34-2.65.26-5.32.41-7.98.41-2.63,0-5.26-.14-7.88-.39-.75-.07-1.86-.61-2.06-1.19-.42-1.25.69-1.73,1.74-1.78,2.11-.11,3.05-1.12,3.02-3.25-.11-7.1-.19-14.21-.23-21.32-.03-3.81-.03-7.63.09-11.44.05-1.61-.36-2.55-2.11-2.57-.32,0-.72-.01-.96-.19-.59-.45-1.48-.93-1.57-1.51-.2-1.24.87-1.4,1.86-1.4,2.31,0,4.61,0,6.92,0,1.32,0,2.64,0,3.95,0,0-.16.02-.32.03-.48ZM204.35,152.54c-.03-5.19-2.26-8.88-5.99-9.95-2.2-.63-4.5-.91-6.76-1.32-1.12-.2-1.9.18-2.28,1.34-1.1,3.37-2.34,6.7-3.31,10.11-.4,1.41-.34,2.99-.31,4.49.02,1.57,1.07,2.21,2.54,2.53,1.77.38,3.56.81,5.21,1.51,2.88,1.23,5.93.8,8.2-1.39,2.22-2.15,2.61-4.91,2.71-7.31Z"/>
      <path class="cls-1" d="M188.5,51.62c4.91.31,9.89.23,14.72,1.02,6.77,1.1,10.82,6.6,10.59,13.42-.27,8.24-4.91,13.02-13.28,13.78-2.6.24-5.06.06-7.5-1.06-2.55-1.16-3.59-.68-5.06,1.7-3.11,5.05-.39,11.75,5.35,13.4.62.18,1.07.96,1.59,1.47-.51.51-.98,1.39-1.54,1.45-2.58.26-5.19.38-7.79.38-2.63,0-5.25-.25-7.88-.34-1.03-.04-2.24-.02-2.11-1.37.06-.61,1.06-1.52,1.72-1.61,2.05-.26,3.08-1.1,3.05-3.27-.11-6.91-.16-13.82-.2-20.72-.02-4.01-.07-8.03.06-12.04.06-1.77-.51-2.61-2.27-2.64-.33,0-.73,0-.96-.19-.54-.42-1-.95-1.5-1.43.57-.48,1.12-1.37,1.7-1.39,3.75-.13,7.51-.06,11.26-.06,0-.17.02-.33.03-.5ZM204.35,66.47c0-5.31-2.28-9.05-6.08-10.11-2.14-.6-4.38-.88-6.57-1.28-1.2-.22-2,.18-2.41,1.43-.95,2.87-2.15,5.67-2.94,8.58-.51,1.87-.59,3.88-.64,5.83-.05,1.66,1.08,2.33,2.64,2.63,1.71.34,3.44.76,5.02,1.46,2.98,1.31,6.04.88,8.36-1.42,2.13-2.11,2.53-4.82,2.63-7.12Z"/>
      <path class="cls-1" d="M188.39,224.02c4.98.32,10.02.25,14.92,1.04,6.64,1.08,10.7,6.59,10.51,13.29-.24,8.34-4.93,13.17-13.37,13.9-2.61.22-5.06.01-7.5-1.1-2.44-1.11-3.47-.64-4.92,1.64-2.85,4.49-1.12,9.78,3.33,12.91.6.42,1.57.29,2.23.66.55.31,1.15.93,1.25,1.49.06.37-.65,1.07-1.17,1.31-2.71,1.27-5.55.63-8.36.43-2.49-.17-5-.16-7.48-.42-.8-.08-2-.63-2.21-1.23-.42-1.25.75-1.68,1.78-1.75,1.98-.13,2.98-1,2.95-3.09-.11-7.1-.17-14.21-.21-21.32-.02-3.88-.04-7.76.08-11.64.05-1.66-.46-2.5-2.16-2.54-.39,0-.87,0-1.15-.22-.53-.42-.95-.99-1.41-1.5.53-.45,1.04-1.27,1.59-1.3,2.83-.14,5.66-.07,8.5-.08.92,0,1.84,0,2.77,0,0-.16.02-.32.03-.49ZM204.35,238.92c.01-5.41-2.34-9.19-6.23-10.22-2.09-.55-4.25-.83-6.39-1.22-1.18-.21-2.02.12-2.44,1.39-.98,2.93-2.18,5.79-3,8.76-.5,1.8-.55,3.75-.6,5.64-.05,1.65,1.04,2.35,2.61,2.67,1.77.36,3.55.83,5.2,1.53,2.8,1.19,5.82.77,8.05-1.32,2.25-2.12,2.69-4.87,2.8-7.23Z"/>
      <path class="cls-1" d="M417.34,327.3c.8-.54,1.38-.94,1.97-1.33,5.54-3.72,12.17-2.52,16.11,2.93,4.78,6.59,3.94,18.04-1.72,23.57-4.35,4.25-9.87,4.65-14.76,1.09-.56-.41-1.17-.75-2.16-1.37,0,1.71-.03,2.99,0,4.27.05,1.44.36,2.91.19,4.32-.21,1.74.5,2.42,2.06,2.64.51.07,1.08.18,1.5.45.96.63.6,2.31-.69,2.54-1.97.35-4,.47-6.01.45-2.53-.02-5.07-.19-7.59-.46-.74-.08-1.42-.75-2.12-1.16.47-.58.83-1.43,1.43-1.7,2.5-1.09,3.13-3.49,3.88-5.63,1.46-4.16.81-8.46.28-12.72-.59-4.77-1.26-9.53-1.77-14.31-.13-1.22-.62-1.58-1.72-1.58-1.09,0-1.98-.37-2.02-1.66-.05-1.31.89-1.58,1.92-1.8,2.37-.52,4.75-1.04,7.1-1.65,3.21-.84,3.56-.65,4.1,3.1ZM429.59,341.68c-.28-3.29-.55-6.49-2.33-9.34-1.86-2.97-5.45-3.91-8.21-2.17-2.98,1.88-4.74,5.45-3.77,8.84.94,3.25,2.34,6.39,3.76,9.48.87,1.9,2.53,3.1,4.75,2.87,2.37-.25,4.06-1.64,4.71-3.91.54-1.87.73-3.84,1.08-5.76Z"/>
      <path class="cls-1" d="M211.74,356.39c-4.63-.37-8.25-.6-11.84-1-.57-.06-1.44-.85-1.48-1.36-.04-.5.79-1.54,1.24-1.54,2.33-.02,2.98-1.69,3.54-3.36.6-1.79-.05-3.37-1.35-4.67-2.46-2.45-5.51-2.87-8.78-2.42-2.67.36-5.35.69-8.01,1.12-.58.1-1.25.46-1.62.92-1.58,1.89-1.75,4.18-.93,6.33.33.86,1.82,1.24,2.74,1.9.71.52,1.35,1.14,2.03,1.71-.64.51-1.21,1.34-1.92,1.48-1.63.32-3.33.44-4.99.41-2.29-.05-4.59-.23-6.86-.53-.78-.1-1.48-.74-2.22-1.13.54-.62.96-1.54,1.63-1.8,2.37-.92,3.68-2.74,4.55-4.92,2.41-6.04,4.72-12.13,7.1-18.18,2.29-5.81,4.58-11.61,7.01-17.36.37-.87,1.45-1.98,2.24-2,.84-.03,2.11.91,2.5,1.75,1.9,4.04,3.74,8.12,5.28,12.3,3.09,8.39,5.79,16.92,10.18,24.78,1.11,1.98,2.34,3.41,4.76,3.61.48.04,1.23.86,1.25,1.34.02.53-.57,1.43-1.06,1.56-1.94.54-3.95.85-4.97,1.05ZM192.24,320.96c-.3,0-.6,0-.9,0-1.83,6.31-3.65,12.62-5.41,18.67,3.77-.78,7.87-1.63,12.05-2.5-2.98-4.69-5.15-10.15-5.74-16.18Z"/>
      <path class="cls-1" d="M274.13,183.9c-3.54-.28-7.09-.5-10.62-.91-.61-.07-1.13-.96-1.69-1.47.49-.51.91-1.34,1.5-1.48,3.55-.87,4.83-5.03,2.27-7.78-2.54-2.73-5.8-3.09-9.29-2.58-2.54.37-5.09.66-7.62,1.07-.59.1-1.27.41-1.66.85-2.69,3.07-1.54,7.16,2.24,8.46.6.21,1.34.94,1.41,1.5.05.44-.8,1.33-1.34,1.41-1.96.3-3.97.46-5.96.46-2.09,0-4.2-.17-6.28-.44-.79-.1-1.52-.7-2.27-1.07.51-.63.91-1.56,1.57-1.83,2.04-.83,3.46-2.23,4.23-4.19,2.84-7.14,5.56-14.34,8.38-21.49,1.95-4.95,3.95-9.89,6.07-14.77.38-.88,1.49-2.06,2.21-2.03.93.04,2.23.97,2.64,1.86,1.91,4.03,3.74,8.12,5.26,12.31,3.08,8.46,5.85,17.05,10.29,24.95,1,1.79,2.2,3.02,4.35,3.27.58.07,1.47.84,1.49,1.33.03.55-.65,1.49-1.2,1.65-1.94.55-3.96.83-5.94,1.21-.02-.09-.04-.19-.06-.28ZM249.5,167.24c3.75-.78,7.84-1.64,12.05-2.52-3.05-4.67-5.08-10.18-5.81-16.17-.27,0-.55-.02-.82-.03-1.83,6.32-3.65,12.63-5.41,18.72Z"/>
      <path class="cls-1" d="M491.42,414.17c.64,1.78,1.08,2.81,1.38,3.87.69,2.4-.4,4.56-2.47,5.03-3.01.69-5.24-.61-5.62-3.36-.45-3.25.98-5.81,3.67-7.31,6.37-3.54,12.95-3.71,19.34-.03,3.57,2.06,5.06,5.74,3.86,9.67-1.52,4.95-1.22,9.69.53,14.48.44,1.2.96,1.46,2,.92.92-.49,1.96-.67,2.26.48.17.66-.31,1.82-.87,2.25-1.07.82-2.36,1.46-3.66,1.84-3.02.88-4.7.2-6.21-2.58-.82-1.51-1.8-1.78-3.19-1.06-1.63.85-3.24,1.75-4.85,2.64-4.65,2.57-10.64,1.28-12.92-2.77-2.56-4.56-.98-10.62,3.88-13.02,2.75-1.36,5.97-1.77,9.01-2.52.74-.18,1.58.01,2.36-.04,2.83-.2,4.19-2.69,2.53-5.01-.87-1.21-2.22-2.47-3.59-2.83-2.2-.58-4.6-.44-7.44-.64ZM496.9,436.17c4.41.07,9.57-5.81,8.88-10.21-.05-.35-.83-.91-1.13-.84-3.17.81-6.36,1.58-9.43,2.68-2.43.87-3.47,3.2-2.93,5.56.44,1.88,1.89,2.77,4.61,2.81Z"/>
      <path class="cls-1" d="M226.15,242.07c.5,1.58.96,2.74,1.24,3.94.56,2.36-.61,4.29-2.71,4.68-2.95.55-4.91-.61-5.37-3.18-.53-2.97.81-6.04,3.75-7.64,6.08-3.31,12.37-3.45,18.53-.31,4.15,2.11,5.85,6.02,4.43,10.5-1.57,4.94-.89,9.59.68,14.3.4,1.21,1.08.92,1.99.73.69-.15,1.48.18,2.22.29-.25.8-.25,1.94-.8,2.32-1.27.88-2.73,1.61-4.22,2.01-2.71.72-4.33.06-5.58-2.41-.97-1.93-2.18-2.02-3.8-1.14-1.68.91-3.29,1.95-5,2.77-3.33,1.61-6.7,1.4-9.82-.49-3.04-1.84-3.79-4.85-3.54-8.23.32-4.38,2.89-7.05,6.78-8.33,2.7-.89,5.62-1.18,8.46-1.57,1.57-.21,3.32.04,3.99-1.83.7-1.92-.17-3.47-1.57-4.75-2.78-2.55-6.08-1.81-9.67-1.66ZM240.08,252.52c-3.64,1.01-7.15,1.98-10.65,2.98-.3.09-.58.31-.85.49-1.54,1.05-2.3,3.34-1.67,5.29.56,1.75,1.97,2.31,3.66,2.44,5.4.41,10.36-5.22,9.5-11.2Z"/>
      <path class="cls-1" d="M355.39,240.2c2.3-.9,4.42-2.2,6.68-2.52,8.02-1.13,14.02,5.46,12.5,13.46-.38,2-.79,4-1.32,5.97-.89,3.38.58,6.04,2.52,8.54.31.4,1.11.38,1.54.74.49.41,1.07,1,1.12,1.56.04.37-.74,1.11-1.23,1.19-1.8.32-3.64.59-5.46.58-2.63-.02-5.26-.24-7.87-.52-.62-.07-1.17-.74-1.75-1.13.46-.6.82-1.59,1.4-1.74,1.3-.34,1.79-1.09,2.1-2.28.78-3.06,1.73-6.07,2.47-9.14,1.19-4.91-.79-8.1-5.25-11.35-2.17-1.59-7.38.52-8.04,3.33-.84,3.56-1.62,7.25-1.54,10.87.05,2.53,1.53,5.06,2.49,7.54.16.42.96.55,1.38.92.54.47,1.33,1.02,1.36,1.57.03.48-.8,1.35-1.35,1.45-1.71.32-3.48.48-5.22.45-2.56-.04-5.12-.22-7.66-.53-.71-.09-1.34-.85-2.01-1.31.52-.55.97-1.47,1.57-1.58,1.52-.28,2-1.09,2.28-2.5.79-4,1.7-7.97,2.64-11.93.84-3.56-.79-6.12-3.25-8.34-.38-.34-1.16-.2-1.61-.51-.59-.4-1.39-.99-1.44-1.55-.04-.52.69-1.47,1.25-1.62,3.11-.85,6.25-1.57,9.41-2.22,2.17-.45,1.85,1.5,2.3,2.58Z"/>
      <path class="cls-1" d="M356.21,326.22c2.84-.88,5.45-2.17,8.16-2.43,6.64-.64,12.32,5.67,11.35,12.31-.37,2.54-1,5.03-1.5,7.55-.79,3.96.78,7.14,4.37,9.05.42.23.85.91.83,1.37-.02.43-.56,1.14-.96,1.21-1.8.34-3.63.69-5.45.68-2.76-.01-5.52-.27-8.26-.55-.56-.06-1.56-.83-1.5-1.04.18-.69.67-1.68,1.21-1.81,1.42-.34,1.85-1.19,2.17-2.44.7-2.74,1.64-5.42,2.28-8.17,1.28-5.55,0-8.22-4.87-12.06-2.26-1.78-7.62.34-8.27,3.38-.82,3.83-1.49,7.77-1.44,11.66.02,2.26,1.5,4.53,2.48,6.73.2.45,1.17.51,1.63.92.49.42,1.06,1.03,1.11,1.59.03.4-.7,1.16-1.18,1.25-1.72.31-3.48.56-5.21.53-2.62-.04-5.25-.25-7.85-.56-.74-.09-1.41-.8-2.11-1.23.57-.58,1.11-1.19,1.71-1.74.67-.61,1.83-1.04,2.01-1.75,1.03-3.94,1.76-7.95,2.71-11.91.88-3.68-.23-6.61-3.06-8.95-.41-.34-1.15-.25-1.59-.57-.62-.45-1.4-1.05-1.52-1.69-.08-.44.76-1.39,1.34-1.55,3.04-.83,6.13-1.53,9.22-2.16,2.31-.47,1.97,1.49,2.21,2.39Z"/>
      <path class="cls-1" d="M230.25,412.49c2.62-.88,5.08-2.19,7.65-2.47,7.15-.78,12.94,5.69,11.74,12.8-.43,2.53-1.07,5.02-1.52,7.54-.64,3.55,1.15,6.85,4.38,8.51.45.23.85,1,.85,1.53,0,.39-.64,1.04-1.07,1.12-1.8.31-3.64.63-5.46.62-2.69-.02-5.38-.25-8.06-.54-.59-.07-1.52-.74-1.56-1.21-.05-.53.63-1.5,1.15-1.62,1.38-.33,1.92-1.12,2.23-2.39.8-3.25,1.82-6.45,2.56-9.72,1.06-4.68-1.63-8.11-5.42-10.72-2.22-1.53-7.38.63-8,3.43-.81,3.7-1.57,7.51-1.49,11.26.05,2.46,1.58,4.91,2.59,7.29.19.44,1.18.48,1.66.87.45.37,1.01.96,1,1.45,0,.47-.61,1.26-1.06,1.34-1.78.32-3.6.57-5.41.55-2.62-.03-5.25-.23-7.85-.55-.72-.09-1.35-.86-2.02-1.31.53-.55.99-1.44,1.6-1.57,1.48-.31,2-1.03,2.27-2.49.65-3.49,1.5-6.93,2.35-10.38.87-3.56.72-6.82-2.42-9.3-.57-.45-1.35-.64-1.94-1.07-.62-.45-1.66-1.15-1.59-1.56.13-.68.91-1.57,1.59-1.76,2.52-.73,5.12-1.17,7.68-1.78,2.88-.69,3.09-.58,3.53,2.15Z"/>
      <path class="cls-1" d="M414.85,241.45c1.93,5.69,3.8,11.21,5.73,16.92.21-.48.4-.9.58-1.33,1.58-3.89,3.11-7.8,4.77-11.66.92-2.14.56-3.18-1.61-4.17-.68-.31-1.19-1-1.77-1.52.54-.58.98-1.46,1.64-1.69,1.2-.41,2.53-.61,3.8-.56,2.15.09,4.31.37,6.44.74.66.11,1.32.68,1.77,1.21.13.16-.33,1.07-.72,1.39-5.44,4.42-9.71,9.57-10.78,16.79-.2,1.37-.53,2.73-.55,4.1-.14,7.67-4.56,12.98-9.81,17.76-2.27,2.06-5.07,1.58-7.62.36-2.42-1.16-3.57-3.36-3.29-5.78.25-2.17,1.21-3.16,3.21-3.32,2.29-.18,3.62.66,4.22,2.68.25.85.49,1.7.75,2.59,4.27-1.95,6.62-9.24,4.53-13.89-.83-1.85-2.02-3.53-3.07-5.28-2.82-4.73-5.61-9.49-8.51-14.17-.41-.67-1.4-.97-2.1-1.47-.61-.44-1.2-.91-1.79-1.37.51-.6.94-1.61,1.54-1.71,1.57-.27,3.22-.23,4.83-.18,2.6.08,5.21.36,7.81.37,1.09,0,2.21-.33,2.59,1.03.43,1.54-.82,1.66-1.84,1.91-.31.08-.61.2-.75.25Z"/>
      <path class="cls-1" d="M293.25,103.71c4.74-2.97,6.71-9.77,4.24-14.53-1.42-2.73-3.33-5.21-4.91-7.86-2.12-3.55-4.08-7.2-6.25-10.71-.5-.81-1.62-1.24-2.44-1.87-.56-.43-1.53-.88-1.54-1.33,0-.57.71-1.57,1.23-1.66,1.64-.28,3.35-.32,5.02-.27,2.54.08,5.08.41,7.62.42,1.21,0,2.55-.48,2.88,1.13.35,1.68-1.21,1.52-2.21,1.84-.24.08-.46.22-.44.21,1.94,5.71,3.85,11.32,5.63,16.55,1.87-4.3,3.88-8.85,5.83-13.44.78-1.83-.58-2.56-1.88-3.33-.71-.42-1.26-1.1-1.88-1.66.58-.57,1.08-1.49,1.75-1.63,1.55-.32,3.19-.38,4.79-.34,1.76.05,3.53.24,5.27.55.67.12,1.38.62,1.8,1.15.15.19-.36,1.16-.78,1.51-5.28,4.46-9.56,9.51-10.65,16.68-.59,3.89-1.06,7.86-2.27,11.58-1.46,4.5-5.1,7.65-8.57,10.63-2.13,1.83-4.92,1.24-7.29-.03-2.1-1.12-3.36-2.91-3.19-5.46.15-2.17,1.22-3.37,3.22-3.54,2.37-.2,3.75.71,4.3,2.83.21.8.46,1.59.74,2.57Z"/>
      <path class="cls-1" d="M443.6,81.08c-.38,6.22-2.22,11.29-7.33,14.75-2.92,1.97-6.15,2.45-9.45,1.63-2.66-.66-5.33-1.57-7.77-2.8-10.36-5.21-11.23-18.87-1.64-25.42,1.93-1.32,4.08-2.44,6.29-3.22,9.39-3.33,17.45,1.33,19.4,11.11.28,1.41.37,2.87.5,3.96ZM435.67,83c-.53-5.38-1.42-8.23-3.44-10.81-2.73-3.49-9.15-4.74-11.34,1.37-1.03,2.88-1.91,5.91-2.21,8.94-.57,5.78,1.59,8.67,7.11,10.41.69.22,1.4.37,2.1.52,3.24.72,5.86-.66,6.72-3.84.58-2.14.71-4.39,1.05-6.59Z"/>
      <path class="cls-1" d="M476.02,339.62c-.34,6.19-2.17,11.26-7.25,14.75-2.9,2-6.14,2.53-9.43,1.69-2.91-.74-5.85-1.72-8.47-3.15-9.72-5.3-10.37-18.58-1.26-24.92,2.03-1.41,4.3-2.59,6.62-3.42,9.36-3.31,17.43,1.45,19.31,11.25.26,1.35.35,2.74.48,3.8ZM468.09,341.89c-.37-4.02-.84-7.92-3.5-11.17-3.54-4.32-9.13-3.74-11.22,1.35-1.11,2.7-1.91,5.63-2.24,8.53-.72,6.19,1.58,9.32,7.56,11.05.57.16,1.15.28,1.73.4,3.11.69,5.73-.69,6.6-3.78.58-2.07.73-4.26,1.08-6.39Z"/>
      <path class="cls-1" d="M324.48,323.43c7.12-.03,12.45,4.75,14.14,12.14,1.69,7.38-1.21,15.2-6.99,18.97-2.81,1.83-5.95,2.37-9.07,1.54-3.08-.81-6.14-1.97-8.98-3.41-8.81-4.48-10.03-17.59-1.53-24.25,3.82-2.99,8.15-4.74,12.43-4.99ZM331.19,342.15c-.28-4.12-.77-8.07-3.45-11.39-3.58-4.42-9.13-3.76-11.37,1.4-1.62,3.72-2.51,7.62-2.16,11.72.28,3.24,2.01,5.53,4.95,6.81,1.37.6,2.86.98,4.32,1.33,3.16.75,5.69-.58,6.61-3.69.59-1.99.75-4.11,1.11-6.18Z"/>
      <path class="cls-1" d="M280.83,79.88c-.33,7.41-2.24,12.44-7.3,15.92-2.84,1.95-6.03,2.53-9.24,1.69-3.09-.8-6.22-1.86-8.99-3.42-9.26-5.22-9.9-18.34-1.16-24.44,2.64-1.85,5.73-3.27,8.83-4.19,6.61-1.99,12.85.92,15.71,7.22,1.22,2.7,1.73,5.72,2.17,7.22ZM272.73,84.59c-.18-4.92-.61-8.87-3.17-12.28-2.66-3.54-9.32-5-11.44,1.27-1.17,3.44-1.99,7.1-2.25,10.71-.3,4,2.08,6.84,5.87,8.17,1.11.39,2.26.69,3.41.96,3.22.74,5.82-.69,6.71-3.87.52-1.88.69-3.87.87-4.97Z"/>
      <path class="cls-1" d="M338.16,252.21c-.31,7.41-2.21,12.46-7.26,15.95-2.9,2.01-6.14,2.53-9.43,1.7-2.85-.72-5.71-1.69-8.3-3.06-9.95-5.28-10.65-18.8-1.28-25.1,2.57-1.73,5.55-3.06,8.53-3.92,6.52-1.9,12.72,1,15.55,7.22,1.23,2.7,1.75,5.71,2.19,7.21ZM330.06,257.01c-.18-5.09-.61-9.13-3.34-12.51-3.48-4.32-9.28-3.75-11.2,1.38-1.27,3.39-2.04,7.08-2.32,10.7-.32,4.1,2.05,6.96,5.94,8.31,1.11.39,2.26.69,3.41.96,3.1.71,5.73-.7,6.61-3.77.55-1.94.72-3.99.9-5.07Z"/>
      <path class="cls-1" d="M333.51,65.07c8.93-.01,15.31,6.65,14.99,14.66-.05,1.39-.57,2.39-2.01,2.41-2.87.05-5.75-.04-8.63-.11-2.42-.06-4.86-.44-7.25-.2-2.96.3-4.72,2.57-4.75,5.38-.03,2.88,1.96,5.65,4.78,5.91,4.95.46,9.51-.83,13.35-4.12.86-.74,1.56-1.81,2.82-.89,1.4,1.02.79,2.22.05,3.28-2.43,3.46-6.11,4.88-9.99,5.81-5.39,1.29-12.6-2.12-15.9-7.36-3.98-6.32-3.32-12.25,2.09-18.59,2.99-3.51,6.39-6.3,10.44-6.18ZM339.96,78.3c-.17-3.52-.99-6.41-3.88-8.21-1.81-1.13-3.8-.97-5.57.25-2.98,2.05-3.04,5.21-3.19,7.96h12.64Z"/>
      <path class="cls-1" d="M413.56,409.86c9.1-.04,15.44,6.7,15.06,14.83-.07,1.37-.64,2.21-1.94,2.23-2.94.04-5.88-.06-8.82-.13-2.35-.06-4.73-.41-7.05-.17-2.95.31-4.75,2.57-4.79,5.36-.04,2.86,1.96,5.66,4.77,5.93,4.95.48,9.51-.82,13.36-4.09.93-.79,1.7-1.88,2.98-.82,1.21,1,.62,2.15-.07,3.16-2.41,3.5-6.11,4.88-9.98,5.83-5.39,1.31-12.63-2.1-15.91-7.33-4.02-6.4-3.38-12.18,2.05-18.58,2.98-3.52,6.38-6.31,10.35-6.22ZM420.17,423.07c-.31-3.57-1.06-6.61-4.18-8.32-1.87-1.03-3.88-.77-5.57.55-2.68,2.09-2.87,5.07-2.91,7.77h12.66Z"/>
      <path class="cls-1" d="M295.78,409.85c8.92.19,15.1,6.9,14.62,14.92-.08,1.28-.6,2.1-1.82,2.13-2.94.06-5.88-.02-8.82-.09-2.42-.05-4.86-.42-7.25-.18-2.91.3-4.71,2.64-4.71,5.43,0,2.87,2.02,5.63,4.84,5.87,4.95.42,9.51-.84,13.34-4.16.87-.76,1.59-1.76,2.83-.84,1.27.95.78,2.1.08,3.14-2.37,3.53-6.06,4.93-9.92,5.9-5.37,1.35-12.64-2.01-15.96-7.21-4.07-6.37-3.48-12.16,1.91-18.59,3.06-3.65,6.56-6.5,10.85-6.32ZM301.95,423.07c-.28-3.47-.99-6.43-3.94-8.21-1.83-1.1-3.82-.96-5.58.29-2.89,2.04-3.06,5.12-3.12,7.92h12.64Z"/>
      <path class="cls-1" d="M267.08,237.47c3.79.2,6.8.3,9.79.57.49.05,1.22.81,1.32,1.34.41,2.26.72,4.56.84,6.85.04.74-.6,1.51-.93,2.27-.71-.42-1.75-.67-2.06-1.29-2.69-5.27-6.49-6.13-10.66-5.62-2.23.27-3.32,1.44-3.3,3.23.01,1.31.59,2.13,1.82,2.76,1.8.91,3.47,2.07,5.19,3.14,2.5,1.55,4.88,3.34,7.52,4.63,4.46,2.17,5.56,5.48,2.99,9.85-1.42,2.41-3.67,3.58-6.25,4.08-5.59,1.09-11.11.92-16.48-1.3-1.37-.57-2.12-1.3-2.22-2.85-.14-2.16-.56-4.31-.68-6.47-.03-.61.58-1.26.89-1.89.66.37,1.4.64,1.95,1.13.35.31.38.96.59,1.44,1.54,3.69,4.23,6.02,8.25,6.48,2.22.25,4.46.22,6.7.27,1.27.03,1.75-.64,1.57-1.9-.27-1.92-.91-3.64-2.74-4.53-2.29-1.12-4.7-2.01-6.99-3.14-3.05-1.5-6.22-2.85-8.98-4.78-2.7-1.89-2.57-3.79-.35-6.29.83-.93,1.76-1.83,2.38-2.89,2.41-4.17,5.96-5.76,9.86-5.07Z"/>
      <path class="cls-1" d="M105.16,75.58c-1.15,4.05-2.07,7.75-3.25,11.37-1.46,4.49-2.92,9.01-4.79,13.34-1.4,3.23-1.63,6.44-1.43,9.83.12,1.96.17,3.96-.09,5.9-.39,2.88-2.11,5-5.56,5.37-3.15.33-5.62-2.41-5.21-5.85.82-6.79,1.6-13.59,2.51-20.37,1.05-7.83,3.95-14.85,9.48-20.64.63-.66,1.32-1.29,2.08-1.81,1.29-.87,2.86-1.68,4.19-.57.99.82,1.42,2.3,2.08,3.44ZM93.85,93.83c.21.1.43.19.64.29,1.6-4.63,3.19-9.26,4.79-13.89l.59.22c-1.52,5.77-3.03,11.55-4.55,17.32.22.06.44.13.66.19.7-1.96,1.5-3.89,2.07-5.89,1.41-4.93,2.76-9.88,4.03-14.85.22-.86-.11-1.85-.19-2.78-.86.47-2.04.73-2.53,1.45-1.69,2.48-3.45,5-4.61,7.75-1.52,3.6-2.5,7.43-3.71,11.16.09.02.18.05.28.07,2.28-5.72,4.56-11.44,6.84-17.16.22.08.43.16.65.25-1.65,5.29-3.3,10.59-4.96,15.88ZM89.31,118.25c.16.11.31.21.47.32.36-.36,1.02-.71,1.04-1.09.1-2.23.05-4.48.05-6.71h-.3c-.42,2.49-.83,4.98-1.25,7.48Z"/>
      <path class="cls-1" d="M261.14,410.54c-.72-4.8.54-8.92,3.81-12.16,3.11-3.08,7.05-2.86,10.92-1.56,2.57.86,4.03,3.15,3.97,5.76-.04,1.55-.44,2.9-2.08,3.46-1.84.62-3.53.32-4.89-1.13-1.15-1.23-.74-2.53-.01-3.81.12-.21.18-.47.27-.71-3.04-.62-3.91-.18-4.48,2.74-.36,1.84-.36,3.75-.39,5.64-.02,1.27.65,1.85,2.02,1.68,1.1-.13,2.23-.02,3.35.03,1.73.09,2.03,1.29,1.8,2.65-.25,1.45-1.22,1.69-2.52,1.21-.9-.33-1.85-.56-3.1-.93-.75,5.4-1.64,10.57-2.14,15.77-.36,3.76,2.3,6.28,4.54,8.86.3.34,1.01.29,1.42.57.65.45,1.2,1.02,1.79,1.54-.57.54-1.07,1.46-1.71,1.56-1.91.29-3.86.37-5.8.34-2.69-.05-5.37-.29-8.05-.41-.98-.04-2.08.22-2.24-1.24-.16-1.51.91-1.74,2.01-1.81,1.46-.09,2.04-.87,2.19-2.27.51-4.64,1.17-9.27,1.61-13.91.16-1.74.08-3.57-.29-5.27-.54-2.45-2.53-3.38-4.95-2.79-.54.13-1.57.04-1.7-.24-.35-.78-.54-1.76-.37-2.57.09-.42,1.04-.86,1.64-.94,1.14-.15,2.32-.04,3.37-.04Z"/>
      <path class="cls-1" d="M261.17,336.26c.72,3.17,1.16,6.52,2.26,9.64,1.48,4.22,7.27,6.61,11.35,4.79,1.39-.62,2.32-2.2,3.55-3.24.61-.52,1.6-1.31,2.1-1.12,1.22.45,1.07,1.63.55,2.67-2.49,5-7.02,8.75-13.86,6.8-3.92-1.12-7.49-2.86-10.49-5.66-4.34-4.04-5.68-9.71-3.25-15.12,3.61-8.03,10.33-13.23,19.89-10.76,3.91,1.01,6.99,3.15,8.01,7.32.44,1.77.32,3.61-1.34,4.85-1.62,1.21-3.36.97-5.01.04-1.53-.86-2.21-2.13-1.79-3.96.59-2.57-.01-3.7-2.43-4.58-1.1-.4-2.28-.62-3.45-.8-2.07-.31-3.78.48-4.48,2.42-.75,2.06-1.05,4.28-1.62,6.71Z"/>
      <path class="cls-1" d="M368.12,65.06c4.93.08,8.07.7,10.74,2.77,2.55,1.98,4.06,4.49,3.41,7.87-.41,2.14-2.39,3.3-4.66,2.82-2.62-.56-3.92-2.29-3.43-4.54.55-2.53-.03-3.7-2.43-4.62-.85-.33-1.76-.53-2.67-.68-3.21-.55-5.34.5-5.83,3.71-.5,3.33-.23,6.78-.2,10.17,0,.9.33,1.81.58,2.69,1.5,5.37,5.26,7.85,10.81,7.26,2.29-.24,3.59-1.71,4.76-3.46.55-.82,1.15-2.25,2.33-1.24.54.46.62,2.12.24,2.9-2.5,5.06-7.08,8.36-13.6,6.5-4.72-1.35-9.01-3.44-12.06-7.41-3.75-4.87-3.85-10.06-.78-15.3,3.23-5.52,7.59-9.4,12.8-9.44Z"/>
      <path class="cls-1" d="M227.25,336.15c.73,3.16,1.28,6.54,2.3,9.77,1.07,3.41,3.95,4.72,7.29,5.16,3.25.43,5.79-.51,7.53-3.47.39-.66,1.67-1.45,2.18-1.26,1.34.53.99,1.79.44,2.85-2.65,5.09-7.14,8.49-13.78,6.6-3.85-1.1-7.36-2.81-10.34-5.54-4.56-4.17-5.89-10.03-3.22-15.62,3.91-8.19,10.55-12.73,19.75-10.37,3.76.96,6.79,3,7.89,6.96.52,1.86.54,3.84-1.26,5.23-1.4,1.08-3.53,1.03-5.19-.09-1.37-.93-2.03-2.12-1.58-3.88.62-2.42.02-3.6-2.28-4.48-1.15-.44-2.4-.69-3.63-.88-2.07-.31-3.76.51-4.47,2.44-.74,2-1.04,4.16-1.62,6.57Z"/>
      <path class="cls-1" d="M445.5,414.24c2-1.3,3.69-2.53,5.5-3.56,2.34-1.34,4.7-1.05,6.89.42,2.13,1.42,2.91,3.49,2.62,5.99-.24,2.12-1.49,3.23-3.69,3.35-2.16.12-3.24-.72-3.76-2.92-.59-2.49-2.88-3.28-4.6-1.36-3.62,4.03-6,8.58-4.13,14.22.78,2.36,1.8,4.66,2.87,6.91.28.59,1.2.86,1.78,1.33.59.49,1.11,1.06,1.66,1.6-.59.49-1.11,1.28-1.77,1.42-1.59.33-3.24.51-4.86.48-2.69-.05-5.39-.23-8.07-.53-.67-.07-1.26-.81-1.89-1.24.49-.59.89-1.55,1.48-1.68,1.47-.32,2.14-1.13,2.38-2.5.6-3.5,1.23-7,1.83-10.5.7-4.06-1.13-7.14-3.93-9.8-.32-.31-1.05-.16-1.45-.43-.59-.39-1.41-.94-1.46-1.48-.05-.55.62-1.55,1.16-1.69,3.17-.87,6.37-1.62,9.6-2.21.52-.09,1.5.68,1.76,1.28.31.71.07,1.65.07,2.91Z"/>
      <path class="cls-1" d="M493,327.99c1.87-1.21,3.57-2.4,5.35-3.46,2.26-1.34,4.57-1.13,6.74.2,2.16,1.32,3.1,3.32,2.9,5.86-.18,2.3-1.33,3.47-3.61,3.65-2.24.17-3.27-.7-3.92-2.98-.22-.78-.85-1.98-1.38-2.03-1.06-.09-2.56.12-3.21.83-3.88,4.27-6.06,9.11-3.85,14.98.76,2.03,1.6,4.04,2.59,5.97.33.64,1.3.93,1.9,1.46.57.5,1.05,1.11,1.58,1.66-.55.46-1.04,1.18-1.66,1.32-1.52.33-3.11.56-4.67.53-2.83-.06-5.65-.27-8.46-.56-.63-.07-1.19-.74-1.79-1.13.45-.61.82-1.66,1.36-1.76,1.79-.33,2.32-1.44,2.57-3.01.55-3.44,1.24-6.86,1.78-10.31.62-3.98-1.25-7-4.02-9.58-.32-.3-1.08-.11-1.47-.38-.57-.4-1.29-.97-1.39-1.56-.08-.46.58-1.43,1.07-1.56,3.23-.87,6.5-1.66,9.79-2.25.49-.09,1.41.89,1.73,1.56.3.62.06,1.5.06,2.58Z"/>
      <path class="cls-1" d="M327.33,414.27c2.02-1.32,3.72-2.55,5.53-3.58,2.41-1.37,4.83-1.08,7.06.49,2.17,1.53,2.84,3.71,2.41,6.26-.33,1.99-1.6,2.96-3.78,3-1.89.03-3.15-.74-3.52-2.71-.2-1.08-.28-2.56-1.75-2.42-1.18.11-2.64.6-3.39,1.44-4.34,4.84-5.59,10.31-2.69,16.4.59,1.25,1.02,2.59,1.74,3.75.43.7,1.3,1.13,1.94,1.71.57.51,1.1,1.07,1.65,1.61-.58.49-1.1,1.29-1.76,1.43-1.59.33-3.24.51-4.86.48-2.69-.05-5.39-.23-8.07-.53-.67-.07-1.26-.82-1.88-1.26.5-.58.91-1.54,1.51-1.67,1.57-.35,2.14-1.26,2.38-2.71.55-3.31,1.21-6.6,1.79-9.91.73-4.17-.93-7.46-3.92-10.19-.33-.3-1.05-.15-1.45-.41-.59-.39-1.43-.94-1.48-1.49-.05-.54.65-1.53,1.19-1.68,3.17-.87,6.37-1.61,9.6-2.22.5-.1,1.5.57,1.69,1.09.29.79.08,1.76.08,3.14Z"/>
      <path class="cls-1" d="M230.18,69.53c2.05-1.34,3.75-2.54,5.54-3.6,2.25-1.33,4.56-1.14,6.74.19,2,1.22,3.02,3.08,2.96,5.46-.06,2.49-1.17,3.77-3.45,4.02-2.4.27-3.41-.58-4.13-3.15-.2-.72-.87-1.82-1.37-1.84-1.08-.05-2.57.13-3.21.84-3.98,4.4-6.13,9.36-3.73,15.35.71,1.77,1.39,3.57,2.31,5.23.42.76,1.38,1.2,2.08,1.81.54.48,1.06.99,1.59,1.48-.56.52-1.05,1.35-1.7,1.5-1.58.35-3.24.54-4.86.52-2.69-.04-5.39-.24-8.07-.53-.68-.07-1.64-.62-1.86-1.18-.42-1.07.49-1.47,1.43-1.9.84-.38,1.92-1.14,2.09-1.91.84-3.79,1.45-7.62,2.06-11.46.6-3.85-1.28-6.72-3.9-9.23-.32-.31-1.04-.19-1.42-.47-.61-.45-1.53-1.09-1.52-1.63.01-.58.85-1.48,1.5-1.66,2.91-.81,5.88-1.39,8.82-2.11,1.6-.39,2.23.4,2.36,1.79.06.63-.11,1.28-.24,2.48Z"/>
      <path class="cls-1" d="M397.89,65.69c1.32-.31,2.26-.56,3.21-.76,1.7-.35,3.25.14,4.25,1.46.48.64.54,1.89.27,2.68-.15.43-1.4.49-2.16.7-.11.03-.25-.08-.37-.11-3.77-1.06-3.63-1.02-4.91,2.75-2.15,6.38-1.67,12.39,1.81,18.2,1.31,2.19,2.14,2.56,4.43,1.42.41-.2.78-.63,1.19-.66.59-.04,1.43,0,1.74.37.3.36.3,1.3.04,1.76-1.74,3.07-7.05,4.72-11.34,3.61-3.7-.95-6.19-3.96-5.86-8.06.28-3.5,1.33-6.93,2.06-10.39.34-1.61.88-3.19,1.04-4.81.3-3.07-1.1-4.35-4.12-3.78-1.37.26-2.48.11-3.39-.95-1.04-1.21-.65-2.74.9-3.02,4.58-.82,7.2-3.69,8.83-7.84.29-.74,1.33-1.49,2.11-1.59.45-.06,1.38,1.1,1.54,1.83.24,1.1.11,2.34-.1,3.47-.21,1.15-.7,2.25-1.18,3.71Z"/>
      <path class="cls-1" d="M141.26,390.56c-.55.32-1.38.5-1.61.97-2.27,4.83-4.62,9.63-6.55,14.59-.94,2.41-1.21,5.12-1.52,7.73-.73,6.15-1.3,12.31-1.95,18.47-.04.36-.15.7-.67,1,.06-1.05.12-2.1.19-3.15.39-5.32.84-10.64,1.16-15.96.52-8.78,4.87-16.15,8.64-23.73,6.37-5.56,8.35-13.79,12.63-20.63,2.89-4.62,6.11-9.03,9.19-13.53.84-1.23,1.69-2.44,2.88-4.16-.29,3.83.81,7.22-1.76,10.22-1.16,1.35-1.74,3.2-2.26,5.04,1.16-1.85,2.31-3.7,3.71-5.94.52,2.06.3,3.4-.9,4.56-.7.69-1.27,1.51-1.96,2.22-1.82,1.87-3.22,3.86-3.47,6.64-.13,1.36-1.03,2.68-1.72,3.94-.63,1.15-1.3,2.32-2.18,3.29-5.4,5.97-7.36,13.39-8.97,20.96-.22,1.02-.32,2.09-.33,3.13-.03,2.84.64,3.59,3.38,4.11.72.14,1.42.41,2.13.63v.67c-1.08.19-2.15.37-3.16.54,1.51,1.54,2.21,1.68,4.19.8.06,1.68-.66,2.51-2.22,2.24-1.01-.17-1.97-.7-2.94-1.1-1.64-.67-2.43-.24-2.07,1.48.45,2.09,1.15,4.2,2.17,6.07,1.35,2.47,3.12,4.72,4.7,7.07.31.46.58.93.87,1.4-.14.11-.27.21-.41.32-.66-.82-1.38-1.6-1.97-2.48-2.05-3.05-4.11-6.1-6.05-9.22-.5-.81-.69-1.85-.85-2.82-.39-2.24.38-3.4,2.69-4.13-3.32-2.48-3.25-5.88-2.39-9.32.98-3.89,2.02-7.79,3.46-11.53.98-2.54,2.45-4.99,4.13-7.14,4.05-5.18,6.46-11.12,8.62-17.22.66-1.86,1.43-3.67,2-5.74-.25.3-.5.59-.74.9-2.91,3.73-5.08,7.82-6.24,12.44-1.13,4.47-3.65,8.31-6.8,11.41-1.55,1.52-3.27,3.03-4.87,4.61-.07.11-.15.23-.22.34Z"/>
      <path class="cls-1" d="M129.09,87.65c-.39.16-.78.32-1.33.55,2.8-7.19,3.07-14.59,3.77-21.89.83-8.79,1.4-17.6,2.14-26.39.14-1.63.26-3.39.95-4.81,2.47-5.05,3.44-10.47,4.55-15.9.4-1.96,1.23-3.84,1.86-5.76.3.07.59.14.89.22-.08,1.16-.16,2.32-.26,3.64h5.58c.02.24.04.48.06.73-1.41.11-2.82.35-4.22.31-1.39-.04-1.87.42-2.15,1.83-.98,5-2.17,9.96-3.29,15.03,1.78-.12,3.93-.27,6.4-.44-.51.84-.88,1.44-1.25,2.05-.11-.04-.22-.08-.33-.12v-1.19c-1.76.17-3.51.27-5.22.56-.4.07-.93.77-.99,1.23-.36,2.78-.59,5.58-.86,8.22,2.36-.2,4.45-.38,6.55-.56.04.24.08.47.11.71-1.61.38-3.19.9-4.82,1.11-1.64.21-2.3.92-2.17,2.55.06.76-.09,1.53-.15,2.32,1.79-.27,3.42-.43,5-.81.44-.1.93-.79,1.05-1.29.26-1.05.29-2.15.42-3.23.19,0,.38-.01.57-.02.07.43.22.87.2,1.29-.25,4.47-.4,8.96-.84,13.41-.57,5.78-1.39,11.54-2.04,17.32-.09.82.14,1.68.24,2.81-1.49,1.21-1.72,2.53.03,3.24-1.2.58-2.09,1.16-3.45.6-.92-.38-2.08-.28-3.13-.28-2.06,0-3.56.81-3.93,3.04,0,0,.06-.07.06-.07ZM140.69,52.75c-1.17.13-2.07.26-2.97.32-3.33.24-3.67.69-3.09,4.01h5.55c.17-1.48.33-2.82.51-4.33ZM139.59,62.58c.12-1.44.23-2.75.35-4.09-1.63.18-3.01.25-4.35.52-.52.1-1.25.57-1.36,1-.25,1.02-.18,2.12-.24,3.23,1.1-.18,1.93-.34,2.77-.43.84-.1,1.69-.13,2.83-.22ZM138.87,69.12c-5.29-.6-5.9-.23-5.77,3.41,1.84-.19,3.68-.38,5.55-.57.08-1.08.15-1.96.22-2.83ZM139,67.36c.11-.92.22-1.81.32-2.72-5.5-.45-5.74-.35-5.62,2.41.83,0,1.67-.04,2.5.01.85.05,1.69.18,2.79.3ZM137.28,81.98c-4.24-1.42-6-.93-6.3,1.59,1.99.18,3.97.35,6.05.53.09-.76.17-1.39.25-2.12ZM137.84,77.4c-1.4,0-2.63.08-3.85-.02-1.72-.14-2.18.66-1.91,2.22h5.49c.08-.66.17-1.34.27-2.2ZM132.33,75.05c2.01,0,3.56.03,5.1-.03.28-.01.55-.37.83-.56-.24-.23-.47-.64-.73-.65-1.24-.05-2.49-.09-3.71.06-.45.06-.84.65-1.49,1.18Z"/>
      <path class="cls-1" d="M163.5,340.66c.41,2.43.1,4.69-1.42,6.82-2.02,2.84-3.81,5.85-5.82,8.7-3.68,5.21-6.31,10.92-8.52,16.87-1.48,3.99-3.61,7.57-6.78,10.51-1.04.96-1.66,2.37-2.58,3.48-6.74,8.1-10.21,10.44-20.29,13.87-.2,1.01-.16,1.93-.55,2.59-.76,1.3-1.68,2.53-2.68,3.66-3.25,3.67-4.99,8-5.83,12.76-.05.28-.16.56-.41,1.37-.57-7.39,1.95-12.97,7.07-17.51-5.18.79-9.33-.99-12.9-3.98-3.43-2.88-5.13-6.99-6.64-11.16,3.48,4.37,6.06,9.6,11.75,11.74-3.65-4.55-7.31-9.1-10.96-13.64.17-.17.34-.35.5-.52.35.28.75.51,1.04.84,3.16,3.61,6.21,7.32,9.51,10.78.77.81,2.36,1.09,3.6,1.15,12.07.58,20.17-6.22,27.41-14.74,3.21-3.78,5.61-7.98,7.13-12.64,2.31-7.1,6.08-13.39,10.24-19.51,2.51-3.7,4.75-7.57,7.15-11.44Z"/>
      <path class="cls-1" d="M296.1,269.67c-3.53-.15-7.07-.25-10.6-.49-.47-.03-1.24-.77-1.23-1.17,0-.55.62-1.56.98-1.57,2.93-.06,2.95-2.13,3.27-4.21.49-3.18,1.22-6.33,1.78-9.5.55-3.1.36-6.08-2.01-8.46-.53-.53-1.38-.74-2.01-1.2-.62-.44-1.16-1.01-1.73-1.52.51-.56.93-1.46,1.55-1.64,3.03-.86,6.11-1.56,9.19-2.27,1.65-.38,2.44.45,2.12,2.23-.63,3.5-1.38,6.97-1.92,10.48-.34,2.2-.37,4.45-.54,6.68-.26,3.51,1.67,6.09,3.71,8.6.29.35,1,.33,1.39.64.56.44,1.25.97,1.4,1.58.08.33-.76,1.14-1.31,1.33-1.3.43-2.68.61-4.03.89,0-.14,0-.27-.01-.41Z"/>
      <path class="cls-1" d="M474.33,442.06c-3.47-.14-6.94-.23-10.4-.48-.51-.04-1.32-.77-1.37-1.25-.05-.49.65-1.49,1.05-1.51,2.63-.09,2.89-1.82,3.18-3.86.48-3.32,1.25-6.59,1.82-9.89.52-3.02.38-5.95-1.94-8.29-.57-.58-1.48-.81-2.15-1.31-.61-.45-1.39-.97-1.57-1.61-.1-.37.75-1.35,1.32-1.51,3.16-.88,6.37-1.64,9.58-2.35,1.46-.32,2.13.6,1.84,2.34-.78,4.74-1.65,9.46-2.29,14.21-.23,1.73-.11,3.56.17,5.3.5,3.18,2.17,5.6,5.21,6.99.48.22.94.94.99,1.47.03.39-.57,1.07-1.01,1.2-1.44.43-2.94.67-4.41.99,0-.15-.01-.29-.02-.44Z"/>
      <path class="cls-1" d="M291.66,336.31c.14-2.63-1.15-4.68-2.77-6.55-.31-.36-1.13-.21-1.58-.51-.63-.42-1.41-.96-1.58-1.59-.1-.37.75-1.35,1.33-1.51,3.16-.88,6.36-1.64,9.57-2.35,1.4-.31,2.12.51,1.85,2.16-.42,2.53-1.18,5.01-1.42,7.55-.39,4.1-.82,8.25-.59,12.34.18,3.05,2.09,5.47,5.1,6.79.48.21.94.95.98,1.47.03.39-.6,1.11-1.02,1.19-1.85.34-3.74.7-5.61.68-2.81-.03-5.62-.4-8.43-.55-1.02-.06-2.09.1-2.22-1.31-.12-1.35.94-1.43,1.89-1.8.8-.31,1.9-.97,2.05-1.64.91-4.24,1.59-8.52,2.33-12.8.09-.52.08-1.05.12-1.57Z"/>
      <path class="cls-1" d="M138.62,428.35c-.17,1.54-.54,3.08-.47,4.61.11,2.66.44,5.32.77,7.97.14,1.17.93,1.71,2.14,1.9,1.51.24,2.99.72,4.48,1.1-.04.2-.08.4-.12.6-2.19-.34-4.38-.83-6.58-.98-12.65-.83-20.93-8.3-27.63-18.15-.41-.6-.25-1.66-.19-2.5.38-5.64,2.85-10.66,5.01-15.71.73-1.72,2.79-3.12,4.57-4.08,3.03-1.66,6.53-2.47,8.89-5.31.35-.42,1.13-.49,2.13-.89-.06,1.28.07,2.31-.18,3.25-1.94,7.46-3.93,14.88-3.53,22.73.11,2.14-.67,4.33-1.37,6.44-.59-9.63-1.1-19.24,2.92-28.51-2.64,1.12-4.88,2.19-7.2,3.03-3.35,1.23-5.52,3.46-6.45,6.9-.95,3.49-1.51,7.16-3,10.41-1.35,2.95-.39,4.66,1.43,6.69,4.21,4.69,8.66,9.1,14.48,11.7,2.97,1.32,6.22,2.01,9.6,2.77-1.69-4.79-1.09-9.41-.43-14.02.25.01.49.02.74.04Z"/>
      <path class="cls-1" d="M72.3,15.27c2.61-1.44,5.11-2.82,7.22-3.97.85,1.65,1.49,2.89,2.12,4.14.11.21.14.45.23.67.52,1.29,1.09,2.57,1.55,3.88.21.59.1,1.28.31,1.87.56,1.57,1.21,3.11,1.83,4.66,1.63,4.06,3.24,8.13,4.91,12.17,1.33,3.22,2.86,6.36,4.03,9.63.54,1.51.45,3.26.17,4.95-.99-2.79-1.97-5.57-3.13-8.86-2.11,1.97-3.84,3.59-5.57,5.21.41-2.95,2.22-4.72,4.87-5.87-.37-.68-.66-1.24-1.05-1.97-1.99,1.4-3.85,2.7-5.7,4l-.39-.38c.42-.47.81-.98,1.27-1.4.87-.8,1.71-1.68,2.69-2.31,1.49-.95,1.52-1.97.15-3.58-2.24,1.23-4.59,2.51-7.02,3.83,1.48-2.71,4.36-3.28,6.93-4.49-.47-1.07-.88-2.01-1.38-3.15-1.71,1.44-4.31,1.28-5.06,3.85-.09.32-1.12.36-1.57.49.2-4.92-2.09-9.22-3.49-13.7-1.04-3.32-2.6-6.47-3.9-9.64ZM80.18,17.06c-1.72,1.05-3.25,1.98-4.88,2.96.8,1.37,1.44,2.47,2.07,3.56,5.04-2.94,4.25-1.71,2.8-6.52ZM74.8,18.89c1.81-1,3.51-1.93,5.33-2.93-.28-1.07-.57-2.16-.89-3.33-.47.2-.72.27-.94.41-.9.54-1.8,1.08-2.67,1.65-2.51,1.63-2.51,1.66-.83,4.21ZM85.98,33.59c-.47-1.17-.87-2.16-1.28-3.15q-5.05,2.17-3.58,5.39c1.58-.73,3.15-1.45,4.86-2.24ZM79.87,31.48c1.45-.85,2.78-1.64,4.19-2.47-.23-.71-.42-1.33-.64-1.93-.11-.29-.28-.55-.42-.81-4.44,1.56-4.54,1.72-3.13,5.21ZM78.56,27.06c4.21-1.57,4.53-2.11,2.96-4.82-1.25.7-2.49,1.39-3.82,2.13.32.98.59,1.83.87,2.69Z"/>
      <path class="cls-1" d="M19.84,167.48c-1.1,2.41-2.6,4.73-3.22,7.26-1.5,6.05-2.6,12.2-3.83,18.32-1.72,8.58-3.57,17.13-5.06,25.74-1.23,7.08-.9,14.01,1.85,20.94,1.71,4.31,1.99,9.18,2.91,13.81-.22.11-.44.22-.67.33-.4-.39-.93-.7-1.17-1.17-.32-.63-.54-1.37-.58-2.08-.34-5.32-2.09-10.27-3.88-15.23-1.63-4.52-1.27-9.29-.5-13.88,1.63-9.66,3.61-19.26,5.51-28.87,1.16-5.86,2.19-11.76,3.82-17.49.81-2.84,2.84-5.32,4.32-7.97.16.1.33.19.49.29Z"/>
      <path class="cls-1" d="M116.91,354.92c.41-.62.74-1.31,1.24-1.85,1.85-1.96,3.61-4.04,5.66-5.77,5.11-4.29,8.23-9.81,10.51-15.94.4-1.07,1.29-2.08,2.2-2.82,4.72-3.84,10.2-6.62,14.5-11.1,3.23-3.36,7.37-5.48,12.44-5.44v2.68c-6.19-.03-10.42,3.67-14.56,7.65-1.26,1.21-2.85,2.07-4.34,3.02-2.59,1.66-5.25,3.24-7.81,4.95-.48.32-.76,1.04-.96,1.64-2.37,7.1-6.19,13.16-12.27,17.71-1.72,1.29-3.11,3.02-4.67,4.52-.45.43-.95.8-1.43,1.2-.17-.15-.35-.3-.52-.44Z"/>
      <path class="cls-1" d="M30.72,43.21c1.28-.75,2.56-1.49,3.9-2.27-.19-1.64-.39-3.38-.61-5.25-1.51-.23-2.28.24-2.03,1.97.16,1.09.19,2.2.28,3.3-.2.06-.4.11-.6.17-.42-1.4-.84-2.8-1.29-4.32-.65.07-1.38.16-2.1.24,3.63-1.2,1.32-4.85,3.07-7.24.18,1.81.32,3.2.45,4.55,2.22.45,3-1.18,4.19-2.42-.1.49-.2.99-.33,1.6,2.05.03,4,.13,5.01-2.24-.07.58-.14,1.17-.17,1.45,5.44.77,10.77,1.52,16.33,2.3.32.39.87,1.05,1.42,1.72l-.5-.31c-.67.91-1.29,1.87-2.04,2.72-.4.45-1.02.72-1.54,1.07-.01-.59-.14-1.2,0-1.75.16-.68.55-1.3.97-2.24-1.8-.38-3.38-.71-5.11-1.08-.4,1.56-.76,3-1.11,4.4,3.07,1.39,6.05,2.73,9.03,4.08-.06.21-.12.43-.18.64-8.87-5.16-17.86-3.77-26.88-.34-.05-.25-.1-.5-.15-.75ZM44.12,34.75c-.24,1.59-.45,3.03-.69,4.63,1.64.11,2.97.2,4.39.29.21-1.61.39-3.02.59-4.6-1.5-.11-2.78-.2-4.3-.31ZM38.59,34.65c-1.32.52-3.02.76-3.11,1.29-.27,1.51.11,3.14.25,4.94,1.07-.31,1.74-.5,2.51-.73,0-.87-.03-1.64,0-2.42.04-.78.17-1.55.34-3.09ZM42.93,34.96c-3.02-.44-4.1,1.23-3.13,4.87.75-.15,1.5-.3,2.2-.43.32-1.55.63-2.99.93-4.44Z"/>
      <path class="cls-1" d="M148.57,113.77c1.35-.52,2.67-1.04,3.98-1.54-.5-1.33-.94-2.48-1.38-3.64.19-.21.38-.42.56-.63,1.53,3.12,3.63,4.68,7.01,2.75v-5.16c.12-.03.24-.07.36-.1.29.82.66,1.62.86,2.47.43,1.87.78,3.76,3.57,2.89.04.81.07,1.38.1,2.05-.81.07-1.51.12-2.49.2.18,2.07.36,4.12.55,6.29.65.08,1.21.14,1.85.22.04.64.07,1.21.1,1.75-.83.46-1.54,1.09-2.35,1.26-2.89.61-5.83.97-8.71,1.62-1.41.32-1.84.14-2.22-1.38-.62-2.52-1.72-4.91-2.64-7.42-1.06.35-1.77.58-2.48.81-.09-.13-.18-.27-.28-.4.56-.39,1.12-.78,1.97-1.38-.89-1.31-1.85-2.59-2.65-3.97-.28-.49-.17-1.21-.24-1.82.52.29,1.18.45,1.52.88,1.05,1.33,1.97,2.77,3.01,4.25ZM153.56,113.45c-1.74.53-3.02.92-4.24,1.29.79,2.93,1.52,5.66,2.28,8.47.78-.45,1.56-.8,2.22-1.31.44-.34,1.05-.96.99-1.38-.29-2.25-.77-4.48-1.25-7.07ZM160.15,119.7c-.34-2.24-.68-4.41-1.04-6.78-1.33.1-2.52.2-3.83.3.46,2.61.89,5,1.33,7.48,1.25-.35,2.3-.65,3.54-.99Z"/>
      <path class="cls-1" d="M141.1,419.2c.64,1.08,1.3,2.02,1.78,3.03,1.3,2.73,2.25,5.67,3.88,8.17,1.15,1.77,3.17,2.97,5.28,4.85.13-3.14.29-5.65.29-8.17,0-.37-.67-.84-1.13-1.08-.71-.37-1.5-.59-2.11-1.27,1.04.26,2.08.52,3.24.81.32-2.17.63-4.2.93-6.23.18.02.36.04.54.06-.18,1.61-.29,3.24-.57,4.84-.23,1.3.21,1.95,1.47,2.26,1.32.33,2.61.78,4.16,1.26-.13-2.77-.25-5.25-.37-7.73.13-.03.26-.06.39-.09.12.35.33.7.35,1.06.09,1.64.25,3.3.15,4.93-.12,2,.78,2.72,2.82,2.63-.15-1.53.83-3.13-.27-4.23.49-1.55.95-3,1.5-4.72v16.97c-.05.02-.11.03-.16.05-.25-1.68-.69-3.35-.69-5.03,0-2.05-1-2.62-3.07-2.53,0,3.04-.04,6.05.05,9.06.01.39.67.88,1.13,1.12.91.46,1.9.77,2.86,1.14-.05.17-.11.33-.16.5-1.22-.38-2.44-.77-3.9-1.22-.16,2.06-.3,4-.45,5.94-.22-.02-.44-.04-.65-.06.1-1.59.14-3.19.32-4.77.13-1.08-.24-1.58-1.21-2.12-3.65-2.03-7.22-4.22-10.6-6.21.4,1.1.94,2.61,1.48,4.12-.31.12-.61.23-.92.35-2.04-4.74-4.08-9.49-6.02-14.02v18.36c-1.54-2.04-1.95-20.16-.34-22.03ZM158.87,438.62c0-3.27.03-6.1-.03-8.92,0-.44-.27-1.14-.6-1.27-1.62-.63-3.3-1.11-5.49-1.82,0,2.99-.04,5.54.04,8.09.01.4.42.95.8,1.16,1.59.9,3.23,1.7,5.28,2.75Z"/>
      <path class="cls-1" d="M88.99,60.98c-.82.65-1.57,1.42-2.47,1.92-2.99,1.67-3.2,2.06-2.62,5.07-2.59-3.56-5.18-7.76-8.41-11.38-3.08-3.44-6.39-6.88-11.33-8.68.65-2.39,4-3.16,5.2-6.01,7.05,5.31,13.98,10.76,18.06,19.09.45-.2.84-.37,1.23-.54.11.17.23.35.34.52ZM80.61,54.04c-1.15-1.23-2.16-2.31-3.2-3.43-1.3.92-2.43,1.73-3.66,2.6,1.2,1.09,2.21,2.01,3.25,2.96,1.2-.71,2.3-1.37,3.6-2.14ZM69.62,49.8c1.2,1.01,2.18,1.84,3.27,2.76,1.11-1.08,2.17-2.09,3.32-3.21-1.06-.96-1.91-1.72-2.7-2.44-1.34.99-2.48,1.84-3.89,2.89ZM80.8,61.04c.69,1.33,1.29,2.48,1.92,3.69,1.32-.95,2.58-1.85,3.9-2.8-.8-1.15-1.5-2.15-2.22-3.18-1.26.8-2.35,1.5-3.6,2.3ZM80.17,60.02c1.07-.92,2.07-1.79,3.16-2.72-.8-.94-1.46-1.72-2.16-2.55-1.26.77-2.35,1.43-3.49,2.12.9,1.13,1.62,2.05,2.49,3.15ZM70.12,43.27c-1.37,1.48-2.55,2.75-3.84,4.14.79.53,1.43.95,1.98,1.32,1.46-1.03,2.77-1.96,4.24-2.99-.79-.82-1.55-1.6-2.38-2.46Z"/>
      <path class="cls-1" d="M100.24,287.3c-2.96,3.33-5.68,6.4-8.41,9.46-.19-.16-.38-.31-.57-.47,1.06-1.39,2.65-2.65,3.04-4.21.4-1.63-.36-3.55-.64-5.59-1.11.82-1.94,1.43-2.77,2.04-.18-.19-.36-.38-.55-.57.91-1.08,2.26-2.03,2.61-3.27.36-1.26-.26-2.8-.47-4.3-.58-.04-1.08-.08-1.94-.15,2.52-2.32.87-4.84.94-7.21.06-2.11.01-4.21.41-6.32.19,3.54.38,7.08.6,11.01,2.65-1.68,4.99-3.08,7.2-4.65.45-.32.49-1.28.61-1.97.16-.94.22-1.9.33-2.85.17.01.33.02.5.03-.07,1.17-.15,2.34-.25,3.93.98-.74,1.7-1.28,2.43-1.83-.91,2.22-3.78,3.61-2.38,6.72,1.43-.17,2.28-2.58,4.76-1.32-3.37,2.26-6.64,4.44-4.5,9.11.89-.73,1.86-1.51,2.83-2.3-.45,2.11-3.3,2.67-2.96,5.19.28,2.08.53,4.16.83,6.47,1.43-1.03,2.65-1.9,3.87-2.78.22.14.43.28.65.42-4.11,1.84-5.11,4.8-3.07,8.85-.28-.05-.57-.09-.85-.14-.32-1.41-.65-2.82-1.06-4.6-2.08,2.56-3.96,4.88-5.83,7.2-.15-.11-.3-.23-.45-.34.95-1.25,1.74-2.68,2.88-3.72,2.88-2.62,3.67-5.69,2.61-9.35-.19-.67-.22-1.39-.39-2.52ZM95.36,291.03c4.95-4.61,5.73-6.51,4.25-10.24-5.62,4.29-6.03,5.26-4.25,10.24ZM99.82,274.41c-2.06,1.38-3.94,2.58-5.72,3.9-.49.36-.96,1.13-.95,1.7.04,1.21.4,2.4.69,3.94,1.54-1.48,2.74-2.89,4.19-3.96,1.92-1.41,2.3-3.16,1.79-5.59Z"/>
      <path class="cls-1" d="M231.94,178.64c-.08,3.58-1.27,5-4.14,4.95-3.66-.07-7.27-2.62-6.83-5.13.56-3.22,2.22-6.2,5.56-6.08,3.21.12,5.49,2.69,5.41,6.26Z"/>
      <path class="cls-1" d="M295.66,178.55c-.03,3.63-1.17,5.06-4.02,5.04-3.62-.02-7.1-2.52-7.03-5.05.08-3.05,2.87-6.13,5.57-6.15,3.21-.02,5.51,2.57,5.48,6.16Z"/>
      <path class="cls-1" d="M358.92,178.57c-.04,3.63-1.18,5.04-4.04,5.02-3.62-.03-7.09-2.54-7.01-5.07.1-3.07,2.88-6.12,5.59-6.13,3.21,0,5.49,2.58,5.46,6.18Z"/>
      <path class="cls-1" d="M298.02,229.36c-.05,3.33-1.83,5.51-4.42,5.41-3-.12-6.36-2.89-6.29-5.18.1-3.03,2.79-5.98,5.45-5.96,2.92.02,5.3,2.63,5.26,5.73Z"/>
      <path class="cls-1" d="M299.13,315.51c-.05,3.31-1.84,5.53-4.39,5.45-2.97-.09-6.37-2.84-6.33-5.14.06-2.99,2.77-6.01,5.4-6,2.88,0,5.37,2.66,5.32,5.69Z"/>
      <path class="cls-1" d="M85.75,156.57c-.2-1.61-.67-2.89-.43-4.03.61-2.95,1.37-5.89,2.37-8.72,1.94-5.51,3.79-11.09,6.23-16.38,2.18-4.73,6.37-7.98,10.17-11.44.19-.17.54-.15,1.12.13-.64.77-1.23,1.59-1.92,2.31-6.34,6.54-10.38,14.33-12.72,23.09-.57,2.15-1.55,4.2-2.23,6.32-.86,2.7-1.62,5.43-2.58,8.72Z"/>
      <path class="cls-1" d="M141.26,390.56c.07-.11.15-.23.22-.34,2.36.2.11,1.63.62,2.32-.13.25-.25.5-.38.75-2.12,4.28-3.71,8.73-3.87,13.55-.17,5.27-.26,10.54-.32,15.81-.06,5.16-2.98,9.28-5.15,13.78-.06-.4-.23-.82-.15-1.19.26-1.22.42-2.51.95-3.61,2.26-4.7,2.93-9.66,2.85-14.8-.04-2.5.06-5.01-.05-7.51-.26-5.7,1.25-10.94,3.96-15.9.5-.92.88-1.9,1.31-2.86Z"/>
      <path class="cls-1" d="M112.08,333.93c3.81-1.86,8.19-2.52,11.49-5.47.5-.45,1.29-.73,1.97-.78,2.58-.2,5.17-.28,7.53-.39-.64,2.32-1.46,4.31-1.7,6.36-.46,3.96-2.11,7.09-5.21,9.6-2.6,2.1-5.02,4.42-7.54,6.61-.27.23-.65.32-1.27.2.81-1.05,1.55-2.16,2.45-3.13.93-1.01,1.92-2.02,3.05-2.8,4.39-3.02,7.09-6.93,7.22-12.43.02-.95.51-1.89.86-3.1-2.77.46-5.45.09-8,1.9-2.18,1.56-4.96,2.26-7.41,3.48-3.54,1.76-7.02,3.64-10.31,5.37,1.03-2.46,3.91-3.39,6.14-5.03.24-.13.48-.27.73-.4Z"/>
      <path class="cls-1" d="M148,315.27c-1.22,1.23-2.33,2.58-3.67,3.67-1.83,1.49-3.77,2.87-5.78,4.1-1.14.7-2.5,1.15-3.82,1.44-6.67,1.48-13.34,2.92-20.04,4.25-1.58.31-3.27.25-4.9.17-4.75-.26-8.93,1.18-12.68,4.02-.19.14-.41.24-.86.15.27-.38.49-.81.82-1.13,3.38-3.25,7.41-4.77,12.12-4.85,2.85-.04,5.72-.41,8.55-.86,4.99-.81,9.98-1.69,14.91-2.78,1.87-.41,3.75-1.23,5.38-2.26,2.98-1.87,5.77-4.04,8.65-6.08.24-.17.56-.25.84-.36.16.17.32.34.48.51Z"/>
      <path class="cls-1" d="M325.25,309.85c2.31,0,4.49,1.8,4.81,3.53.22,1.22-.15,2.12-1.27,2.8-2.89,1.77-5.74,3.62-8.59,5.46-1.03.67-2.14,1.46-3.15.32-1.12-1.25-.16-2.37.8-3.19,2.47-2.12,4.54-4.49,5.8-7.56.29-.69,1.27-1.1,1.6-1.37Z"/>
      <path class="cls-1" d="M324.04,223.67c2.55-.07,5.05,1.93,5.03,3.8,0,.85-.67,1.99-1.39,2.5-2.66,1.88-5.47,3.55-8.23,5.29-.55.35-1.1.83-1.7.92-.56.08-1.35-.11-1.74-.49-.31-.3-.39-1.17-.19-1.61.35-.74.92-1.42,1.55-1.96,2.17-1.87,3.93-3.99,5.07-6.66.35-.83,1.26-1.43,1.6-1.79Z"/>
      <path class="cls-1" d="M472.87,396.07c2.44-.06,4.87,1.8,4.94,3.62.03.86-.52,2.09-1.21,2.58-2.87,2.04-5.89,3.86-8.87,5.75-.38.24-.81.59-1.21.58-.6-.01-1.35-.14-1.74-.53-.32-.32-.39-1.15-.21-1.62.25-.64.76-1.22,1.29-1.68,2.3-2,4.27-4.21,5.42-7.12.31-.77,1.26-1.28,1.58-1.59Z"/>
      <path class="cls-1" d="M20.13,245.87c-.66-1.85-1.57-3.66-1.95-5.57-1.28-6.55-.4-13.13.11-19.69.16-2.02.38-4.04.9-6.06.06.72.12,1.43.23,2.69,1.35-5.8,2.77-11.05,5.36-15.89-1.3,5.26-2.94,10.46-3.81,15.78-.87,5.35-.96,10.83-1.4,16.36-.26-.17-.63-.41-1.03-.68-.4,4.51.31,8.52,2.25,12.7-.22.12-.44.24-.67.36Z"/>
      <path class="cls-1" d="M31.84,262.24c-1.31,4.62-2.27,8.69-3.61,12.63-2.27,6.69-1.9,13.16.75,19.65.82,1.99,1.11,4.21,1.44,6.36-3.92-7.47-7.88-15.01-4.6-23.75,1.82-4.85,1.72-10.52,6.01-14.9Z"/>
      <path class="cls-1" d="M137.13,307.69c.98-.34,1.54-.74,2.01-.66,3.71.62,7.62-.42,11.21,1.55.77.43,2.25-.15,3.3-.55,3.24-1.24,6.44-2.62,9.69-3.96.63,1.7.17,2.45-1.32,3.02-2.7,1.03-5.24,2.47-7.96,3.42-1.32.46-3.05.65-4.32.19-2.7-.97-5.31-1.73-8.23-1.62-1.27.05-2.58-.79-4.38-1.39Z"/>
      <path class="cls-1" d="M32.04,199.51c-5.07,12.24-5.46,24.86-6.18,37.23-3.79-4.48.27-30.99,6.18-37.23Z"/>
      <path class="cls-1" d="M85.69,82.12c-4.72,3.62-9.56,6.87-13.83,10.76-4.29,3.9-8,8.44-12.04,12.79.88-6.55,16.42-20.67,25.87-23.55Z"/>
      <path class="cls-1" d="M64.97,135.11c.72.92,1.75,1.74,2.11,2.79,1.89,5.5,1.82,10.98-.85,16.26-1.13,2.23-1.03,2.83,1.04,4.41,1.46,1.11,2.89,2.26,4.22,3.52.51.48.68,1.32,1.01,1.99l-.52.47c-2.43-2.06-4.96-4.02-7.26-6.23-1.26-1.21-1.01-2.86-.23-4.41,2.41-4.78,2.66-9.85,1.74-15-.21-1.2-1.09-2.28-1.66-3.41l.41-.39Z"/>
      <path class="cls-1" d="M110.58,93.92c-3.22,1.82-6.44,3.65-9.63,5.46.53-3.11.72-6.61,1.78-9.82,1.7-5.16,4.09-10.1,3.97-15.74.21-.02.42-.03.63-.05.19,1.09.49,2.17.56,3.27.27,4.23-1.66,7.92-2.94,11.78-.85,2.56-1.39,5.22-2.19,8.27,2.82-1.31,5.24-2.44,7.66-3.56.06.13.12.27.17.4Z"/>
      <path class="cls-1" d="M112.08,333.93c-.25.14-.49.27-.73.4-3.02.91-6.39,1.06-8.69,3.71,2.3-4.57,7.42-4.69,11.17-7.28-3.27.22-6.73-.16-9.75.83-2.95.96-5.44,3.32-7.89,4.9.71-2.9,5.01-6.3,9.14-6.6,3.81-.28,7.63-.29,11.45-.38.39,0,.78.26,1.57.54-2.33,1.44-4.3,2.66-6.27,3.88Z"/>
      <path class="cls-1" d="M30.86,232.61c-2.64-3.81,3.63-28.91,8.68-35.08-5.09,11.08-6.26,23.14-8.68,35.08Z"/>
      <path class="cls-1" d="M26.24,160.36c.47-.62.82-1.42,1.43-1.85,4.43-3.07,8.76-6.33,13.42-9.02,4.67-2.7,8.95-5.74,12.57-9.75,1.33-1.47,3-2.64,4.51-3.95.21.24.42.47.63.71-4.29,3.87-8.21,8.29-12.97,11.47-6.37,4.26-13.21,7.81-19.1,12.8-.17-.14-.34-.29-.5-.43Z"/>
      <path class="cls-1" d="M92.82,160.14c-2.87-8.87,4.34-26.18,11.66-32.5-6.32,10.21-11.65,20.2-11.66,32.5Z"/>
      <path class="cls-1" d="M117.53,320.62c1.56-2.85,4.2-4.23,7.08-4.93,4.24-1.03,8.27-2.3,12.05-4.66,3.62-2.26,9.01-1.12,12.18,2.27-.99-.39-1.49-.59-1.98-.78-4.13-1.57-8.13-1.83-12.09.71-1.62,1.04-3.53,1.71-5.39,2.31-4.1,1.34-8.39,2.18-11.85,5.07Z"/>
      <path class="cls-1" d="M131.18,99.55c-10.49,4.73-18.27,12.73-25.62,21.25,2.35-7.24,18.99-21.04,25.62-21.25Z"/>
      <path class="cls-1" d="M137.11,234.73c0-1.14-.19-2.32.03-3.41,1.16-5.69,4.54-9.96,8.93-13.54.37-.31.82-.53,1.23-.79l.42.35c-.25.43-.42.92-.75,1.27-4.28,4.5-7.74,9.44-8.74,15.77-.02.15-.27.26-.41.39-.23-.01-.47-.03-.7-.04Z"/>
      <path class="cls-1" d="M115.86,318.56c1.57-2.78,3.46-4.8,6.68-5.21,4.16-.53,8.03-1.9,11.63-4.08.67-.4,1.6-.36,2.41-.52.03.18.06.36.08.54-2.07,1.19-4.09,2.5-6.24,3.54-1.46.7-3.07,1.27-4.66,1.45-3.34.36-6.27,1.41-8.63,3.86-.18.19-.4.35-.62.47-.09.05-.24-.02-.65-.06Z"/>
      <path class="cls-1" d="M148.68,136.64c5.3.94,10.06,1.78,14.82,2.63,0,.1.02.19.02.29-.38.06-.77.21-1.14.16-4.95-.68-9.88-1.46-14.84-2.03-1.03-.12-2.14.48-3.23.75v-1.83c3.05-1.29,6.17-2.61,9.29-3.94.13.25.25.5.38.75-1.61.98-3.22,1.95-5.31,3.22Z"/>
      <path class="cls-1" d="M49.87,223.35c.18-4.13,1.03-7.8,2.54-11.24,1.18-2.68,2.82-5.16,4.33-7.69.19-.32.82-.38,1.25-.55.02.46.22,1.05.02,1.35-3.65,5.33-5.75,11.32-7.54,17.45-.05.16-.23.27-.59.68Z"/>
      <path class="cls-1" d="M57.72,180.02c-.06-1.12.91-2.01,2.15-2.43,1.34-.46,2.82-.83,4.22-.77,3.45.15,5.54-1.55,6.91-4.48.29-.62.61-1.22,1.01-2.03.66,3.39-1.5,6.96-4.5,7.68-1.33.32-2.74.31-4.08.6-1.9.41-3.78.95-5.7,1.44Z"/>
      <path class="cls-1" d="M144.35,99.37c-4.22,1.91-8.75,3.82-13.13,6-4.42,2.21-8.46,5.03-11.92,9,.84-4.81,16.66-14.02,25.05-15Z"/>
      <path class="cls-1" d="M141.73,393.29c.13-.25.25-.5.38-.75.42.15.96.2,1.23.49.19.2.07.77-.03,1.14-1.49,5.68-2.99,11.35-4.53,17.17-.4-6.31,1.72-12.11,2.94-18.04Z"/>
      <path class="cls-1" d="M113.27,97.21c-4.61,2.63-9.21,5.25-14.1,8.04-.69-.55-.33-1.42.6-1.97,3.08-1.82,6.19-3.6,9.37-5.25,1.23-.64,2.65-.9,3.99-1.33.05.17.1.34.15.5Z"/>
      <path class="cls-1" d="M95.25,339.83c-5.08-4.2-13.59-24.23-12.35-28.59.58,5.34,2.5,10.22,4.96,14.9,2.42,4.59,4.93,9.13,7.39,13.69Z"/>
      <path class="cls-1" d="M17.41,203.83c-2.03,8.4-3.8,16.83-4.06,25.5-.3-8.75-.04-17.41,4.06-25.5Z"/>
      <path class="cls-1" d="M147.24,126.49c-.08-4.89-3.27-8.13-5.93-11.67-.58-.77-2.05-1.31-1.16-2.75.83.58,1.87,1,2.44,1.77,1.59,2.16,3.13,4.38,4.43,6.73,1.02,1.84,1.27,3.9.22,5.92Z"/>
      <path class="cls-1" d="M52.46,153.83c-2.94,3.83-7.01,8.04-12.01,11.31,4.26-4.01,8.52-8.03,12.01-11.31Z"/>
      <path class="cls-1" d="M104,68.85c-6-.39-8.78,3.89-11.68,7.93-.75,1.04-1.23,2.26-1.92,3.56-.19-3.27,3.64-9.1,7.19-11.19,2.49-1.46,4.47-1.57,6.41-.3Z"/>
      <path class="cls-1" d="M54.4,202.84c-4.42,6.43-6.26,13.35-7.86,20.37-.88-4.92,4.37-19.36,7.86-20.37Z"/>
      <path class="cls-1" d="M73.84,179.41c-1.27.67-2.48,1.55-3.83,1.95-2.19.65-4.47,1.01-6.73,1.43-.36.07-.78-.21-1.17-.33.23-.35.38-.88.69-1.01,1.4-.55,2.82-1.12,4.28-1.43,2.15-.46,4.35-.71,6.53-1.05.08.15.15.29.23.44Z"/>
      <path class="cls-1" d="M26.37,298.5c-2.42-1.34-4.77-10.27-3.92-14.85,1.28,4.87,2.57,9.73,3.92,14.85Z"/>
      <path class="cls-1" d="M23.16,175.34c-.85,5.33-4.61,9.44-6.05,14.83-1.3-2.23,1.42-8.65,6.05-14.83Z"/>
      <path class="cls-1" d="M77.75,91.91c.93,2.25-.45,3.41-1.63,4.59-2.08,2.08-4.23,4.1-6.35,6.14l-.56-.55c2.83-3.37,5.65-6.73,8.54-10.18Z"/>
      <path class="cls-1" d="M48.91,150.26c-4.56,4.18-8.38,9.18-13.66,12.59l-.34-.37c4.46-4.31,8.92-8.61,13.38-12.92.21.23.42.46.62.7Z"/>
      <path class="cls-1" d="M90.76,185.98c-3.98-8.33-2.03-17-1.35-25.6-.04,8.55-1.94,17.21,1.35,25.6Z"/>
      <path class="cls-1" d="M129.09,87.65s-.06.06-.06.07c2.92-1.14,5.88-1.85,9.3-1.16-.38.55-.52.99-.73,1.03-2.67.47-5.36.89-8.05,1.25-.1.01-.3-.77-.46-1.19Z"/>
      <path class="cls-1" d="M38.64,163.96c3.59-5,8.4-8.84,12.76-13.13.2.2.41.39.61.59-2.14,2.16-4.22,4.39-6.44,6.48-2.24,2.1-4.62,4.05-6.93,6.07Z"/>
      <path class="cls-1" d="M41.86,281.69c.12-3.98,1.67-7.58,2.78-11.29,1.08,1.53-.78,8.67-2.78,11.29Z"/>
      <path class="cls-1" d="M52.6,159.14c-1.31,3.91-7.65,9.63-10.16,9.6,3.23-3.05,6.55-6.19,10.16-9.6Z"/>
      <path class="cls-1" d="M142.14,128.02c-.89-4.28-4.13-6.88-6.8-9.89-.36-.41-.46-1.06-.68-1.6.56.27,1.28.41,1.64.85,1.81,2.24,3.61,4.5,5.21,6.88.69,1.02.9,2.37,1.32,3.56-.23.07-.47.13-.7.2Z"/>
      <path class="cls-1" d="M106.36,359.28c4.02,4.99,8.14,10.09,12.25,15.2-2.12-.82-11.53-12.57-12.25-15.2Z"/>
      <path class="cls-1" d="M119.51,287.13c.6,4.56,1.2,9.13,1.8,13.69-.31.04-.62.08-.93.12-.59-4.57-1.17-9.14-1.76-13.71.3-.03.59-.07.89-.1Z"/>
      <path class="cls-1" d="M102.08,257.51c-2.87,2.34-5.77,4.6-9.47,5.49,2.78-2.48,5.92-4.33,9.47-5.49Z"/>
      <path class="cls-1" d="M25.32,306.22c-3.35-3.3-4.37-6.89-4-11,1.27,3.49,2.54,6.98,4,11Z"/>
      <path class="cls-1" d="M137.76,130.98c-2.57-2.45-5.24-5-8.19-7.82,3.25.36,8.29,5.78,8.19,7.82Z"/>
      <path class="cls-1" d="M100.85,263.68c-2.18,2.25-4.64,4.06-8.04,5.03,1-2.18,3.3-3.62,8.04-5.03Z"/>
      <path class="cls-1" d="M71.84,103.76c.42-1.68,5.02-5.97,6.89-6.58-.08,1.39-4.81,5.99-6.89,6.58Z"/>
      <path class="cls-1" d="M42.17,214.1c-.96,4.25-1.91,8.49-2.87,12.74-.23-4.48,1.05-8.67,1.91-12.95.32.07.64.14.96.21Z"/>
      <path class="cls-1" d="M59.3,220.91c-.73,2.39-1.36,4.49-2,6.58-.46,1.52-1.14,2.83-3.05,3.01,2.73-2.59,1.8-7.11,5.05-9.59Z"/>
      <path class="cls-1" d="M60.87,209.08c.16,3.28-3.49,9.43-5.73,10.41,1.81-3.29,3.65-6.63,5.73-10.41Z"/>
      <path class="cls-1" d="M154.51,447.21c2.85.78,5.71,1.52,8.54,2.38.33.1.46.85.68,1.29-.13.17-.27.34-.4.51-3-1.21-6-2.42-9.01-3.63.06-.19.13-.37.19-.56Z"/>
      <path class="cls-1" d="M163.7,307.9c-.22.36-.36.96-.66,1.05-2.73.82-5.48,1.56-8.23,2.31l-.19-.48c2.87-1.17,5.74-2.33,8.62-3.5.15.2.3.41.45.61Z"/>
      <path class="cls-1" d="M47.64,206.46c-1.44,4.66-2.2,9.56-4.99,13.73,1.5-4.64,3.01-9.29,4.51-13.93.16.07.32.14.49.2Z"/>
      <path class="cls-1" d="M52.92,165.23c-2.28,3.42-4.24,7.22-8.35,8.82,2.82-2.98,5.58-5.9,8.35-8.82Z"/>
      <path class="cls-1" d="M163.54,89.95c-3.18.67-6.36,1.34-9.86,2.08,1.65-1.65,7.34-2.95,9.86-2.08Z"/>
      <path class="cls-1" d="M121.18,410.84c-.83,3.65-1.65,7.29-2.48,10.94-.27-.06-.55-.13-.82-.19l2.67-10.89c.21.05.42.1.63.15Z"/>
      <path class="cls-1" d="M157.1,412.46c1.96.26,3.94.47,5.88.85.34.07.52.9.78,1.37-.13.16-.27.32-.4.48-2.14-.68-4.28-1.37-6.41-2.05.05-.22.1-.43.16-.65Z"/>
      <path class="cls-1" d="M159.12,382.33c1.33-1.66,2.67-3.33,4-4.99.86,3.19-1.98,3.78-3.19,5.51-.27-.17-.54-.34-.8-.51Z"/>
      <path class="cls-1" d="M56.54,42.19c1.34-1.67,2.67-3.34,4.06-5.08.77,1.55-1.44,4.88-3.48,5.55-.19-.16-.39-.31-.58-.47Z"/>
      <path class="cls-1" d="M19.63,190.29c1.66-3.14,3.32-6.28,4.99-9.43-.38,3.75-2.85,6.51-4.37,9.73-.21-.1-.41-.2-.62-.3Z"/>
      <path class="cls-1" d="M149.86,14.47c-2.36-.03-4.82.62-7.48-1.03,3.03-1.17,5.2.37,7.48,1.03Z"/>
      <path class="cls-1" d="M43.78,182.1c2.45-2.16,4.9-4.33,7.35-6.49.15.16.3.33.45.49-2.45,2.16-4.9,4.33-7.35,6.49-.15-.17-.3-.33-.46-.5Z"/>
      <path class="cls-1" d="M137.04,40.7c2.34-.19,4.69-.37,7.03-.56.03.25.05.51.08.76-2.34.27-4.67.55-7.01.82-.04-.34-.07-.69-.11-1.03Z"/>
      <path class="cls-1" d="M72.92,106.63l5.58-5.68.6.59-5.64,5.63-.54-.53Z"/>
      <path class="cls-1" d="M129.21,288.45c.74,3.01,1.48,6.02,2.22,9.03-.22.05-.43.11-.65.16-.73-3.03-1.47-6.06-2.2-9.09.21-.03.42-.07.63-.1Z"/>
      <path class="cls-1" d="M111.45,283.73c.21,3.16.41,6.32.62,9.48-.24.01-.49.03-.73.04-.17-3.16-.34-6.32-.51-9.49.21-.01.41-.03.62-.04Z"/>
      <path class="cls-1" d="M72.52,12.38c1.68-2.01,3.58-3.72,6.69-3.92-2.42,1.42-4.56,2.67-6.69,3.92Z"/>
      <path class="cls-1" d="M23.1,192.19c.99-2.51,1.98-5.01,2.97-7.52.19.07.39.15.58.22-.99,2.51-1.98,5.03-2.97,7.54l-.58-.24Z"/>
      <path class="cls-1" d="M85.41,68.23c2.22-1.2,4.45-2.39,6.67-3.59.1.17.2.34.3.51-2.21,1.21-4.42,2.42-6.63,3.63-.11-.19-.22-.37-.34-.56Z"/>
      <path class="cls-1" d="M141.72,22.18h5.11c-1.66,1.69-3.41.73-5.13.64,0-.21.01-.43.02-.64Z"/>
      <path class="cls-1" d="M123.9,416.5c-.17,1.67-.34,3.34-.51,5.01-1.44-1.82-.68-3.44,0-5.07.17.02.34.04.5.06Z"/>
      <path class="cls-1" d="M66.46,184.63c1.71-.14,3.41-.27,5.12-.41.02.27.04.54.06.81-1.71.18-3.42.37-5.14.55-.02-.32-.03-.64-.05-.96Z"/>
      <path class="cls-1" d="M163.51,391.85c-.07,1.89-1.15,2.46-3.83,1.93,1.21-.61,2.41-1.21,3.83-1.93Z"/>
      <path class="cls-1" d="M92.58,48.87c-1.17,1.09-2.35,2.18-3.52,3.26-.22-.24-.43-.48-.65-.72l3.62-3.18.55.63Z"/>
      <path class="cls-1" d="M100.01,306.09l5.25-5.36c-.05-.06-.1-.12-.16-.18-1.74,1.8-3.48,3.61-5.22,5.41.04.04.08.08.12.12Z"/>
      <path class="cls-1" d="M160.83,387.71c.81-.66,1.63-1.32,2.51-2.04.39,2.05-.03,2.45-2.51,2.04Z"/>
      <path class="cls-1" d="M61.94,43.98c.92-1.48,1.84-2.95,2.76-4.43.18.1.35.2.53.3-.9,1.51-1.8,3.02-2.7,4.52-.2-.13-.39-.26-.59-.4Z"/>
      <path class="cls-1" d="M29.72,193.48c.61-1.68,1.23-3.36,1.84-5.04.19.07.37.13.56.2-.6,1.7-1.2,3.4-1.8,5.1-.2-.08-.4-.17-.6-.25Z"/>
      <path class="cls-1" d="M119.21,223.98c.05-.97-.23-2.12.2-2.89,3.25-5.92,7.91-10.51,13.81-13.88-5.08,5.16-10.16,10.32-14.01,16.77Z"/>
      <path class="cls-1" d="M127.95,201.72c-2.32,1.57-4.77,2.98-6.92,4.75-2.17,1.78-4.21,3.77-6.01,5.93-1.75,2.1-3.12,4.51-4.89,7.12-.57-5.28,8.72-14.58,17.82-17.8Z"/>
      <path class="cls-1" d="M118.55,212.27c2.72-3.81,6.2-6.37,11.14-6.37-4.64.56-7.98,3.3-11.14,6.37Z"/>
      <path class="cls-1" d="M138.91,197.1c-3.11.33-6.23.67-9.34,1-.03-.21-.06-.42-.08-.62,3.12-.35,6.24-.71,9.35-1.06.02.23.05.46.07.69Z"/>
    </g>
  </g>
</svg>