<?xml version="1.0" encoding="UTF-8"?>
<svg id="Capa_2" data-name="Capa 2" xmlns="http://www.w3.org/2000/svg" viewBox="0 0 405.01 514.07">
  <defs>
    <style>
      .cls-1 {
        fill: #fff;
      }
    </style>
  </defs>
  <g id="Capa_2-2" data-name="Capa 2">
    <g id="Capa_1-2" data-name="Capa 1-2">
      <path class="cls-1" d="M405.01,212.77c-7.22,1.79-14.42,3.85-22.26.5,1.01,7.06,2.16,13.39,2.77,19.76,1.87,19.55,1.47,38.9-8.26,56.69-3.49,6.38-8.03,12.23-12.42,18.07-5.61,7.46-10.79,14.99-9.92,24.97.65,7.45,8.76,12.91,15.21,10.29,3.84-1.56,4.87-4.04,2.84-8.07-1.13,3.73-3.48,5.98-6.95,4.45-1.88-.82-3.75-3.14-4.31-5.15-1.03-3.71.96-6.67,4.29-8.53,5.11-2.87,11.07-1.55,14.61,3.16,6.49,8.65,2.58,20.32-8.38,24.97-11.21,4.75-23.17.61-29.72-10.28-7.09-11.8-5.89-23.88-1.19-36.07.88-2.27,1.88-4.49,2.94-7.01-6.82-4.24-12.54-9.29-14.47-17.71v4.31c.02,16.41-.26,32.82.15,49.22.38,15.68-5.11,28.85-15.11,40.58-12.46,14.61-28.31,24.52-44.91,33.65-20,11-39.67,22.6-59.47,33.96-1.3.75-2.49,1.7-3.54,3.42,2.34,0,4.69.02,7.03,0,29.4-.26,58.1-4.73,86-14.14,2.68-.9,4.05-2.07,3.56-5.27-.75-4.97-1.13-10.01-1.38-15.03-.49-9.92,5.61-18.55,16.25-21.71,7.12-2.11,14.58-3.18,21.95-4.31,14.58-2.22,27.22-7.93,36.89-19.41.27-.31.67-.51,1.58-1.19,2.39,14.56-2.74,25.95-12.95,36.18,9.34,1.39,17.76-.49,26.16-3.09-.89,6.62-8.43,15.94-19.71,22.03-8.89,4.81-18.61,8.09-28.64,12.34,1.39,6.75,2.24,14.52,4.65,21.78,3.46,10.4-.85,17.64-8.03,23.99-14.14,12.51-31.11,19.47-49.18,23.83-35.18,8.48-70.93,11.25-107.04,9.72-29.98-1.27-59.51-5.18-88.06-14.91-13.51-4.61-25.69-11.3-35.8-21.59-5.31-5.41-7.15-11.37-5.32-18.86,1.98-8.06,3.28-16.29,4.96-24.88-20.03-5.53-38.6-12.96-48.71-32.52,8.65,1.11,17.18,2.2,25.71,3.29.18-.46.36-.92.55-1.38-6.91-6.34-11.37-14.1-12.93-23.19-.68-3.97-.11-8.16-.11-12.26l1.13-.73c2.66,2.91,5.03,6.16,8.03,8.67,8.28,6.94,18.2,10.12,28.72,11.9,7.64,1.29,15.4,2.35,22.79,4.58,11.86,3.57,17.14,12.26,16.13,24.65-.31,3.87-.47,7.76-.99,11.61-.43,3.13.64,4.99,3.67,5.71,16.05,3.79,31.96,8.32,48.18,11.09,13.12,2.24,26.61,2.35,39.93,3.37,1.51.12,3.03.02,4.55.02.17-.42.33-.84.5-1.26-8.14-5.17-16.08-10.73-24.48-15.44-16.53-9.27-33.51-17.73-49.93-27.17-14.54-8.36-27.57-18.78-37.83-32.29-7.48-9.85-11.04-20.96-10.99-33.34.06-16.84-.08-33.68-.15-50.51,0-1.25-.11-2.5-.17-3.96-1.98,3.23-3.5,6.46-5.71,9.1-2.18,2.6-5.07,4.62-7.96,7.16,1.71,5.6,3.86,11.5,5.31,17.57,3.16,13.24-1.9,26.78-12.29,34-8.99,6.24-22.41,4.46-29.33-3.89-7.08-8.53-3.66-21.41,6.29-23.72,3.84-.89,7.16.17,9.86,2.91,3.34,3.38,3.25,8.5-.02,11.1-3.13,2.49-6.51,1.48-9.42-2.84-1.89,3.53-.71,6.31,3.23,7.66,6.48,2.2,14.02-2.96,15-10.35.73-5.49-.57-10.66-3.44-15.28-3.18-5.12-6.45-10.24-10.28-14.88-13.57-16.42-18.42-35.52-17.46-56.31.5-10.85,1.85-21.65,2.84-32.72-6.62,1.57-13.49,2.34-20.05-1.2.09-.35.07-.55.16-.62,15.92-13.21,21.01-32.36,28.09-50.53,4.46-11.45,9.33-22.89,15.44-33.52,7.04-12.26,17.21-21.9,30.5-27.62,8.04-3.45,16.19-3.93,24.12.33,8.68,4.66,11.18,16,5.35,23.7-3.13,4.13-7.43,5.71-11.66,4.27-4.79-1.63-6.57-4.78-6.49-12.72-3,2.62-5.91,4.36-7.73,6.89-16.5,22.8-19.22,47.32-8.54,73.32.82,1.99,1.88,3.87,2.85,5.79.12.24.41.39,1.07.99.18-1.26.44-2.24.45-3.22.09-7.19-.02-14.39.22-21.58.6-17.54,10.58-27.38,28.2-27.09,7.57.12,15.12,1.65,22.67,2.62,19.72,2.55,36.11-3.03,47.84-19.72,3.24-4.62,5.09-9.84,5.39-16.12-5.7,0-11.02.31-16.27-.14-2.44-.21-5.31-1.33-7.02-3.02-5.21-5.15-10.03-10.7-14.8-16.27-.97-1.13-1.05-3.03-1.54-4.57,1.29-.4,2.58-1.13,3.87-1.14,9.07-.05,18.14-.06,27.2.13,4.69.1,7.54-2.01,9.24-6.23,1.97-4.88,4.1-9.7,6.16-14.54h5.18c8.06,2.33,16.12,1.81,24.18,0h4.32c2.04,4.72,4.17,9.4,6.1,14.17,1.83,4.53,4.86,6.75,9.91,6.61,8.77-.24,17.55-.22,26.32-.13,1.69.02,3.36.87,5.04,1.34-.83,1.59-1.41,3.4-2.54,4.73-4.19,4.92-8.75,9.54-12.82,14.56-2.91,3.6-6.29,5.06-10.85,4.79-4.64-.28-9.3-.06-14.45-.06.58,2.69.83,4.53,1.37,6.28,5.16,16.51,21.38,29.42,38.99,29.57,10.7.09,21.42-1.81,32.12-2.86,15.57-1.53,27.7,5.6,30.85,18.71,1.09,4.55,1.11,9.4,1.27,14.13.2,6.09.05,12.2.05,18.3.36.09.71.19,1.07.28.67-.97,1.43-1.9,2-2.93,12.34-22.36,8.9-57.68-7.65-77.35-1.84-2.19-4.45-3.73-7.17-5.95-.37,8.57-3.08,12.43-8.4,12.92-5.68.52-10.92-3.69-12.64-10.15-2.36-8.87,3.5-17.89,13.4-20.29,10.61-2.57,19.85,1.08,28.35,7,14.12,9.83,23.59,23.43,30.08,39.08,5.94,14.31,11.22,28.88,16.95,43.27,3.94,9.89,9.53,18.57,19.21,23.91v.86h0ZM201.99,180.1h-93.7c-7.13,0-8.14,1.03-8.14,8.29,0,48.5.04,97.01-.04,145.51-.01,7.74,2.06,14.76,6.23,21.16,6.98,10.71,16.51,18.84,27.44,25.13,21.89,12.61,44.02,24.82,66.14,37.04,1.1.61,3.22.25,4.45-.42,15.73-8.63,31.52-17.18,47.02-26.22,11.26-6.56,22.71-13.05,32.99-20.97,13.15-10.13,20.76-23.68,19.21-41.14-.37-4.14-.21-8.34-.21-12.51-.01-42.75,0-85.49-.01-128.24,0-6.87-.76-7.64-7.67-7.64h-93.71ZM333.45,425.52c-1.61.98-2.66,1.68-3.77,2.28-7.44,4.01-14.63,8.65-22.41,11.85-19.67,8.08-40.34,12.41-61.49,14.29-37.24,3.32-74.4,3.84-111.29-3.65-22.32-4.53-44.11-10.51-63.09-23.89-.3-.21-.79-.14-1.53-.25-2.35,12.03-4.89,23.96-6.85,35.98-.41,2.49.48,6.23,2.21,7.84,5.53,5.14,11.25,10.43,17.78,14.09,18.06,10.11,38.21,13.93,58.37,17.13,30.96,4.92,62.13,5.88,93.38,3.37,20.94-1.68,41.77-4.37,61.95-10.49,15.11-4.58,29.3-11.01,40.57-22.63,2.91-3,4.4-6.18,3.26-10.5-.95-3.6-1.31-7.35-2.04-11.02-1.61-7.99-3.29-15.97-5.03-24.39h-.02ZM221.19,154.23c.17.87.13,1.25.29,1.39,10.5,8.79,22.28,15.04,36.15,15.62,13.79.58,27.62.09,41.43.26,7.26.09,11.75,4.18,12.86,11.38.35,2.26.4,4.58.4,6.88.02,46.63-.32,93.26.18,139.88.2,18.48-6.95,32.75-20.4,44.59-12.08,10.63-26.16,18.09-40.1,25.83-15.55,8.64-30.98,17.51-46.27,26.61-3.04,1.81-4.93,2.08-8.03.19-14.07-8.6-28.37-16.84-42.55-25.27-12.95-7.7-26.44-14.64-38.61-23.42-15.37-11.09-25.45-25.82-25.36-46.05.23-48.5.13-97,.18-145.51,0-9.9,5.29-15.22,15.11-15.22,11.66,0,23.31-.04,34.97.1,10.18.12,19.71-2.25,28.47-7.31,4.41-2.55,8.42-5.76,12.62-8.67-.28-.68-.57-1.37-.85-2.05-6.43.81-13.54.14-19.14,2.73-13.87,6.4-27.78,8.36-42.78,5.92-7.7-1.25-15.7-1.33-23.52-1.02-5.82.23-10.33,3.87-12.28,9.47-1.21,3.46-1.72,7.32-1.73,11.01-.13,51.81-.07,103.63-.19,155.44-.03,13.34,4.75,24.67,13.38,34.54,11.92,13.65,27.03,23.07,42.59,31.88,20.35,11.53,40.61,23.22,61.01,34.65,1.44.81,4.18.66,5.68-.18,19.28-10.79,38.41-21.87,57.67-32.71,12.39-6.97,24.82-13.84,35.54-23.33,13.6-12.03,23.54-25.9,23.5-45.09-.1-50.23-.09-100.46-.13-150.69,0-2.88.01-5.76-.11-8.63-.41-9.14-5.45-15.5-14.48-16.54-6.04-.69-12.38-.37-18.39.65-15.67,2.65-31.04,2.8-45.36-4.92-7.21-3.89-14.37-1.72-21.73-2.4h-.02ZM248.48,101.3c-6.16,0-11.62.05-17.07-.01-6.11-.06-10.81-2.51-13.46-8.26-1.38-2.99-2.52-6.15-4.29-8.89-.89-1.37-2.89-2.61-4.5-2.79-3.69-.4-7.46-.12-11.2-.11-7.84.03-6.46-1.42-9.77,6.55-4.85,11.65-7.82,13.56-20.52,13.57h-12.08c3.49,5.69,7.95,7.37,14.01,7.3,21.98-.27,43.98-.23,65.96.18,6,.11,9.58-2.4,12.93-7.54h0ZM53.74,156.97c-.59,0-1.18.02-1.76.02-.5,7.19-1.85,14.45-1.27,21.54.58,7.11,3.09,14.06,4.74,21.03-6.24-2.94-9.79-8.63-11.31-15.31-3.4-14.93.11-29.08,6.15-42.72,5.43-12.26,13.36-22.41,25.38-28.96,8.02-4.37,15.65-3.41,20.81,2.83.99-3.43-.61-5.54-3.4-7.01-4.76-2.51-9.65-2.47-14.6-.6-8.28,3.11-14.99,8.4-20.71,15.02-9.64,11.16-15.65,24.29-20.88,37.92-4.61,12.03-9.65,23.91-14.58,35.82-.78,1.89-1.98,3.61-3.38,6.11,9.64-4.39,11.31-13.6,15.67-21.46,4.26,19.93,17.86,31.05,33.15,27.35-11.65-15.29-15.42-32.73-14-51.59h-.01ZM383.85,202.4c-3.68-8.01-7.41-15.58-10.68-23.34-5.61-13.34-10.31-27.11-16.56-40.13-6.04-12.59-14.91-23.22-27.85-29.64-5.89-2.92-11.95-4.21-18.15-.83-2.75,1.5-4.2,3.69-3.96,6.63,2.53-1.72,4.59-4.23,6.85-4.42,4.12-.36,8.77-.31,12.49,1.26,22.97,9.72,39.25,43.24,33.73,71.88-1.38,7.17-5.74,12.78-13.59,16.6,8.41-15.27,9.04-30.07,3.85-45.32,1.95,19.58-2.47,37.55-14.22,53.91,9.1,1.3,16.41-1.17,22.89-6.16,6.55-5.05,9.46-12.17,10.46-20.35,3.52,7.83,6.9,15.43,14.73,19.92h0ZM32.47,205.06c-4.13,12.2-6.23,24.69-6.97,37.45-1.12,19.36,2.19,37.55,14.23,53.38,6.84,9,14,17.78,17.09,29.03.68-12.04-5.6-21.31-11.76-29.41,5.04-2,10.3-3.22,14.56-5.98,5.88-3.79,5.93-11.35.42-15.39,1.59,4.97-.4,8.16-4.32,10.26-4.15,2.22-8.48,2.28-12.12-.8-2.78-2.36-5.64-5.06-7.3-8.22-6.35-12.07-6.02-24.97-4.01-38.37,9.37,11.57,18.32,14.45,25.77,8.29-9.03-6.54-14.08-15.68-17.24-26.08.25,9.65,5.16,17.14,11.02,24.48-3.79-1.77-7.75-3.47-10.43-6.36-8.42-9.07-8.55-20.73-8.93-32.27h-.01ZM371.04,236.82c1.76,10.52,2.3,20.29-.54,29.75-1.53,5.1-4.18,10.1-7.33,14.42-3.12,4.28-8.08,6.13-13.47,4.26-4.62-1.6-7.23-5-7.53-10.4-1.36,2.29-2.93,4.86-2.51,7.03,2.04,10.51,10.82,11.68,19.95,12.71-7.86,9.5-13.7,19.14-13.05,31.34,2.57-10.47,8.59-18.93,15.18-27.19,8.78-11.01,14.13-23.56,15.75-37.63,1.98-17.26-.26-34.14-4.54-50.83-.43-1.67-1.09-3.27-1.53-4.58-1.15,7.49-1.61,15.17-3.63,22.42-2.41,8.66-9.75,14.83-15.49,14.44,6.1-7.15,10.72-14.83,10.71-24.54-2.91,10.93-8.09,20.45-17.26,27.52,8.9,5.67,17.45,2.8,25.29-8.71h0ZM330.08,217.07v60.08c1.9-5.84,4.69-10.75,11.31-11.68,7.59-1.06,12.08,2.92,14.28,10.81,3.52-4.87,4.08-9.59,4.56-14.44.37-3.79-.95-5.24-4.76-4.99-6.48.41-12.06-2.34-17.32-5.66-4.87-3.08-4.9-6.99-.2-10.18,5.81-3.95,9.74-9.32,11.93-15.89.9-2.69,1.13-5.61,1.59-8.04h-21.4.01ZM52.13,217.03c.74,9.6,4.49,17.78,12.76,23.51,5.5,3.81,5.86,6.62.49,10.67-2.78,2.09-6.22,3.54-9.58,4.57-2.97.91-6.27.69-9.37,1.28-1.17.22-3.04,1.23-3.11,2.01-.53,5.97.48,11.63,4.41,16.74,2.63-7.31,5.76-10.16,11.25-10.47,7.95-.44,11.76,4.48,14.3,12.19v-60.49h-21.15,0ZM310.7,409.76c13.16-6.64,20.86-8.64,25.7-6.81-3.59,1.29-7.13,2.42-10.56,3.82-3.23,1.32-6.36,2.92-9.53,4.39,7.51,1.07,13.96-4.74,20.04-1.73,2.53,4.76,4.47,8.42,6.66,12.55-.07.14-.52,1.1-1.36,2.87,10.97-2.27,20.52-5.76,30.01-12.23-8.25-1.02-15.29-2.22-19.96-9.02,5.44-4.35,11.5-7.83,14.27-14.21-7.92,2.07-15.7,4.35-23.6,6.09-6.15,1.36-12.53,1.73-18.67,3.16-5.71,1.34-10.41,4.47-13.01,11.13h0ZM67.44,402.52c9.3-.48,17.18,1.88,24.53,6.62.12-.75.25-1.04.18-1.26-.14-.4-.39-.76-.61-1.13-3.54-5.83-9.32-7.76-15.54-8.94-13.01-2.46-26.49-2.93-39.23-10.04,3.24,7.94,9.37,11.71,15.22,15.82-4.82,7.12-12.13,7.95-20.43,8.75,9.78,6.65,19.48,10.35,30.7,12.89-.8-1.97-1.24-3.06-1.26-3.12,2.09-4.33,3.88-8.03,6.09-12.59,6.2-3.17,12.74,2.47,19.76,2.89l.52-1.63c-6.37-2.64-12.75-5.29-19.92-8.26h-.01ZM226.35,170.57c-6.63-5.46-12.14-10.28-17.95-14.69-3.78-2.87-8.45-2.91-12.18-.36-6.41,4.38-12.31,9.49-19.38,15.05h49.51ZM185.37,128.71h32.54c-.53-3.23-.81-6.24-1.62-9.1-.27-.95-1.89-2.12-2.93-2.16-7.62-.24-15.25-.34-22.86-.15-1.2.03-3.01,1.49-3.42,2.67-.92,2.66-1.14,5.56-1.71,8.74h0ZM226.46,144.53c-1.91-3.87-3.73-6.32-8.43-6.15-10.78.38-21.59.38-32.37,0-4.86-.17-6.82,2.29-8.49,6.14h49.29ZM315.94,424.31c-1.71,1.08-3.47,2.19-5.23,3.3.34.56.67,1.11,1.01,1.67,5.6-3.29,11.2-6.59,16.79-9.88-4.45-.29-8.53.12-12.53.95-1.97.41-3.78,1.58-5.67,2.41,1.83.51,3.67,1.01,5.63,1.55ZM92.35,429.45c.32-.53.65-1.07.97-1.6-1.83-1.24-3.66-2.47-6.33-4.28,2.01.14,3.01.42,3.89.21.91-.22,1.72-.91,2.57-1.39-.73-.49-1.41-1.28-2.2-1.43-5.2-.95-10.42-1.76-15.63-2.61-.14.36-.28.73-.41,1.09,5.72,3.33,11.43,6.67,17.15,10h-.01Z"/>
      <path class="cls-1" d="M191.23,0h22.94c.11.09.21.24.34.27,3.16.71,4.8,2.78,5.29,5.88.3,1.88.51,3.78.93,5.64.14.62.68,1.39,1.24,1.62,2.23.93,4.52,1.72,6.83,2.44.51.16,1.33,0,1.74-.34,1.48-1.2,2.84-2.54,4.26-3.81,3.54-3.15,7.32-3.22,10.54.19,4.06,4.29,8.66,7.7,13.95,10.34,4.68,2.33,5.59,6.35,2.87,10.84-1.22,2.01-2.43,4.03-3.6,5.98,1.37,2.2,2.7,4.23,3.91,6.32.51.89,1.15,1.19,2.12,1.16,2.22-.06,4.44-.08,6.66-.06,3.49.03,6.46,2.42,7.07,5.79,1.21,6.69,2.38,13.38,3.49,20.09.6,3.61-1.1,6.36-4.56,7.6-1.89.68-3.75,1.5-5.7,1.92-1.89.41-2.38,1.51-2.55,3.2-.46,4.66-2.34,6.54-7.05,6.62-8.67.14-17.35.07-26.03.08-.19,0-.39-.07-.65-.13.03-.34.03-.64.08-.94.53-3.35,1.24-6.69,1.58-10.06.66-6.55.09-12.99-2.82-19.02-4.25-8.8-11.5-14.26-20.42-17.65-10.23-3.89-19.89-2.26-29.18,3.23-12.58,7.44-18.69,20.14-16.36,34.57.49,3.03,1.13,6.04,1.72,9.18-1.55.22-3.02.59-4.49.62-7.64.14-15.28.31-22.91.21-3.95-.05-6.42-3.04-6.32-6.95.06-2.27-.21-2.6-2.45-3.07-.66-.14-1.32-.24-1.97-.41-3.93-1-7.21-2.78-8.39-7.06v-1.86c.1-.32.25-.64.3-.97.92-6.32,1.78-12.64,2.74-18.95.63-4.15,3.02-6.08,7.22-6.05,2.48,0,4.96.08,7.43-.02.58-.02,1.34-.47,1.66-.96,1.17-1.75,2.14-3.64,3.28-5.41.47-.73.39-1.26-.03-1.94-1.15-1.89-2.23-3.82-3.34-5.74-2.36-4.05-1.47-7.73,2.52-10.2,1.79-1.11,3.8-1.92,5.45-3.21,3.24-2.52,6.32-5.25,9.43-7.94,2.93-2.54,6.49-2.55,9.36.03,1.69,1.52,3.33,3.09,5.09,4.52.45.36,1.32.54,1.88.38,2.23-.62,4.44-1.34,6.6-2.18.51-.2,1.03-.92,1.16-1.49.38-1.6.67-3.24.79-4.87C185.17,3.35,187.27.9,191.23,0h0Z"/>
      <path class="cls-1" d="M200.85,354.88v-21.5h-82.44c28.32-48.26,56.39-96.09,84.63-144.22,1.29,2.12,2.46,3.96,3.56,5.84,17.03,29.19,34.06,58.38,51.07,87.59.86,1.47,1.92,2.21,3.67,2.17,3.96-.08,7.92-.05,11.87-.01,1.66.02,2.92-.41,3.77-2,.97-1.82,2.65-2.52,4.71-2.47,2.07.06,4.15.01,6.4.01v-6.63c-3.06,0-6.16-.09-9.24.07-.63.03-1.21,1.02-1.81,1.58-2.18,2.03-5.41,1.99-7.28-.11-1.81-2.03-1.43-5.18.85-7,1.64-1.32,4.32-1.29,6.13.34,1.47,1.32,3.1,1.73,4.96,1.73h10.56v13.45c-2.88,0-5.69.1-8.5-.03-2.27-.11-4,.34-5.17,2.56-.97,1.85-2.91,2.16-4.89,2.12-3.26-.07-6.53-.06-9.79-.09h-2.03c.39,3.54,1.78,5.05,4.95,5.27,1.79.12,3.61,0,5.41-.11,2.39-.13,4.47.21,6.11,2.31,1.45,1.86,6.94,1.34,8.93-.66,2.75-2.75,5.83-2.94,8.23-.51,2.2,2.23,2.17,5.48-.08,7.6-2.14,2.03-5.6,2.09-7.44-.22-1.37-1.72-2.89-2.16-4.88-1.95-1.17.12-2.4.31-3.53.09-1.23-.24-2.76-.61-3.48-1.49-1.33-1.63-2.85-2-4.73-1.93-1.52.06-3.04.01-4.96.01,7.13,12.6,14.1,24.93,21.27,37.61h-82.55v21.03c1.87-.18,2.42-1.66,2.97-3.05.73-1.83,1.77-2.27,3.51-1.19,1.64,1.02,3.43,1.82,5.08,2.83,2.2,1.34,2.41,2.32,1.67,4.7-.37,1.19-1.78,2.36-.38,3.76,1.67,1.67,3,3.92,6.06,2.72,1.69-.66,2.91,0,3.35,1.95.44,1.96,1.01,3.9,1.65,5.8.6,1.78-.03,2.76-1.73,3.32-3.04,1-4.44,3.23-3.67,6.23.22.85,1.24,1.57,2.02,2.19,2.19,1.73,2.29,1.99.77,4.39-.96,1.53-1.98,3.02-3,4.51-1.3,1.91-2.31,2.23-4.1.78-1.53-1.24-2.78-1.18-4.23-.09-.44.33-.94.61-1.45.8-2.56.92-4.24,2.33-3.62,5.43.28,1.38-.69,2.05-1.99,2.07-3.27.04-6.53.03-9.8.01-1.83-.01-2.54-1.14-2.18-2.75.55-2.48-.49-3.82-2.72-4.57-.58-.2-1.16-.5-1.66-.86-1.83-1.32-3.44-1.53-5.23.26-1.25,1.25-2.7.86-3.71-.6-1.26-1.83-2.46-3.7-3.71-5.53-1.11-1.63-.69-3.02.94-3.79,2.32-1.09,2.46-2.89,2.18-5.03-.26-2.06-1.56-3.04-3.4-3.41-2.11-.42-2.44-1.71-1.99-3.52.48-1.95.98-3.89,1.42-5.85.38-1.67,1.21-2.34,2.99-1.75,2.6.86,6.51-1.13,7.15-3.76.18-.76-.5-1.79-.93-2.62-1.25-2.45-1.24-2.68,1.12-4.09,1.55-.92,3.12-1.81,4.74-2.6,3.34-1.65,3.36-1.62,4.89,1.71.51,1.1,1.4,1.49,2.67,1.16h.04ZM268.69,322.23c-22.02-37.05-43.89-73.84-65.9-110.88-21.96,37.43-43.74,74.55-65.64,111.87h63.63v-16.09h-38.03c13.59-22.31,27.02-44.35,40.61-66.64,13.46,22.6,26.86,45.08,40.46,67.91h-38.75v13.83h63.62ZM181.77,297.1h42.39c-7.08-11.89-13.98-23.5-21.04-35.36-7.18,11.88-14.15,23.43-21.36,35.36h.01ZM213.9,376.99c.12-5.41-4.83-10.43-10.47-10.62-5.81-.2-11.07,4.61-11.24,10.29-.17,5.5,4.8,10.51,10.61,10.68,5.91.17,10.97-4.54,11.1-10.34h0Z"/>
      <path class="cls-1" d="M269.25,251.06h-6.45c0,1.31.02,2.59,0,3.86-.02.84-.05,1.7-.21,2.52-.19.96-.91,1.36-2.01,1.33-.95-.03-1.56-.51-1.71-1.48-.11-.72-.1-1.46-.11-2.19-.01-1.38-.02-2.75.01-4.13,0-.41-.12-.55-.52-.59-1.42-.16-2.85-.3-4.26-.55-1.85-.33-2.66-1.18-3.01-3.04-.22-1.2-.38-2.42-.58-3.62-.04-.22-.1-.43-.15-.67-1.61,0-3.19,0-4.77,0-.56,0-1.14-.03-1.68-.16-.91-.23-1.32-.94-1.26-2,.05-1.02.53-1.63,1.48-1.78.5-.08,1.01-.07,1.52-.08h4.15v-6.7h-4.13c-.41,0-.83,0-1.24-.02-1.14-.08-1.8-.71-1.85-1.74-.06-1.15.54-1.99,1.68-2.09,1.27-.12,2.56-.09,3.84-.11.9,0,1.8,0,2.73,0v-6.7h-.62c-1.58,0-3.17,0-4.75,0-.36,0-.72-.02-1.07-.07-1.19-.16-1.73-.74-1.72-1.84,0-1.19.58-1.89,1.75-2.04.5-.07,1.01-.07,1.52-.08,1.3,0,2.6-.02,3.9,0,.42,0,.56-.15.63-.52.24-1.25.49-2.51.77-3.75.36-1.58,1.36-2.53,2.95-2.79,1.32-.21,2.64-.37,3.97-.56.22-.03.44-.08.69-.13,0-1.62-.01-3.2,0-4.78,0-.66.02-1.32.14-1.96.19-1,.77-1.44,1.78-1.47.94-.03,1.69.43,1.92,1.33.16.61.2,1.26.21,1.9.03,1.34,0,2.68,0,4.01v.63h6.48v-4.77c0-.62,0-1.25.11-1.85.14-.83.63-1.22,1.42-1.28.99-.08,1.72.27,1.99,1.04.15.42.2.88.21,1.33.02,2.16,0,4.33,0,6.53h7.13v-3.45c0-1.17-.04-2.34,0-3.5.07-1.62,1.52-2.45,2.98-1.72.85.42.99,1.23.99,2.06.01,1.9,0,3.81,0,5.71v.65h.53c1.57-.1,3.12-.13,4.63.43,1.76.65,2.55,1.99,2.59,3.78.02.89-.17,1.79-.26,2.69-.01.13-.04.25-.07.46h6.01c.24,0,.49,0,.73.04,1.19.13,1.79.73,1.83,1.82.05,1.14-.54,1.88-1.73,2.06-.57.09-1.16.07-1.75.07h-5.33v6.7h6.28c.3,0,.6.03.9.08,1.15.19,1.69.9,1.64,2.12-.04,1.05-.68,1.71-1.82,1.74-1.77.05-3.54.03-5.31.03h-.69v6.67h.64c1.53,0,3.05,0,4.58,0,.3,0,.6,0,.9.05,1.1.14,1.64.69,1.7,1.68.07,1.14-.42,1.91-1.47,2.17-.45.11-.93.14-1.4.14-1.69.02-3.39,0-5.16,0-.15,1.14-.3,2.25-.45,3.37-.04.32-.08.63-.16.95-.47,2.02-1.33,2.77-3.6,3.14-1.08.17-2.15.36-3.23.51-.42.06-.54.24-.54.66,0,1.92.02,3.84-.07,5.76-.07,1.48-1.32,2.25-2.73,1.81-.61-.19-.95-.62-1.07-1.2-.11-.51-.13-1.04-.14-1.57-.01-1.85,0-3.69,0-5.54,0-.09-.01-.18-.02-.3h-7.07c-.01.17-.03.33-.03.49v5.31c0,.45-.01.91-.09,1.35-.18,1.07-.71,1.51-1.75,1.53-1.01.01-1.62-.46-1.83-1.48-.08-.38-.07-.79-.08-1.18v-5.04l.04.02ZM287.82,246.01v-.73c.02-9.55.05-19.11.06-28.66,0-.45-.07-.9-.17-1.34-.15-.65-.58-1.07-1.23-1.17-.69-.1-1.38-.14-2.08-.14-5.05,0-10.1.03-15.15.03-4.15,0-8.29-.04-12.44-.04-1.65,0-2.26.62-2.25,2.27,0,1.54.06,3.09.07,4.63.04,8.18.08,16.35.12,24.53,0,.2.02.4.03.61h33.04Z"/>
      <path class="cls-1" d="M246.43,361.13c-1.06-1.29-2.11-2.58-3.16-3.88-2.79-3.44-5.55-6.89-8.36-10.32-.68-.83-1.49-1.55-2.23-2.33-1.77-1.9-2.31-4.19-2.1-6.71.05-.63.15-1.26.22-1.9h34.88c.33,4.55.65,9.07.98,13.62-.87.19-1.7.29-2.53.11-1.24-.27-1.88-1.14-2.24-2.28-.31-.97-.7-1.9-1.37-2.69-1.07-1.27-2.49-1.81-4.09-1.84-1.26-.02-2.52.15-3.78.16-2.82.02-5.64,0-8.46-.02h-1.51c4.45,5.48,8.82,10.87,13.22,16.3-.73.87-1.45,1.75-2.17,2.62-3.67,4.41-7.34,8.82-11,13.24-.1.12-.14.34-.12.51.03.26.23.31.48.31,5.04-.02,10.07-.03,15.11-.05.78,0,1.33-.47,1.72-1.06.78-1.19,1.49-2.41,2.24-3.62.31-.5.64-1,.99-1.47.3-.41.74-.65,1.24-.66.94-.02,1.89.02,2.9.04-.14.85-.25,1.6-.38,2.35-.36,2.12-.72,4.24-1.11,6.36-.61,3.38-3.54,5.83-6.97,5.83-7.11,0-14.22,0-21.33-.02-1.52,0-3.06-.05-4.57-.24-1.35-.16-1.64-.41-1.83-2.09-.16-1.46.42-2.73,1.34-3.83,2.8-3.31,5.62-6.6,8.43-9.91,1.85-2.17,3.68-4.36,5.54-6.56l.02.03Z"/>
      <path class="cls-1" d="M142.25,344.76c-.88-.06-1.74-.11-2.61-.17v-6.47h21.23v6.33c-.8.13-1.6.25-2.42.39-.04,1.22-.09,2.41-.12,3.61-.04,1.66-.07,3.31.22,4.96.31,1.76,1.02,3.34,2.04,4.81,2.38,3.39,4.74,6.79,7.11,10.19,2.06,2.96,2.17,6.82.24,9.71-1.26,1.9-3.07,2.98-5.33,3.19-6.55.6-13.12.67-19.69.27-1.77-.11-3.55-.17-5.3-.44-3.28-.51-5.76-3.28-6.11-6.57-.23-2.15.25-4.11,1.41-5.91,1.73-2.7,3.58-5.31,5.67-7.74,2.12-2.46,3.26-5.36,3.68-8.57.32-2.51.21-5.02-.02-7.59h0ZM160.9,369.21c-.11-.18-.19-.33-.28-.47-1.35-2.03-2.72-4.06-4.05-6.1-1.82-2.79-3.04-5.82-3.31-9.17-.16-2.02-.28-4.05-.42-6.07-.05-.75-.11-1.5-.17-2.26h-4.18c-.06.85-.17,1.7-.17,2.55,0,1.89.13,3.77.12,5.66,0,1.89-.5,3.66-1.57,5.26-1.94,2.88-3.85,5.77-5.78,8.66-.43.64-.86,1.27-1.32,1.95h21.13Z"/>
      <path class="cls-1" d="M124.35,259.18c.42-.4.7-.66.97-.94.39-.4.89-.53,1.42-.55,1.18-.06,2.36-.09,3.53-.18,1.21-.09,2.01-.88,2.23-2.07.67-3.63,1.36-7.25,2.03-10.88.73-4,1.45-8,2.18-12,.31-1.72.63-3.44.95-5.16.19-1.01-.02-1.86-.89-2.5-2.82-2.08-2.78-6.74.55-8.92,2.13-1.4,5.19-1.17,6.8.61,1.41,1.56,2.12,3.4,1.25,5.48-.29.69-.8,1.38-1.39,1.82-1.38,1.02-1.61,2.3-1.34,3.88,1.07,6.17,2.1,12.36,3.14,18.54.6,3.57,1.2,7.14,1.8,10.71.02.1.05.2.08.28h2.34c.52,0,1.04.02,1.57.05.62.03,1.15.28,1.61.69.31.28.63.54,1,.86-.48.51-.92,1.02-1.41,1.49-.54.51-1.27.51-1.95.51-1.84,0-3.67-.06-5.51-.07-6.05-.03-12.09-.06-18.14-.07-.73,0-1.3-.21-1.8-.72-.29-.29-.63-.55-1.01-.86h-.01ZM140.41,236.51c-.43-.13-.5.08-.56.36-.88,4.06-1.76,8.11-2.64,12.16-.11.5-.2,1-.32,1.56,1.1-.55,2.13-1.06,3.16-1.57.47-.24.93-.48,1.38-.74.73-.43.97-.95.83-1.74-.42-2.34-.85-4.68-1.28-7.01-.19-1.01-.38-2.02-.57-3.02h0Z"/>
      <path class="cls-1" d="M109.48,217.58c.25-6.05,2.01-11.7,5.62-16.72,2.28-3.18,5.11-5.76,8.47-7.77,3.15-1.89,6.55-3.11,10.15-3.76,1.07-.19,2.14-.33,3.23-.15.78.13,1.43.51,1.93,1.11.67.79.46,1.87-.5,2.24-.6.23-1.27.31-1.91.38-4.15.46-8.02,1.72-11.49,4.09-2.91,2-5.42,4.41-7.35,7.38-1.68,2.59-2.82,5.41-3.47,8.42-.4,1.83-.61,3.67-.69,5.54-.02.5-.13,1.02-.31,1.49-.4,1.06-1.48,1.23-2.47.96-.72-.19-1.13-.77-1.19-1.65-.03-.49,0-.98,0-1.57h-.02Z"/>
      <path class="cls-1" d="M118.47,217.09c.49-4.83,2.24-9.05,5.48-12.63,1.81-1.99,3.94-3.55,6.38-4.68,1.68-.78,3.44-1.3,5.27-1.6.48-.08.94-.05,1.39.19.58.3,1.17.59,1.67,1.02.76.65.94,1.99-.5,2.5-.56.2-1.15.32-1.73.45-2.21.48-4.35,1.16-6.32,2.3-2.21,1.28-3.92,3.06-5.1,5.33-.95,1.82-1.52,3.77-1.86,5.79-.18,1.05-.28,2.11-.45,3.17-.08.53-.3,1.01-.64,1.43-.56.67-1.36.72-2,.13-.45-.42-.7-.96-.93-1.52-.21-.52-.42-1.05-.63-1.58-.04-.11-.03-.23-.04-.3h0Z"/>
      <path class="cls-1" d="M136.27,209.1c.81.04,1.56.24,2.24.68.41.27.64.66.71,1.13.08.5-.14.9-.51,1.22-.42.37-.93.58-1.46.73-.87.25-1.69.61-2.4,1.19-.79.65-1.36,1.47-1.76,2.41-.33.76-.52,1.55-.68,2.35-.09.44-.19.88-.4,1.29-.31.61-.82.86-1.5.76-.51-.07-.89-.35-1.2-.73-.3-.37-.56-.76-.84-1.14-.02-.03-.02-.08-.02-.12,0-.99.16-1.96.44-2.9.4-1.36,1.04-2.6,1.93-3.71.72-.89,1.56-1.64,2.55-2.21.79-.46,1.62-.78,2.51-.93.12-.02.25-.02.36-.03h.03Z"/>
      <path class="cls-1" d="M119.9,490.99c-4.21-.2-8.32-.93-12.34-2.09-4.37-1.27-8.71-2.65-13.04-4.03-1.21-.39-2.37-.97-3.54-1.47-.41-.18-.46-.86-.1-1.14.2-.16.38-.37.61-.47.38-.16.78-.31,1.19-.37.72-.11,1.46-.11,2.17-.25.73-.14,1.27-.65,1.54-1.33.47-1.15.91-2.33,1.26-3.52,1.88-6.41,3.74-12.83,5.58-19.26.14-.49.18-1.02.15-1.53-.05-1.08-.7-1.74-1.67-2.14-.36-.15-.74-.28-1.08-.48-.48-.28-.66-.68-.49-1.2.15-.46.37-.9.61-1.32.05-.09.32-.14.46-.1,1.64.46,3.27.94,4.91,1.42,4.43,1.29,8.86,2.55,13.28,3.89,2.38.72,4.76,1.49,7.08,2.41,2.57,1.02,4.72,2.71,6.63,4.7,2.03,2.1,3.41,4.55,3.93,7.44.42,2.31.24,4.59-.33,6.85-.83,3.27-2.14,6.32-4.37,8.9-2.4,2.79-5.46,4.39-9.1,4.85-1.1.14-2.22.16-3.33.23h-.01ZM113.39,457.94c-.54,1.96-1.05,3.82-1.56,5.69-1.71,6.28-3.42,12.57-5.12,18.85-.24.89.13,1.73,1,2.08.8.33,1.62.61,2.45.85,5.47,1.62,10.44-1.03,12.85-5.09,2.06-3.47,2.95-7.29,2.79-11.29-.16-4.08-2.15-7.06-5.95-8.67-2.1-.89-4.26-1.61-6.46-2.43h0Z"/>
      <path class="cls-1" d="M267.74,496.96c-.06-.95-.13-1.84-.19-2.76.45-.06.86-.1,1.27-.18,1.94-.37,3.19-1.57,3.74-3.4.52-1.71.87-3.47,1.25-5.22.94-4.39,1.85-8.78,2.77-13.17.5-2.39,1.01-4.79,1.48-7.19.1-.53.11-1.09.07-1.63-.06-.79-.49-1.29-1.27-1.41-.87-.14-1.76-.18-2.65-.21-1.07-.04-1.18-.1-1.29-1.25-.1-1.05-.07-1.07.95-1.31,4.35-1.02,8.7-2.02,13.04-3.05,1.18-.28,2.03.26,2.68,1.1,2.63,3.41,5.22,6.85,7.81,10.28,2.74,3.63,5.46,7.28,8.23,10.9.89,1.16,1.88,2.25,2.83,3.36.85.98,1.95,1.43,3.23,1.42.79,0,1.59-.02,2.38-.06.28-.01.42.07.52.33.2.56.43,1.1.67,1.72-.83.35-1.63.71-2.45,1.04-3.77,1.52-7.7,2.49-11.63,3.45-2.11.52-4.23,1.03-6.39,1.56-.17-.58-.39-1.15-.47-1.74-.03-.19.28-.53.51-.64.61-.3,1.28-.49,1.9-.77,1.21-.55,1.46-1.15.87-2.34-.54-1.07-1.12-2.12-1.79-3.12-.96-1.44-2.38-1.8-3.99-1.34-3.38.97-6.83,1.54-10.28,2.13-1.29.22-1.95.74-2.05,2.21-.08,1.16-.39,2.3-.56,3.46-.06.41-.07.85-.01,1.26.13.91.65,1.39,1.58,1.41.65.01,1.31-.05,1.95-.15,1.31-.19,1.59.02,1.67,1.34.02.34.04.68.07,1.07-5.48.96-10.93,1.92-16.44,2.89h-.01ZM280.58,479.46c3.86-.74,7.61-1.47,11.43-2.2-3.02-3.92-5.99-7.78-9.01-11.71-.81,4.67-1.61,9.25-2.41,13.91h0Z"/>
      <path class="cls-1" d="M180.48,465.27c.22,2.96.43,5.9.65,8.94-.53.09-1.06.23-1.59.26-.62.03-1.05-.35-1.29-.9-.18-.4-.29-.83-.44-1.25-.68-1.98-2.14-3.02-4.14-3.34-2.1-.34-4.21-.6-6.31-.91-1.64-.25-3.27-.53-4.91-.8-.16-.03-.32-.05-.54-.08-.44,3.33-.87,6.64-1.31,10,.35.05.69.1,1.03.14,2.64.32,5.28.64,7.92.95.43.05.86.1,1.28.14.59.05,1.02-.19,1.28-.72.45-.9.97-1.16,1.94-.9.45.12.89.28,1.37.44-.06.74-.12,1.46-.18,2.19-.14,1.6-.29,3.2-.43,4.8-.03.35-.04.71-.1,1.06-.02.11-.12.28-.2.29-.88.1-1.76.18-2.67.26-.03-.22-.06-.42-.1-.61-.27-1.35-1.12-2.12-2.67-2.34s-3.11-.39-4.67-.61c-1.38-.2-2.75-.43-4.13-.65-.07-.01-.15-.02-.26-.03-.66,4.04-1.31,8.06-1.97,12.11.75.06,1.46.13,2.16.18,2.69.22,5.38.47,8.07.66,1.69.12,3.39.19,5.09.23,1.41.04,2.51-.67,3.35-1.73.56-.71,1.05-1.49,1.5-2.27.66-1.16.86-1.28,2.18-1.01.26.05.52.11.84.17-.77,3.31-1.53,6.6-2.3,9.93-.69-.08-1.35-.15-2.01-.22-3.26-.37-6.52-.75-9.77-1.12-3.4-.39-6.79-.79-10.19-1.18-3.65-.42-7.3-.84-10.94-1.26-1.09-.13-2.19-.25-3.28-.39-.09-.01-.23-.17-.23-.25.03-.45.06-.91.16-1.35.11-.46.43-.77.93-.83.3-.04.61-.06.9-.02,2.03.22,3.38-.71,3.75-2.72.33-1.82.57-3.65.84-5.47.43-2.89.87-5.78,1.27-8.67.39-2.83.74-5.67,1.1-8.51.04-.33.08-.65.1-.98.11-1.6-.69-2.57-2.28-2.8-.26-.04-.53-.08-.78-.16-1-.3-1.4-.97-1.2-2,.16-.82.16-.8.97-.7,2.96.37,5.93.74,8.89,1.11,3.34.42,6.68.84,10.02,1.25,2.98.37,5.95.74,8.93,1.11,1.42.18,2.84.36,4.32.55h.05Z"/>
      <path class="cls-1" d="M235.99,499.96c-.05-.87-.09-1.68-.14-2.53.89-.22,1.77-.44,2.64-.67.33-.09.64-.21.96-.32,1.13-.4,1.7-1.24,1.69-2.41,0-1.34-.09-2.68-.19-4.01-.2-2.52-.43-5.03-.66-7.54-.24-2.6-.5-5.21-.75-7.81-.14-1.45-.26-2.9-.42-4.35-.08-.71-.24-1.4-.37-2.15-.56.06-1.06.1-1.55.17-1.88.23-3.77.46-5.65.7-.33.04-.66.16-.99.21-1.06.16-1.81.77-2.33,1.66-.37.64-.66,1.32-.98,1.99-.06.12-.09.25-.13.37-.5,1.29-1.33,1.64-2.65,1.12v-8.82c12.58-1.49,25.16-2.98,37.75-4.48.68,3.09,1.36,6.15,2.04,9.24-.82.18-1.6.35-2.39.5-.09.02-.24-.12-.3-.22-.35-.61-.64-1.25-1.02-1.84-.74-1.17-1.64-2.18-3.06-2.57-.88-.24-1.72-.05-2.58.09-1.65.26-3.32.47-4.98.71-.29.04-.59.08-.93.13.08.73.15,1.43.23,2.14.33,2.83.64,5.66.99,8.49.37,2.97.77,5.93,1.15,8.9.24,1.9.48,3.79.73,5.69.03.22.08.43.14.65.41,1.49,1.07,2.05,2.62,2.14,1.21.07,2.42.1,3.63.15.08,0,.15.01.27.02.08.82.17,1.62.25,2.47-7.68.73-15.32,1.45-23.01,2.18h-.01Z"/>
      <path class="cls-1" d="M189.53,500.9v-2.75c.85-.06,1.69-.09,2.52-.18.58-.06,1.17-.11,1.71-.3.8-.28,1.22-.96,1.26-1.78.07-1.39.08-2.78.08-4.17.03-6,.05-12,.06-18,0-1.08-.04-2.15-.03-3.23,0-.47-.16-.86-.49-1.15-.5-.44-1-.89-1.58-1.21-.37-.21-.87-.22-1.32-.27-.39-.04-.79,0-1.2,0v-2.65h20.04c0,.72.03,1.44,0,2.14-.02.32-.34.41-.63.43-.71.06-1.42.1-2.13.17-.37.04-.74.11-1.1.18-1.03.2-1.59.84-1.7,1.86-.08.71-.14,1.42-.14,2.13v21.26c0,.41.02.82.08,1.22.18,1.34.81,1.97,2.2,2.04,1.7.08,3.41.07,5.12.07.93,0,1.88,0,2.8-.13,2.54-.38,4.4-1.81,5.73-3.97.61-.99.9-2.1,1.26-3.18.09-.26.19-.37.49-.34.53.05,1.05.08,1.51.38.09.06.2.2.19.29-.09,1.47-.21,2.94-.31,4.41-.11,1.6-.24,3.19-.33,4.79-.08,1.46-.47,1.83-1.94,1.83-4.46.01-8.91.05-13.37.07-2.84.01-5.68.02-8.52.03-3.26,0-6.53.01-9.79.01h-.46Z"/>
      <path class="cls-1" d="M271.32,240.86h-10.59c-.18,0-.27-.09-.27-.28v-21.18c0-.19.1-.29.3-.29h21.16c.19,0,.29.09.29.28v21.18c0,.19-.1.29-.3.29h-10.59Z"/>
    </g>
  </g>
</svg>